<svg width="4000" height="2667" viewBox="0 0 4000 2667" fill="none" xmlns="http://www.w3.org/2000/svg">
<path d="M3517.77 1202.52C3517.77 932.027 3298.49 712.746 3028 712.746C2757.51 712.746 2538.23 932.027 2538.23 1202.52C2538.23 1363.75 2616.15 1506.76 2736.36 1596.01V1915.11H3319.64V1596.01C3439.85 1506.76 3517.77 1363.75 3517.77 1202.52Z" fill="#FFD966"/>
<path d="M3320 2331H2735V1922H3320V2331Z" fill="#878787"/>
<path d="M3313 2213H2742V2039H3313V2213Z" fill="#6C6C6C"/>
<path d="M2847.08 1096.65C2846.69 1097.99 2846.33 1099.35 2845.99 1100.69C2847.17 1100.41 2848.36 1100.15 2849.55 1099.91C2848.72 1098.84 2847.89 1097.75 2847.08 1096.65ZM2873.88 1097.47C2892.55 1097.47 2911.08 1101.69 2927.43 1109.79C2928.36 1083.71 2942.67 1057.61 2965.49 1041.45C2975.6 1034.29 2987.21 1029.05 2999.64 1025.85C2987.57 1015.83 2972.07 1009.25 2955.49 1008.36C2922.72 1006.56 2888.6 1024.93 2866.4 1056.17C2858.68 1067.04 2852.77 1078.99 2848.65 1091.52C2850.45 1094.11 2852.33 1096.61 2854.28 1099.04C2860.77 1097.99 2867.33 1097.47 2873.88 1097.47ZM2931.77 1116.93C2931.8 1117.36 2931.84 1117.8 2931.87 1118.24C2932.21 1122.44 2932.69 1126.45 2933.29 1130.25C2938.6 1130 2943.89 1129.81 2949.17 1129.72C2943.88 1124.85 2938.03 1120.57 2931.77 1116.93ZM2956.41 1129.67C2967.97 1129.67 2979.45 1130.16 2990.8 1131.33C3011.15 1118.29 3024.63 1095.92 3024.28 1073.77C3024.03 1057.05 3016.03 1041.21 3003.52 1029.29C2990.52 1032.28 2978.4 1037.55 2967.96 1044.95C2945.61 1060.76 2931.81 1086.53 2931.64 1111.99C2940.32 1116.76 2948.31 1122.68 2955.24 1129.67C2955.64 1129.67 2956.03 1129.67 2956.41 1129.67ZM2857.47 1102.84C2867.91 1114.84 2880.37 1124.72 2894 1131.43C2895.08 1131.96 2896.17 1132.48 2897.25 1132.99C2907.84 1131.96 2918.45 1131.08 2929.01 1130.48C2928.43 1126.71 2927.96 1122.73 2927.61 1118.59C2927.51 1117.24 2927.43 1115.88 2927.4 1114.52C2906.47 1103.61 2881.57 1099.44 2857.47 1102.84ZM2844.89 1105.35C2842.48 1116.33 2841.36 1127.61 2841.53 1138.88C2849.44 1138.07 2857.33 1137.2 2865.21 1136.35C2873.19 1135.47 2881.2 1134.6 2889.21 1133.77C2875.48 1126.49 2862.97 1116.09 2852.56 1103.64C2849.99 1104.12 2847.43 1104.68 2844.89 1105.35ZM2959.27 1133.96C2961.43 1136.43 2963.48 1139.01 2965.4 1141.72C2969.44 1140.83 2973.37 1139.67 2977.19 1138.21C2979.63 1137.28 2982 1136.23 2984.32 1135.05C2976.03 1134.36 2967.67 1134.03 2959.27 1133.96ZM2840.28 1106.63C2830.92 1109.48 2821.88 1113.57 2813.48 1118.96C2803.36 1125.47 2794.37 1133.56 2786.68 1142.85C2803.48 1142.36 2820.41 1140.99 2837.31 1139.31C2837.11 1128.35 2838.09 1117.36 2840.28 1106.63ZM2905.69 1136.48C2914.28 1139.69 2922.97 1141.87 2931.57 1142.99C2930.88 1140.35 2930.28 1137.59 2929.73 1134.73C2921.73 1135.17 2913.72 1135.77 2905.69 1136.48ZM2936.12 1143.48C2944.53 1144.23 2952.83 1143.93 2960.77 1142.61C2958.52 1139.57 2956.08 1136.68 2953.48 1133.96C2947.03 1134 2940.55 1134.2 2934.04 1134.51C2934.64 1137.64 2935.33 1140.64 2936.12 1143.48ZM2937.44 1147.87C2941.83 1161.17 2948.53 1171.03 2957.67 1177.67C2964.39 1182.55 2972.15 1185.48 2980.67 1186.99C2976.92 1172.55 2971.64 1158.76 2963.48 1146.47C2955.09 1148.04 2946.35 1148.49 2937.44 1147.87ZM2985.24 1187.65C3008.24 1190.32 3036.03 1183.77 3063.19 1177.39C3071.91 1175.33 3080.52 1173.29 3088.88 1171.6C3058.91 1149.68 3026.04 1139.52 2991.84 1135.77C2987.72 1138.28 2983.32 1140.44 2978.71 1142.2C2975.21 1143.52 2971.61 1144.63 2967.95 1145.52C2976.24 1158.43 2981.51 1172.73 2985.24 1187.65ZM3099.01 1174.04C3118 1189.6 3132.84 1209.99 3142.63 1232.57C3151.76 1230.65 3160.63 1230.15 3169 1230.79L3166.93 1213C3165.95 1204.63 3164.84 1195.13 3160.08 1187.69C3148.76 1169.99 3125.97 1169.41 3099.01 1174.04ZM2841.65 1143.15C2842.97 1173.45 2853.55 1203.33 2873.16 1226.75C2876.35 1230.56 2879.55 1234.08 2882.77 1237.33C2888.33 1229.84 2894.93 1222.77 2902.56 1216.24C2923.04 1198.65 2952.43 1190.03 2981.24 1193.24C2981.56 1193.28 2981.88 1193.32 2982.21 1193.35C2982.07 1192.73 2981.92 1192.12 2981.77 1191.51C2971.95 1190.01 2962.96 1186.79 2955.16 1181.12C2944.87 1173.64 2937.48 1162.52 2932.84 1147.44C2920.75 1146.05 2908.47 1142.68 2896.53 1137.33C2886.23 1138.33 2875.93 1139.47 2865.67 1140.59C2857.69 1141.45 2849.68 1142.33 2841.65 1143.15ZM3132.65 1240.41C3135.56 1240.41 3138.45 1240.51 3141.35 1240.68C3140.96 1239.67 3140.56 1238.65 3140.15 1237.64C3136.84 1238.4 3133.59 1239.33 3130.45 1240.44C3131.19 1240.43 3131.92 1240.41 3132.65 1240.41ZM3146.03 1241.05C3154.33 1241.87 3162.6 1243.49 3170.8 1246.16L3169.56 1235.53C3161.12 1234.85 3152.57 1235.29 3144.39 1236.77C3144.95 1238.2 3145.49 1239.63 3146.03 1241.05ZM3173.36 1231.21C3189.71 1233.25 3204 1239.67 3214.69 1248.44C3212.53 1228.08 3208.76 1208.56 3203.35 1189.76C3188.76 1139.04 3162.23 1096.23 3126.61 1065.97C3102.81 1045.76 3076.32 1032.69 3049.99 1028.17C3035.89 1025.76 3021.8 1025.84 3008.49 1028.27C3020.63 1040.71 3028.28 1056.79 3028.55 1073.71C3028.89 1096.13 3016.71 1118.07 2997.37 1132.09C3031.57 1136.49 3064.45 1147.52 3094.53 1170.51C3124.61 1164.92 3150.51 1164.79 3163.68 1185.39C3168.96 1193.65 3170.13 1203.67 3171.17 1212.51L3173.36 1231.21ZM2986.72 1193.99C3010.95 1197.92 3031.41 1209.75 3044.77 1227.67C3050.63 1235.52 3054.91 1244.32 3057.71 1253.67C3077.71 1248.07 3097.93 1242.89 3118.09 1241.09C3121 1239.61 3123.97 1238.29 3126.97 1237.16C3130.83 1235.71 3134.64 1234.51 3138.41 1233.55C3128.6 1211.17 3113.65 1191.04 3094.53 1175.91C3094.17 1175.63 3093.81 1175.33 3093.44 1175.05C3084.01 1176.87 3074.16 1179.19 3064.16 1181.53C3037.24 1187.88 3009.71 1194.36 2986.29 1192.07C2986.44 1192.71 2986.59 1193.35 2986.72 1193.99ZM2987.67 1198.48C2990.15 1210.68 2991.83 1223.15 2993.49 1235.45C2995 1246.61 2996.53 1257.89 2998.65 1268.95C3014.64 1265.91 3030.89 1261.28 3047.39 1256.59C3049.47 1256 3051.55 1255.41 3053.63 1254.81C3050.96 1245.97 3046.89 1237.64 3041.36 1230.21C3028.96 1213.6 3010.08 1202.49 2987.67 1198.48ZM2933.87 1268.57C2938.8 1269.93 2943.77 1270.92 2948.77 1271.56C2943.91 1269.65 2938.85 1268.61 2933.87 1268.57ZM2959.77 1272.44C2971.19 1272.87 2982.73 1271.75 2994.45 1269.72C2992.32 1258.57 2990.79 1247.24 2989.27 1236.01C2987.55 1223.28 2985.79 1210.36 2983.17 1197.77C2982.37 1197.67 2981.57 1197.57 2980.77 1197.48C2953.17 1194.43 2924.95 1202.64 2905.33 1219.48C2897.76 1225.97 2891.24 1232.93 2885.76 1240.28C2898.29 1252.25 2911.08 1260.28 2924.09 1265.33C2925.83 1264.99 2927.6 1264.71 2929.39 1264.52C2939.63 1263.45 2950.43 1266.44 2959.77 1272.44ZM3175.28 1247.71C3179.76 1249.37 3184.21 1251.36 3188.64 1253.69C3199.87 1259.59 3209.31 1267.92 3216.67 1278.23C3216.44 1270.19 3215.97 1262.25 3215.28 1254.45C3204.29 1243.96 3189.47 1238 3173.91 1236L3175.28 1247.71ZM3221.07 1285.05C3224.33 1290.67 3227.05 1296.76 3229.19 1303.28C3232.49 1290.09 3230.99 1276.4 3224.45 1265.79C3223.09 1263.57 3221.6 1261.48 3219.97 1259.51C3220.61 1267.89 3220.97 1276.4 3221.07 1285.05ZM3221.08 1294.31C3220.99 1303.79 3220.59 1313.44 3219.87 1323.28C3220.43 1322.51 3220.97 1321.71 3221.51 1320.89C3223.67 1317.57 3225.45 1314.08 3226.87 1310.49C3225.37 1304.79 3223.43 1299.37 3221.08 1294.31ZM3231.33 1310.75C3232.08 1313.79 3232.72 1316.91 3233.23 1320.11C3233.57 1322.2 3233.84 1324.29 3234.07 1326.41C3266.53 1300.25 3289.59 1265.08 3297.09 1227.59C3307 1178.17 3292.28 1121.45 3255.63 1067.87C3193.21 976.6 3085.77 918.2 2975.24 915.453C2946.37 914.747 2875.53 918.427 2841.37 968.253C2825.81 990.96 2821.59 1020.07 2829.49 1050.21C2832.91 1063.25 2838.47 1075.75 2845.68 1087.07C2849.85 1075.27 2855.6 1064.01 2862.92 1053.71C2885.96 1021.28 2921.53 1002.28 2955.72 1004.11C2974.32 1005.09 2991.64 1012.89 3004.73 1024.67C3019.39 1021.59 3035.07 1021.29 3050.71 1023.97C3077.79 1028.61 3104.99 1042.01 3129.37 1062.72C3165.63 1093.52 3192.63 1137.04 3207.45 1188.59C3213.35 1209.07 3217.33 1230.39 3219.4 1252.68C3222.81 1256.08 3225.73 1259.72 3228.09 1263.55C3236.29 1276.88 3237.27 1294.63 3231.33 1310.75ZM3057.72 1326.53C3057.92 1326.53 3058.12 1326.53 3058.33 1326.53C3062.48 1326.56 3066.59 1326.96 3070.57 1327.69C3062.03 1295.75 3081.79 1264.15 3108.77 1246.48C3092.12 1248.8 3075.4 1253.15 3058.84 1257.79C3064.33 1279.89 3061.8 1304.64 3052.12 1326.76C3053.96 1326.6 3055.83 1326.53 3057.72 1326.53ZM2999.47 1273.05C3003.77 1293.83 3010.44 1313.63 3023.36 1330.12C3024.57 1331.68 3025.84 1333.19 3027.13 1334.64C3032.97 1331.03 3039.76 1328.55 3047.23 1327.35C3057.37 1305.55 3060.21 1280.88 3054.76 1258.93C3052.69 1259.52 3050.61 1260.11 3048.56 1260.69C3032.28 1265.32 3015.85 1269.99 2999.47 1273.05ZM2883.27 1243.76C2864.6 1270.89 2859.99 1302.89 2870.29 1335.93C2870.31 1335.65 2870.32 1335.37 2870.33 1335.09C2871.88 1307.03 2889.61 1276.41 2917.61 1267.07C2905.95 1261.91 2894.49 1254.36 2883.27 1243.76ZM3219.28 1330.71C3219.07 1333.03 3218.85 1335.36 3218.61 1337.71C3222.55 1335.11 3226.37 1332.39 3230.08 1329.55C3229.84 1326.61 3229.48 1323.68 3229.01 1320.79C3228.84 1319.64 3228.64 1318.52 3228.43 1317.41C3227.43 1319.39 3226.31 1321.32 3225.08 1323.21C3223.31 1325.95 3221.36 1328.45 3219.28 1330.71ZM3186.12 1340.52C3196.76 1341.43 3206.97 1337.31 3215.15 1328.91C3216.39 1314.29 3216.95 1300.08 3216.81 1286.25C3209.41 1273.89 3199.2 1264.07 3186.65 1257.47C3183.07 1255.57 3179.47 1253.93 3175.84 1252.51L3186.12 1340.52ZM3030.12 1337.84C3032.41 1340.19 3034.81 1342.39 3037.29 1344.44C3040.09 1340.51 3042.61 1336.39 3044.85 1332.13C3039.45 1333.31 3034.51 1335.24 3030.12 1337.84ZM3040.63 1347.08C3056.48 1359.08 3075.63 1365.81 3095.61 1368.45C3086.19 1357.47 3076.87 1346.03 3072.01 1332.32C3067.57 1331.36 3062.97 1330.84 3058.29 1330.8C3055.45 1330.75 3052.72 1330.92 3050.04 1331.25C3047.35 1336.75 3044.21 1342.05 3040.63 1347.08ZM3147.61 1245.55C3156.97 1273.37 3158.89 1303.61 3151.81 1331.77C3148.57 1344.68 3143.52 1357 3136.97 1368.47C3151.08 1366.75 3164.76 1363.39 3177.17 1358.77C3190.16 1353.93 3202.51 1347.83 3214.03 1340.65C3214.21 1338.81 3214.4 1337 3214.57 1335.17C3205.65 1342.6 3194.88 1346.03 3183.92 1344.57L3182.28 1344.36L3171.35 1250.85C3163.51 1248.16 3155.59 1246.45 3147.61 1245.55ZM3075.31 1328.72C3093.61 1333.37 3109.05 1345.05 3116.21 1360.55C3117.59 1363.52 3118.72 1366.57 3119.61 1369.72C3123.67 1369.63 3127.71 1369.4 3131.72 1369.03C3138.83 1357.16 3144.28 1344.27 3147.68 1330.73C3154.71 1302.75 3152.6 1272.65 3142.97 1245.11C3135.03 1244.49 3127.03 1244.64 3119 1245.32C3082.32 1263.83 3067.39 1300.97 3074.93 1327.45C3075.05 1327.88 3075.19 1328.31 3075.31 1328.72ZM3101.83 1369.13C3106.27 1369.53 3110.72 1369.73 3115.17 1369.76C3114.4 1367.23 3113.45 1364.75 3112.33 1362.35C3106.08 1348.79 3092.91 1338.39 3077.07 1333.63C3082.28 1346.45 3091.52 1357.19 3101.24 1368.45C3101.44 1368.68 3101.64 1368.91 3101.83 1369.13ZM3026.49 1340.23C3021.19 1344.13 3016.93 1349.17 3014.05 1355.15C3011.67 1360.08 3010.17 1365.52 3009.56 1371.23C3012.41 1369.32 3015.19 1367.29 3017.85 1365.15C3024.21 1360.03 3029.85 1354.21 3034.75 1347.88C3031.88 1345.51 3029.12 1342.96 3026.49 1340.23ZM3120.67 1373.93C3121.33 1377 3121.79 1380.12 3122.01 1383.29C3124.44 1380.13 3126.75 1376.88 3128.92 1373.52C3126.17 1373.72 3123.43 1373.87 3120.67 1373.93ZM2783.21 1147.21C2758.64 1179.72 2748.99 1224.97 2760.07 1266.95C2773.85 1319.16 2817.11 1363.79 2872.96 1383.39C2875.17 1384.16 2877.39 1384.89 2879.6 1385.57C2874.56 1372.95 2871.56 1360.84 2870.56 1349.15C2854.77 1310.95 2858.55 1272.41 2880.27 1240.84C2876.77 1237.36 2873.32 1233.59 2869.88 1229.49C2849.73 1205.41 2838.84 1174.72 2837.43 1143.59C2819.36 1145.37 2801.21 1146.81 2783.21 1147.21ZM3105.72 1373.68C3109.87 1378.55 3113.93 1383.56 3117.55 1388.84C3117.68 1388.68 3117.81 1388.53 3117.93 1388.39C3117.93 1383.47 3117.39 1378.65 3116.31 1374C3112.81 1373.93 3109.24 1373.89 3105.72 1373.68ZM2884.85 1387.11C2888.39 1388.09 2891.92 1388.95 2895.45 1389.71C2888.39 1381.36 2882.12 1372.27 2876.91 1362.52C2878.63 1370.49 2881.28 1378.67 2884.85 1387.11ZM2874.76 1348.13C2875.27 1349.35 2875.79 1350.55 2876.33 1351.76C2882.75 1365.91 2891.36 1378.85 2901.57 1390.24L2901.69 1389.88C2907.73 1372.85 2924.31 1364.31 2940.32 1356.05C2954.36 1348.83 2968.85 1341.35 2976.03 1328.25C2982.16 1317.03 2980.89 1303.4 2972.55 1290.88C2968.67 1285.05 2963.68 1280.15 2958.11 1276.44C2946.65 1275.87 2935.29 1273.81 2924.09 1269.69C2894.89 1276.15 2876.15 1307.09 2874.6 1335.32C2874.36 1339.53 2874.41 1343.81 2874.76 1348.13ZM2905.63 1391.56C2941.76 1397.05 2977.21 1390.95 3005.07 1374.09C3005.45 1366.68 3007.16 1359.61 3010.2 1353.29C3013.33 1346.81 3017.91 1341.33 3023.59 1337.07C3022.36 1335.67 3021.16 1334.23 3020 1332.75C3006.53 1315.56 2999.67 1295.13 2995.27 1273.81C2985.28 1275.51 2975.32 1276.56 2965.41 1276.6C2969.47 1279.99 2973.09 1284 2976.11 1288.51C2985.21 1302.2 2986.59 1317.81 2979.76 1330.29C2971.97 1344.53 2956.88 1352.32 2942.28 1359.85C2926.29 1368.09 2911.19 1375.88 2905.72 1391.31L2905.63 1391.56ZM3218.04 1343.16C3215.81 1363.07 3212.39 1383.73 3207.75 1405.19C3207.08 1408.24 3206.4 1411.25 3205.69 1414.23C3222.45 1392.47 3231.52 1363.21 3230.39 1334.64C3226.39 1337.61 3222.27 1340.45 3218.04 1343.16ZM3009.24 1376.52C3009.05 1388.91 3012.71 1402.24 3019.99 1414.41C3025.35 1423.36 3032.19 1431.12 3040.29 1437.55C3068.88 1430.47 3094.93 1414.19 3114.65 1392.17C3110.19 1385.52 3104.93 1379.28 3099.69 1373.19C3077.36 1370.93 3055.79 1363.87 3038.09 1350.51C3033.01 1357.09 3027.15 1363.16 3020.52 1368.48C3016.93 1371.37 3013.16 1374.05 3009.24 1376.52ZM2907.08 1396.08C2939.12 1428.33 2984.37 1446.19 3026.85 1440.16C3029.6 1439.77 3032.32 1439.29 3035.03 1438.73C3027.65 1432.44 3021.37 1425.03 3016.33 1416.6C3009.15 1404.6 3005.31 1391.49 3005 1379.08C2977.2 1395.12 2942.52 1401.04 2907.08 1396.08ZM3044.68 1440.81C3055.13 1448.11 3067.4 1453.39 3081.09 1456.4C3095.32 1446.17 3106.77 1431.41 3113 1414.76C3115.27 1408.71 3116.76 1402.6 3117.45 1396.57C3117.32 1396.33 3117.17 1396.11 3117.03 1395.87C3097.63 1417.21 3072.39 1433.21 3044.68 1440.81ZM3121.85 1395.63C3123.63 1398.71 3125.21 1401.88 3126.55 1405.2C3133.4 1422.17 3132.59 1440.6 3124.43 1458.28C3152.79 1454.8 3179.47 1442.28 3198.27 1422.84C3198.67 1422.43 3199.08 1422 3199.48 1421.57C3200.93 1415.97 3202.29 1410.21 3203.57 1404.28C3207.93 1384.17 3211.2 1364.76 3213.41 1346.03C3202.49 1352.6 3190.85 1358.24 3178.65 1362.77C3165.01 1367.84 3149.85 1371.44 3134.25 1373.05C3130.61 1378.93 3126.57 1384.57 3122.19 1389.91C3122.15 1391.8 3122.04 1393.72 3121.85 1395.63ZM3086.73 1457.49C3088.91 1457.85 3091.12 1458.17 3093.37 1458.43C3102.07 1459.44 3110.81 1459.55 3119.44 1458.81C3128.12 1441.48 3129.28 1423.36 3122.6 1406.8C3122.05 1405.44 3121.45 1404.09 3120.81 1402.77C3119.95 1407.27 3118.68 1411.77 3117 1416.25C3110.95 1432.44 3100.17 1446.93 3086.73 1457.49ZM2904.01 1399.01C2901.97 1420.85 2922.92 1442.31 2945.48 1454.05C2988.13 1476.27 3032.35 1480.13 3066.8 1464.67C3070.04 1463.21 3073.2 1461.52 3076.25 1459.63C3062.29 1456.07 3049.83 1450.17 3039.28 1442.17C3035.39 1443.08 3031.44 1443.81 3027.45 1444.39C2983.68 1450.57 2936.99 1432.21 2904.01 1399.01ZM2887.07 1392.12C2891.81 1402.41 2897.93 1413.09 2905.41 1424.21C2941.79 1478.25 2989.25 1509.79 3035.63 1510.73C3064.67 1511.36 3095.76 1494.57 3113.35 1469.07C3114.67 1467.15 3115.91 1465.21 3117.03 1463.27C3109.01 1463.79 3100.92 1463.6 3092.88 1462.67C3089.19 1462.24 3085.56 1461.67 3082.03 1460.95C3077.73 1463.89 3073.23 1466.45 3068.55 1468.56C3032.91 1484.57 2987.33 1480.65 2943.52 1457.84C2917.61 1444.35 2895.23 1420.2 2900.25 1395.09L2900.13 1394.97C2895.77 1394.19 2891.41 1393.23 2887.07 1392.12ZM3020.09 1914.73C3018.35 1857.36 3017.43 1808.72 3016.53 1761.68C3015.64 1714.73 3014.72 1666.2 3012.99 1608.96C3012.72 1600.16 3034.27 1590.19 3074.13 1574.88C3081.11 1572.21 3086.61 1570.09 3089.17 1568.85C3143.65 1542.48 3177.63 1499.09 3197.24 1429.83C3177.44 1448.28 3150.51 1459.93 3122.16 1462.84C3120.6 1465.75 3118.83 1468.64 3116.85 1471.49C3098.21 1498.55 3066.31 1515.57 3035.55 1515C2987.76 1514.03 2939.04 1481.8 2901.88 1426.6C2893.48 1414.12 2886.77 1402.17 2881.73 1390.67C2878.33 1389.68 2874.93 1388.6 2871.55 1387.41C2814.37 1367.35 2770.08 1321.6 2755.93 1268.03C2744.83 1225.95 2753.97 1180.63 2777.88 1147.31C2733.07 1147.67 2689.13 1141.28 2649.12 1116.97C2547.93 1055.53 2482.47 942.747 2424.69 843.227L2417.88 831.48C2390.12 783.76 2366.45 730.493 2341.39 674.107C2286.57 550.773 2229.89 423.253 2126.33 351.2C2076.87 316.773 2015.64 304.453 1953.91 316.507C1886.95 329.587 1827.47 369.493 1790.71 425.987C1763.93 467.107 1747.24 515.253 1731.08 561.827C1693.92 668.973 1658.91 770.133 1508.91 766.253C1470.69 765.253 1423.44 753.813 1373.43 741.707C1277.96 718.587 1169.77 692.4 1105.23 737.747L1102.77 734.253C1168.89 687.8 1278.09 714.24 1374.43 737.56C1424.23 749.613 1471.25 761 1509.03 762C1655.76 765.853 1690.41 666.067 1727.05 560.427C1743.29 513.613 1760.08 465.213 1787.12 423.653C1824.52 366.2 1885.01 325.627 1953.09 312.32C2015.95 300.04 2078.35 312.6 2128.77 347.693C2233.31 420.44 2290.23 548.507 2345.28 672.36C2370.31 728.653 2393.93 781.813 2421.56 829.333L2428.39 841.093C2485.89 940.16 2551.07 1052.44 2651.33 1113.32C2691.43 1137.68 2735.72 1143.81 2781.12 1142.99C2789.57 1132.16 2799.65 1122.77 2811.17 1115.37C2820.59 1109.33 2830.77 1104.87 2841.32 1101.91C2842.09 1098.64 2842.97 1095.41 2843.97 1092.21C2835.6 1079.77 2829.17 1065.87 2825.36 1051.31C2817.15 1019.93 2821.57 989.587 2837.85 965.84C2862.73 929.547 2913.09 909.587 2975.35 911.187C3087.23 913.973 3195.97 973.08 3259.15 1065.47C3296.45 1120.01 3311.41 1177.88 3301.28 1228.43C3293.4 1267.75 3268.91 1304.55 3234.49 1331.51C3236.61 1365.07 3224.97 1399.97 3203.33 1423.67C3183.73 1498.47 3148.61 1544.83 3091.04 1572.69C3088.31 1574.01 3082.73 1576.16 3075.67 1578.87C3058.12 1585.61 3017.03 1601.39 3017.24 1608.84C3018.99 1666.09 3019.91 1714.64 3020.8 1761.6C3021.69 1808.63 3022.61 1857.25 3024.36 1914.6L3020.09 1914.73Z" fill="#808080"/>
<path d="M810.667 2217.39L797.397 2331.29H936.889L964.184 2193.81L810.667 2217.39Z" fill="black"/>
<path d="M896 2253.33H842.667V2248H896V2253.33Z" fill="white"/>
<path d="M981.333 1502.72L978.293 1553.87L939.84 2197.55L938.667 2217.39H810.667L808.373 1589.44L808 1489.39L948.693 1500.21L981.333 1502.72Z" fill="#FF5970"/>
<path d="M855.421 1917.27L807.421 1906.6L808.579 1901.4L856.579 1912.07L855.421 1917.27Z" fill="black"/>
<path d="M938.667 2217.39L936.889 2332.05H1178.67L1091.56 2260.95L1096 2217.39L1020.44 2179.17L938.667 2217.39Z" fill="black"/>
<path d="M939.555 2332.09L934.221 2332.01L936 2215.96L941.333 2216.04L939.555 2332.09Z" fill="white"/>
<path d="M1039.43 2290.39L1037.02 2285.61L1090.35 2258.57L1092.76 2263.33L1039.43 2290.39Z" fill="white"/>
<path d="M1157.33 1484.05L1096 2217.39H938.667V2216L938.933 2197.71L947.84 1560.27L948.693 1500.21L949.333 1454.72L1108.8 1477.23L1157.33 1484.05Z" fill="#FF5970"/>
<path d="M941.333 2217.43L936 2217.36L943.973 1657.76L881.64 1631.8L883.694 1626.87L949.36 1654.24L941.333 2217.43Z" fill="black"/>
<path d="M1064.24 1914.65L1063.76 1909.35L1122.42 1904.01L1122.91 1909.32L1064.24 1914.65Z" fill="black"/>
<path d="M808.373 1589.44L808 1489.39L948.693 1500.21L947.84 1560.27L808.373 1589.44Z" fill="#CC475A"/>
<path d="M947.84 1560.27L948.693 1500.21L949.333 1454.72L1108.8 1477.23L1148.43 1518.24L978.293 1553.87L947.84 1560.27Z" fill="#CC475A"/>
<path d="M1013.26 1042.69L1013.37 1046.48L1015.07 1096.32L1015.98 1123.07L942.477 1128.77L942.548 1067.19L934.432 1042.64L957.389 1022.01L1013.26 1042.69Z" fill="#FF8F78"/>
<path d="M1013.37 1046.48L1015.06 1096.32C999.929 1092.15 983.772 1082.91 966.273 1067.29L998.853 1041.44L1013.37 1046.48Z" fill="black"/>
<path d="M1030.54 969.947C1030.54 969.947 1056.93 1047.55 1042.71 1060.57C1028.5 1073.6 966.271 1067.31 966.271 1067.31L945.056 1030.24L958.775 969.6L1030.54 969.947Z" fill="#FF8F78"/>
<path d="M978.005 1009.28C978.997 994.186 984.203 982.2 999.566 977.68C999.566 977.68 1036.18 993.96 1048.79 975.053C1071.21 941.426 1023.98 914.4 1003.14 940.173C964.364 927.693 927.034 944.24 922.691 973.453C888.774 995.706 896.696 1032.92 942.551 1067.21C948.499 1045.24 959.855 1030.91 976.444 1025.77L978.005 1009.28Z" fill="black"/>
<path d="M1035.87 997.44C1035.87 997.44 1059.6 1010.33 1054.16 1019.32C1050.13 1025.97 1031.69 1025.09 1031.69 1025.09L1035.87 997.44Z" fill="#FF8F78"/>
<path d="M988.019 1007.64C993.325 1014.45 992.487 1023.99 986.147 1028.92C979.805 1033.85 970.364 1032.32 965.057 1025.51C959.751 1018.68 960.589 1009.16 966.929 1004.23C973.269 999.293 982.712 1000.81 988.019 1007.64Z" fill="#FF8F78"/>
<path d="M981.489 1020.17C977.672 1012.97 973.839 1012.59 971.273 1012.88L970.951 1010.23C976.183 1009.57 980.404 1012.44 983.844 1018.93L981.489 1020.17Z" fill="black"/>
<path d="M1014.67 1042.67C1006.38 1042.67 999.667 1035.95 999.667 1027.67C999.667 1019.39 1006.38 1012.67 1014.67 1012.67C1022.95 1012.67 1029.67 1019.39 1029.67 1027.67C1029.67 1035.95 1022.95 1042.67 1014.67 1042.67Z" fill="#FF7975"/>
<path d="M1134.67 1122.72C1031.36 1100.47 933.155 1099.97 835.085 1117.67C819.885 1120.4 808.42 1133.05 807.061 1148.44L777.256 1485.88C775.153 1509.67 794.019 1530.11 817.908 1529.89L1143.42 1527.12C1167.79 1526.91 1186.44 1505.37 1183.18 1481.23L1134.67 1122.72Z" fill="#599BFF"/>
<path d="M835.086 1117.67L825.35 1119.92C796.66 1126.56 774.044 1148.6 766.672 1177.12L714.024 1380.76C710.191 1395.59 712.855 1411.33 721.35 1424.08C735.359 1445.09 762.095 1453.53 785.632 1444.39L817.334 1432.05L835.086 1117.67Z" fill="#599BFF"/>
<path d="M1410.43 728.973C1402.77 698.333 1355.55 703.44 1355.55 703.44C1355.55 703.44 1353 694.507 1338.96 689.4C1324.92 684.293 1319.9 781.08 1319.9 781.08L1310.8 820.373L1396.33 859C1406.21 796.28 1413.44 740.987 1410.43 728.973Z" fill="#FF8F78"/>
<path d="M1310.8 820.373L1264 992L1053.33 1120L1111.78 1259.89L1338.07 1087.27C1351.81 1076.77 1361.16 1061.59 1364.29 1044.57C1371.57 1004.96 1385.53 927.547 1396.33 859L1310.8 820.373Z" fill="#599BFF"/>
<path d="M1310.8 820.373L1400 829.333L1396.33 859L1310.8 820.373Z" fill="#CC7260"/>
<mask id="mask0_29_1599" style="mask-type:luminance" maskUnits="userSpaceOnUse" x="712" y="820" width="685" height="710">
<path d="M1310.8 820.373L1264 992L1067.68 1111.28C988.492 1101.17 911.74 1103.84 835.086 1117.67L825.348 1119.92C796.66 1126.56 774.044 1148.6 766.674 1177.12L714.024 1380.76C710.191 1395.59 712.855 1411.33 721.35 1424.08C734.403 1443.67 758.507 1452.31 780.778 1446L777.255 1485.88C775.154 1509.67 794.018 1530.11 817.908 1529.89L1143.43 1527.12C1167.79 1526.91 1186.44 1505.37 1183.18 1481.23L1149.35 1231.24L1338.07 1087.27C1351.81 1076.77 1361.16 1061.59 1364.29 1044.57C1371.57 1004.96 1385.53 927.547 1396.33 859L1310.8 820.373Z" fill="white"/>
</mask>
<g mask="url(#mask0_29_1599)">
<path d="M1127.45 1104.43C1115.05 1104.43 1103.08 1100.67 1093.99 1093.28C1084.91 1085.92 1078.89 1074.13 1077.88 1061.77C1076.96 1050.6 1080.15 1040.28 1086.84 1032.73L1089.83 1035.39C1083.87 1042.11 1081.04 1051.36 1081.86 1061.45C1082.79 1072.75 1088.26 1083.48 1096.51 1090.19C1111.79 1102.59 1136.01 1103.88 1155.4 1093.32C1172.44 1084.03 1185.94 1066.65 1193.4 1044.4C1200.37 1023.61 1201.49 1001.61 1201.67 980.92L1205.67 980.96C1205.49 1001.97 1204.34 1024.36 1197.19 1045.67C1189.4 1068.88 1175.24 1087.05 1157.32 1096.83C1147.98 1101.92 1137.57 1104.43 1127.45 1104.43Z" fill="white"/>
<path d="M1316.36 1135.61C1301.46 1111.84 1303.44 1078.72 1321.04 1056.88C1338.65 1035.04 1370.59 1026.09 1396.99 1035.61L1395.63 1039.37C1370.8 1030.43 1340.73 1038.84 1324.16 1059.39C1307.58 1079.95 1305.73 1111.11 1319.75 1133.48L1316.36 1135.61Z" fill="white"/>
<path d="M777.964 1434.79C773.443 1406.83 752.251 1382.35 725.227 1373.87C698.208 1365.39 666.826 1373.39 647.146 1393.75L644.271 1390.97C664.976 1369.55 697.992 1361.15 726.424 1370.05C754.858 1378.97 777.156 1404.72 781.912 1434.15L777.964 1434.79Z" fill="white"/>
<path d="M707.607 1612.37L703.951 1610.75C711.386 1594.03 717.605 1575.43 724.186 1555.72C743.222 1498.73 762.907 1439.8 814.353 1422.91C859.279 1408.15 908.345 1418.73 954.675 1432.37C959.085 1433.67 963.506 1434.99 967.935 1436.31C1008.52 1448.45 1050.48 1461.01 1092.48 1456.49C1137.3 1451.67 1185.68 1418.99 1189.07 1372.64L1193.06 1372.93C1190.32 1410.44 1154.29 1453.87 1092.91 1460.47C1050.12 1465.07 1007.76 1452.4 966.787 1440.15C962.364 1438.83 957.951 1437.51 953.545 1436.2C907.837 1422.75 859.492 1412.28 815.602 1426.71C766.063 1442.97 746.703 1500.93 727.979 1556.99C721.364 1576.79 715.12 1595.48 707.607 1612.37Z" fill="white"/>
<path d="M777.303 1187.03C758.284 1187.03 739.255 1181.07 724.35 1169.24L726.834 1166.11C754.232 1187.85 796.266 1188.79 824.604 1168.28C852.943 1147.79 865.206 1107.57 853.126 1074.75L856.88 1073.36C869.555 1107.81 856.688 1150.01 826.948 1171.52C812.628 1181.88 794.97 1187.03 777.303 1187.03Z" fill="white"/>
</g>
<path d="M783.323 1446.24L778.011 1445.76L790.232 1309.99L795.544 1310.47L783.323 1446.24Z" fill="black"/>
<path d="M1113.49 1261.95L1110.07 1257.85L1152.96 1221.96L1156.38 1226.04L1113.49 1261.95Z" fill="black"/>
<path d="M1287.91 1010.25L1262.58 994.253L1265.42 989.747L1290.76 1005.75L1287.91 1010.25Z" fill="black"/>
<path d="M2028.84 652.493C1986.65 667.813 1940.04 646.026 1924.72 603.826C1909.41 561.64 1931.2 515.027 1973.39 499.72C2015.57 484.413 2062.19 506.2 2077.51 548.387C2092.81 590.573 2071.03 637.186 2028.84 652.493ZM2153.27 568.133C2152.49 553.466 2149.57 538.666 2144.31 524.146C2139.03 509.626 2131.77 496.4 2122.96 484.64L2155.32 445.666L2101.13 400.693L2068.8 439.653C2042.88 426.8 2013.36 421.306 1983.64 424.76L1966.37 377.187L1900.19 401.213L1917.45 448.787C1892.44 465.187 1873.31 488.347 1861.65 514.827L1811.87 505.68L1799.13 574.933L1848.96 584.08C1849.73 598.746 1852.65 613.56 1857.92 628.08C1863.2 642.6 1870.45 655.826 1879.27 667.573L1846.91 706.56L1901.08 751.52L1933.43 712.573C1959.35 725.426 1988.87 730.92 2018.59 727.453L2035.85 775.026L2102.04 751.013L2084.77 703.44C2109.79 687.026 2128.92 663.88 2140.57 637.387L2190.36 646.546L2203.09 577.293L2153.27 568.133Z" fill="#D2D2D2"/>
<path d="M2001.16 497.467C1992.12 497.467 1983.05 499.053 1974.29 502.227C1933.56 517.013 1912.44 562.187 1927.23 602.92C1942.01 643.667 1987.19 664.787 2027.93 649.987C2068.67 635.213 2089.79 590.027 2075 549.293C2067.84 529.56 2053.41 513.8 2034.4 504.907C2023.81 499.96 2012.51 497.467 2001.16 497.467ZM2001.2 660.04C1966.87 660.04 1934.59 638.826 1922.21 604.746C1906.43 561.24 1928.97 513 1972.48 497.213C1993.56 489.56 2016.35 490.586 2036.65 500.08C2056.96 509.573 2072.36 526.4 2080 547.48C2095.8 590.973 2073.25 639.213 2029.75 655.013C2020.33 658.426 2010.68 660.04 2001.2 660.04ZM2020.37 724.56L2037.45 771.613L2098.63 749.413L2081.55 702.36L2083.31 701.213C2107.48 685.36 2126.44 662.92 2138.12 636.32L2138.97 634.387L2188.23 643.44L2199.99 579.427L2150.71 570.373L2150.6 568.28C2149.83 553.56 2146.87 539.013 2141.8 525.053C2136.73 511.093 2129.68 498.04 2120.83 486.24L2119.57 484.56L2151.56 446.013L2101.49 404.453L2069.51 442.973L2067.63 442.04C2041.6 429.133 2012.67 424.08 1983.95 427.413L1981.85 427.653L1964.77 380.6L1903.6 402.8L1920.68 449.853L1918.92 451.013C1894.75 466.866 1875.8 489.293 1864.09 515.907L1863.25 517.84L1814 508.787L1802.24 572.787L1851.52 581.84L1851.63 583.946C1852.4 598.666 1855.36 613.213 1860.43 627.16C1865.49 641.12 1872.55 654.173 1881.4 665.973L1882.65 667.653L1850.67 706.213L1900.73 747.773L1932.72 709.24L1934.61 710.173C1960.64 723.08 1989.57 728.133 2018.28 724.813L2020.37 724.56ZM2034.25 778.453L2016.8 730.333C1988.44 733.253 1959.96 728.253 1934.13 715.88L1901.44 755.28L1843.15 706.907L1875.88 667.48C1867.29 655.706 1860.41 642.773 1855.41 628.987C1850.41 615.2 1847.39 600.853 1846.43 586.333L1796.03 577.067L1809.72 502.573L1860.08 511.827C1871.96 485.773 1890.61 463.68 1914.23 447.72L1896.77 399.613L1967.97 373.773L1985.43 421.88C2013.79 418.973 2042.27 423.96 2068.09 436.333L2100.79 396.933L2159.07 445.307L2126.35 484.746C2134.93 496.506 2141.8 509.453 2146.81 523.24C2151.81 537.027 2154.84 551.36 2155.8 565.893L2206.19 575.146L2192.51 649.64L2142.15 640.387C2130.28 666.453 2111.61 688.547 2088 704.493L2105.45 752.613L2034.25 778.453Z" fill="black"/>
<path d="M3568.4 2333.33H448.56V2328H3568.4V2333.33Z" fill="black"/>
</svg>
