<svg width="259" height="199" viewBox="0 0 259 199" fill="none" xmlns="http://www.w3.org/2000/svg">
<g clip-path="url(#clip0_8_854)">
<path d="M255.471 96.5009C255.486 96.4824 255.498 96.4492 255.511 96.4159C255.503 96.4492 255.491 96.475 255.471 96.5009ZM255.057 108.781C255.077 108.781 255.087 108.803 255.093 108.833C255.079 108.807 255.065 108.781 255.057 108.781ZM255.626 112.23C255.659 112.271 255.691 112.308 255.724 112.348C255.664 112.296 255.601 112.248 255.536 112.208C255.537 112.197 255.537 112.186 255.537 112.174C255.567 112.193 255.586 112.204 255.626 112.23ZM253.339 98.5119C253.512 98.6745 253.516 98.6819 253.342 98.5229C253.341 98.5192 253.34 98.5156 253.339 98.5119ZM84.0922 167.187C84.6007 166.914 85.1135 166.651 85.6241 166.385C85.6482 166.433 85.6808 166.47 85.7119 166.511C85.2382 166.751 84.7632 166.991 84.2945 167.246C84.2269 167.228 84.1596 167.209 84.0922 167.187ZM80.0284 165.272C80.0323 165.291 80.032 165.309 80.0365 165.331C80.0912 165.575 80.2002 165.805 80.3415 166.012C80.33 166.037 80.3174 166.067 80.3074 166.093C80.016 166.008 79.7243 165.927 79.4326 165.842C79.6639 165.716 79.8711 165.527 80.0284 165.272ZM256.914 112.662C256.591 112.548 256.267 112.43 255.944 112.311C255.861 112.282 255.677 112.193 255.539 112.13C255.543 112.023 255.547 111.916 255.552 111.812C255.589 110.918 255.603 110.13 255.283 109.306C255.263 109.25 255.195 109.058 255.137 108.921C255.145 108.896 255.148 108.881 255.158 108.848C255.283 108.422 255.543 107.853 255.666 107.343C255.84 106.618 255.808 105.816 255.841 105.07C255.915 103.38 255.989 101.691 256.063 100.002C256.124 98.6449 256.365 97.1256 255.612 96.0351C255.62 95.9982 255.628 95.9612 255.636 95.939C255.776 95.5213 256.005 94.9483 256.157 94.4456C256.562 93.1185 256.435 91.4588 256.493 90.0615C256.566 88.3314 256.636 86.6014 256.702 84.8677C256.718 84.4574 256.637 84.121 256.499 83.8475C256.464 83.3965 256.316 82.9529 256.068 82.6498C255.652 82.1397 255.125 82.0251 254.629 82.184C242.625 73.778 228.402 71.0499 214.731 71.1238C201.72 71.1941 188.516 73.6671 176.137 78.6057C172.832 79.9217 169.502 81.4188 166.341 83.2893C173.663 69.8559 180.44 55.9752 186.688 41.7545C188.74 37.082 190.734 32.3688 192.667 27.6224C192.768 27.3747 192.817 27.1307 192.833 26.8979C193.1 26.3101 193.105 25.5079 192.843 24.9608C192.384 23.9997 191.506 23.8778 190.742 24.2844C182.56 28.6463 174.528 33.4186 166.629 38.4978C164.869 39.6326 163.121 40.7933 161.374 41.9541C161.608 36.0469 162.004 30.1509 162.013 24.24C162.014 23.7705 161.896 23.3935 161.71 23.1052C161.336 22.255 160.524 21.7337 159.68 22.4287C153.752 27.3045 147.485 31.4336 141.039 35.1265C140.457 28.5096 139.334 21.9777 137.638 15.6491C137.398 14.7546 136.556 13.9598 135.749 14.3369C131.062 16.5141 126.433 18.8874 121.831 21.3308C120.767 17.6305 119.441 14.0448 117.867 10.6292C117.567 9.97858 116.744 9.46105 116.133 9.76417C101.974 16.8505 88.0175 24.5394 74.3071 32.842C60.7168 41.0743 47.367 49.9017 34.2919 59.3021C26.8911 64.6215 19.5799 70.1257 12.3603 75.8074C11.5022 76.4839 11.366 77.8405 12.0498 78.761C16.754 85.0932 21.3751 91.5179 25.929 98.0128C19.9456 103.181 13.1887 106.818 6.89477 111.369C5.85205 111.321 4.73973 112.696 5.39285 114.196C6.13137 115.89 6.60104 117.889 6.88827 119.996C7.17538 122.103 7.2281 124.654 7.1091 126.961C6.8832 131.334 6.01022 135.955 4.12412 139.681C3.2502 141.407 2.25973 142.745 0.748971 143.607C0.169199 143.939 -0.0728247 144.801 0.0247098 145.555C-0.049815 146.368 0.266523 147.196 1.11568 147.421C5.59266 148.627 10.0627 149.869 14.5309 151.118C20.3617 152.752 26.1884 154.404 32.0139 156.064C38.828 158.005 45.6397 159.96 52.4506 161.916C58.2622 163.587 64.0723 165.265 69.8827 166.943C70.1261 167.106 70.3954 167.183 70.6705 167.172C72.0405 167.568 73.4108 167.96 74.7805 168.355C82.3973 170.558 90.0137 172.762 97.6299 174.968C105.097 177.131 112.565 179.293 120.033 181.456C126.893 183.441 133.753 185.422 140.615 187.404C146.538 189.112 152.462 190.816 158.388 192.512C162.931 193.81 167.475 195.104 172.022 196.379C174.833 197.163 177.643 197.957 180.465 198.682C180.839 198.778 181.214 198.871 181.589 198.959C182.405 199.155 183.02 198.619 183.316 197.902C193.5 187.452 203.44 176.665 213.242 165.683C222.332 155.502 231.346 145.218 240.555 135.193C246.476 128.75 252.473 122.41 258.547 116.182C259.023 115.697 259.158 114.529 258.787 113.904C258.314 113.106 257.641 112.929 256.914 112.662Z" fill="white"/>
<path d="M1.11559 147.421C5.59258 148.626 10.0626 149.869 14.5309 151.118C20.3613 152.752 26.1883 154.404 32.0138 156.064C38.8279 158.005 45.6397 159.96 52.4505 161.916C59.8948 164.056 67.3379 166.204 74.7805 168.355C82.3972 170.558 90.0137 172.762 97.6298 174.968C105.097 177.131 112.565 179.293 120.033 181.456C126.893 183.441 133.753 185.422 140.614 187.404C146.538 189.112 152.462 190.816 158.388 192.512C162.931 193.81 167.475 195.104 172.022 196.379C174.833 197.163 177.643 197.957 180.465 198.682C180.839 198.778 181.214 198.871 181.589 198.959C183.519 199.421 184.346 195.799 182.405 195.337C180.067 194.778 177.744 194.117 175.42 193.473C171.261 192.32 167.107 191.141 162.953 189.958C157.35 188.361 151.75 186.749 146.15 185.138C139.459 183.212 132.769 181.278 126.079 179.341C118.75 177.223 111.421 175.101 104.093 172.976C96.4503 170.765 88.8079 168.551 81.1649 166.341C73.6692 164.174 66.173 162.008 58.6755 159.849C51.6497 157.824 44.6226 155.805 37.5935 153.798C31.4917 152.053 25.3884 150.316 19.2818 148.597C14.4401 147.237 9.5969 145.88 4.74744 144.56C3.80921 144.305 2.87076 144.05 1.93195 143.799C0.00599426 143.281 -0.816739 146.904 1.11559 147.421Z" fill="#353535"/>
<path d="M183.018 198.209C193.307 187.666 203.344 176.772 213.242 165.683C222.332 155.502 231.346 145.218 240.555 135.193C246.476 128.75 252.473 122.41 258.547 116.182C259.023 115.697 259.158 114.529 258.787 113.904C258.314 113.106 257.641 112.929 256.915 112.662C256.591 112.548 256.267 112.429 255.943 112.311C255.748 112.241 254.974 111.842 255.626 112.23C255.81 112.455 255.993 112.677 256.177 112.903C256.175 112.899 256.174 112.899 256.172 112.895C255.687 112.075 254.836 111.672 254.071 112.219C253.408 112.696 253.032 113.964 253.521 114.792C253.993 115.594 254.667 115.771 255.393 116.034C255.717 116.152 256.041 116.267 256.364 116.385C256.56 116.459 257.334 116.858 256.681 116.47C256.498 116.244 256.315 116.019 256.131 115.793C256.133 115.797 256.134 115.801 256.136 115.801C256.216 115.043 256.296 114.285 256.376 113.524C246.099 124.063 236.074 134.949 226.186 146.028C217.095 156.212 208.078 166.499 198.864 176.521C192.935 182.971 186.93 189.319 180.847 195.551C180.211 196.202 180.297 197.536 180.847 198.209C181.477 198.981 182.381 198.863 183.018 198.209Z" fill="#353535"/>
<path d="M81.9249 166.644C87.7963 163.864 92.5066 158.426 97.3435 153.661C102.54 148.545 107.766 143.47 113.005 138.42C123.561 128.24 134.171 118.144 144.719 107.953C150.585 102.286 156.431 96.5859 162.235 90.823C162.879 90.1834 162.778 88.8305 162.235 88.1651C161.598 87.3851 160.71 87.5219 160.064 88.1651C149.835 98.3196 139.475 108.278 129.106 118.218C118.642 128.251 108.164 138.261 97.7898 148.431C95.0012 151.166 92.2397 153.942 89.4438 156.667C86.8907 159.151 84.1724 161.568 81.1087 163.017C80.3357 163.383 79.8006 164.282 80.0364 165.331C80.239 166.233 81.1473 167.01 81.9249 166.644Z" fill="#353535"/>
<path d="M163.134 89.7731C167.01 86.7013 170.927 84.7679 175.176 82.9603C180.77 80.5834 186.537 78.8127 192.357 77.4931C205.489 74.521 219.279 73.7299 232.467 76.6428C239.757 78.2545 246.902 81.0418 253.332 85.5997C255.045 86.8158 256.592 83.5665 254.881 82.3541C242.825 73.8076 228.497 71.0499 214.731 71.1238C201.72 71.1941 188.516 73.6671 176.137 78.6057C171.118 80.6056 166.034 82.9973 161.585 86.5275C159.932 87.8398 161.47 91.0965 163.134 89.7731Z" fill="#353535"/>
<path d="M2.29868 146.856C5.73942 144.886 7.69959 140.224 8.82075 136.014C10.1442 131.042 10.5633 125.56 10.0122 120.377C9.71297 117.564 9.14114 114.818 8.04425 112.296C7.11429 110.164 4.46256 112.06 5.39276 114.196C6.13103 115.89 6.60095 117.889 6.88818 119.996C7.17541 122.103 7.22801 124.654 7.10901 126.961C6.88311 131.334 6.01013 135.955 4.12403 139.681C3.25011 141.407 2.25964 142.745 0.748879 143.607C-0.00237874 144.039 -0.193129 145.362 0.198005 146.179C0.648386 147.122 1.54471 147.285 2.29868 146.856Z" fill="#353535"/>
<path d="M180.662 154.29C180.662 167.512 180.662 180.739 180.662 193.961C180.662 196.379 183.733 196.386 183.733 193.961C183.733 180.739 183.733 167.512 183.733 154.29C183.733 151.872 180.662 151.868 180.662 154.29Z" fill="#353535"/>
<path d="M183.962 152.767C193.274 144.22 202.623 135.733 211.936 127.183C221.83 118.104 231.693 108.973 241.435 99.6504C246.358 94.9409 251.249 90.176 256.068 85.3076C256.707 84.6607 256.615 83.3189 256.068 82.6498C255.434 81.8735 254.538 81.9992 253.896 82.6498C245.051 91.5881 235.978 100.19 226.859 108.707C217.09 117.827 207.247 126.828 197.398 135.822C192.4 140.383 187.4 144.945 182.412 149.521C181.75 150.131 181.409 151.148 181.862 152.094C182.243 152.892 183.295 153.38 183.962 152.767Z" fill="#353535"/>
<path d="M253.631 84.8677C253.567 86.5423 253.5 88.2132 253.43 89.884C253.392 90.7823 253.355 91.6842 253.316 92.5825C253.309 92.7526 253.145 93.636 253.296 93.0889C253.253 93.2442 253.162 93.551 253.137 93.6249C252.754 94.7598 252.187 95.8947 252.513 97.1663C252.606 97.5249 252.766 97.8538 252.974 98.1311C253.025 98.2087 253.084 98.279 253.151 98.3381C253.503 98.6634 253.566 98.7262 253.342 98.5229C253.144 97.6986 253.054 97.5877 253.072 98.1939C253.067 98.3122 253.062 98.4342 253.056 98.5525C253.035 99.0368 253.014 99.521 252.993 100.002C252.918 101.691 252.844 103.38 252.77 105.07C252.748 105.558 252.773 106.138 252.659 106.522C252.488 107.095 252.219 107.624 252.102 108.223C251.949 109.006 252.058 109.783 252.334 110.496C252.369 110.589 252.554 111.132 252.533 110.947C252.529 110.918 252.494 111.494 252.488 111.631C252.416 113.368 252.346 115.11 252.279 116.847C252.186 119.264 255.257 119.261 255.35 116.847C255.414 115.169 255.482 113.49 255.552 111.812C255.589 110.918 255.603 110.13 255.283 109.306C255.251 109.221 255.102 108.781 255.057 108.781C255.191 108.777 254.943 109.579 255.158 108.848C255.283 108.422 255.543 107.853 255.666 107.343C255.84 106.618 255.808 105.816 255.841 105.07C255.914 103.38 255.989 101.691 256.063 100.002C256.128 98.534 256.422 96.8669 255.42 95.769C254.646 94.9225 255.765 96.1571 255.471 96.5009C255.551 96.4048 255.595 96.061 255.636 95.939C255.776 95.5213 256.004 94.9483 256.157 94.4456C256.562 93.1185 256.435 91.4588 256.493 90.0614C256.566 88.3314 256.636 86.6014 256.702 84.8677C256.795 82.4502 253.724 82.4539 253.631 84.8677Z" fill="#353535"/>
<path d="M83.2977 167.605C95.1516 161.125 107.645 156.397 120.396 153.436C133.148 150.471 146.178 149.321 159.147 149.987C166.435 150.36 173.696 151.314 180.88 152.859C181.696 153.037 182.534 152.593 182.768 151.547C182.972 150.641 182.517 149.414 181.696 149.236C168.593 146.412 155.24 145.451 141.957 146.409C128.684 147.366 115.487 150.175 102.742 154.818C95.5798 157.428 88.5706 160.629 81.748 164.359C80.9907 164.773 80.811 166.122 81.1972 166.932C81.6532 167.886 82.5376 168.019 83.2977 167.605Z" fill="#353535"/>
<path d="M82.807 168.163C91.105 157.953 98.4584 146.582 104.7 134.376C110.944 122.166 116.071 109.095 119.974 95.5028C122.164 87.8805 123.952 80.0881 125.332 72.1847C125.744 69.8263 122.784 68.8172 122.371 71.1867C119.958 85.0045 116.292 98.5008 111.427 111.321C106.542 124.188 100.504 136.413 93.4325 147.658C89.487 153.935 85.1979 159.89 80.6359 165.501C79.2402 167.22 81.4107 169.878 82.807 168.163Z" fill="#353535"/>
<path d="M124.916 73.083C134.261 65.6418 143.747 58.4667 153.419 51.6798C161.796 45.8022 170.313 40.213 178.995 35.0414C183.384 32.4242 187.816 29.918 192.292 27.53C193.053 27.127 193.226 25.763 192.843 24.9608C192.384 23.9997 191.506 23.8777 190.742 24.2844C182.56 28.6463 174.528 33.4186 166.629 38.4977C157.532 44.3494 148.61 50.6078 139.83 57.1433C134.288 61.2687 128.803 65.5087 123.366 69.8374C121.715 71.1497 123.252 74.4064 124.916 73.083Z" fill="#353535"/>
<path d="M190.016 25.7223C183.163 42.5492 175.565 58.9288 167.255 74.7391C164.91 79.2009 162.505 83.6146 160.04 87.9766C159.569 88.812 159.914 90.0651 160.592 90.5494C161.354 91.0965 162.219 90.712 162.692 89.8729C171.428 74.4101 179.414 58.3114 186.688 41.7544C188.74 37.0819 190.734 32.3688 192.667 27.6224C193.546 25.4635 190.899 23.5561 190.016 25.7223Z" fill="#353535"/>
<path d="M80.3326 164.222C81.3626 140.823 80.2481 117.309 77.0578 94.2053C76.1673 87.7548 75.1096 81.3412 73.8939 74.9683C73.6586 75.678 73.4234 76.3841 73.1882 77.0938C84.1794 68.174 96.1194 61.3427 108.342 55.3727C119.853 49.7502 131.572 44.7228 142.804 38.2796C149.184 34.62 155.379 30.4872 161.23 25.6743C162.862 24.3324 161.326 21.0757 159.68 22.4287C149.4 30.8828 138.102 37.1078 126.618 42.6638C114.881 48.3417 102.981 53.5428 91.5687 60.1708C84.6803 64.1742 77.9954 68.6878 71.6382 73.8445C71.0478 74.3251 70.7703 75.1198 70.9328 75.97C75.2252 98.4638 77.4764 121.508 77.6316 144.608C77.6754 151.148 77.5494 157.691 77.262 164.222C77.1554 166.64 80.2264 166.633 80.3326 164.222Z" fill="#353535"/>
<path d="M161.264 45.1849C161.448 38.1983 162.003 31.2302 162.013 24.24C162.016 21.8187 158.945 21.815 158.942 24.24C158.932 31.2302 158.377 38.1983 158.193 45.1849C158.13 47.6061 161.201 47.6024 161.264 45.1849Z" fill="#353535"/>
<path d="M141.255 37.958C140.765 30.3763 139.575 22.8796 137.638 15.6491C137.398 14.7545 136.557 13.9598 135.749 14.3368C128.395 17.7562 121.176 21.6265 113.996 25.556C107.277 29.2378 100.599 33.0305 93.9582 36.9193C80.6947 44.6858 67.5088 52.7407 54.7342 61.6606C49.5975 65.2463 44.4484 68.9354 39.7088 73.2826C39.0432 73.8926 38.702 74.8906 39.158 75.8555C44.5432 87.2114 49.6298 98.7817 54.4024 110.544C59.158 122.266 63.6111 134.173 67.7308 146.25C70.0662 153.096 72.2974 159.997 74.4277 166.943C74.7191 167.893 75.4653 168.54 76.3165 168.255C77.0612 168.004 77.682 166.899 77.3888 165.941C73.5717 153.495 69.4272 141.2 64.9618 129.083C60.5307 117.058 55.7796 105.21 50.7178 93.5658C47.8476 86.96 44.8763 80.4244 41.8095 73.9554C41.6259 74.813 41.4423 75.6706 41.2588 76.5282C45.3848 72.7466 49.8312 69.4788 54.284 66.3146C60.1711 62.13 66.172 58.1858 72.2137 54.345C85.5591 45.865 99.1221 37.8804 112.823 30.3024C120.655 25.97 128.529 21.6967 136.566 17.9632C135.936 17.5233 135.307 17.0871 134.677 16.6472C136.529 23.5598 137.716 30.709 138.184 37.958C138.249 38.9709 138.843 39.8396 139.719 39.8396C140.5 39.8396 141.321 38.9783 141.255 37.958Z" fill="#353535"/>
<path d="M71.9033 164.359C64.9874 152.29 57.8272 140.435 50.4376 128.798C43.0693 117.194 35.4662 105.813 27.6377 94.6674C23.2363 88.4054 18.7627 82.2173 14.221 76.1031C14.1173 77.0864 14.0138 78.0697 13.9102 79.053C26.6645 69.0168 39.7088 59.5313 53.0163 50.6336C66.3236 41.7359 79.8909 33.4223 93.6834 25.7112C101.37 21.4121 109.127 17.3052 116.949 13.3905C116.372 13.1022 115.794 12.8138 115.215 12.5255C116.951 16.2923 118.361 20.2403 119.427 24.362C120.021 26.6613 122.987 25.678 122.388 23.3639C121.246 18.9428 119.728 14.6695 117.867 10.6292C117.567 9.97856 116.744 9.46102 116.133 9.76415C101.974 16.8505 88.0174 24.5394 74.307 32.842C60.7167 41.0743 47.3669 49.9017 34.2918 59.3021C26.891 64.6215 19.5798 70.1257 12.3602 75.8074C11.5021 76.4839 11.3659 77.8405 12.0497 78.761C20.095 89.5883 27.9246 100.66 35.5247 111.96C43.0425 123.139 50.3361 134.543 57.3942 146.157C61.4227 152.789 65.3746 159.491 69.2518 166.256C69.7274 167.084 70.5946 167.472 71.3525 166.928C72.0232 166.448 72.3819 165.195 71.9033 164.359Z" fill="#353535"/>
<path d="M7.87085 115.021C14.4661 110.171 21.6274 106.43 27.8893 100.915C28.5611 100.323 28.8867 99.2771 28.44 98.3418C28.0517 97.5323 27.016 97.0739 26.3393 97.669C20.0777 103.184 12.9161 106.925 6.32093 111.775C4.62887 113.021 6.171 116.274 7.87085 115.021Z" fill="#353535"/>
<path d="M183.518 157.997C186.097 155.306 188.812 152.796 191.479 150.242C196.512 145.418 201.565 140.627 206.625 135.847C212.647 130.155 218.681 124.484 224.727 118.832C230.372 113.553 236.028 108.293 241.708 103.07C245.614 99.4804 249.518 95.8762 253.507 92.4236C253.798 92.1722 254.091 91.9208 254.384 91.6732C255.029 91.1261 254.416 89.8212 253.764 90.3757C250.071 93.5067 246.483 96.8299 242.887 100.124C237.321 105.221 231.783 110.367 226.254 115.527C220.136 121.238 214.031 126.972 207.937 132.724C202.698 137.666 197.466 142.623 192.252 147.606C189.188 150.534 186.101 153.439 183.103 156.471C182.951 156.622 182.8 156.777 182.649 156.933C182.047 157.561 182.919 158.622 183.518 157.997Z" fill="#353535"/>
<path d="M183.312 163.051C185.946 160.3 188.698 157.713 191.411 155.084C196.502 150.146 201.612 145.237 206.728 140.339C212.864 134.465 219.011 128.606 225.171 122.773C230.9 117.346 236.639 111.934 242.408 106.574C246.349 102.907 250.286 99.2253 254.323 95.7172C254.618 95.4622 254.913 95.2071 255.209 94.9557C255.855 94.4086 255.241 93.1074 254.589 93.6582C250.837 96.841 247.208 100.249 243.57 103.621C237.92 108.855 232.303 114.141 226.696 119.442C220.509 125.294 214.336 131.168 208.175 137.06C202.813 142.187 197.459 147.325 192.122 152.489C189.036 155.476 185.931 158.441 182.902 161.517C182.749 161.672 182.595 161.827 182.443 161.986C181.84 162.614 182.713 163.675 183.312 163.051Z" fill="#353535"/>
<path d="M183.312 166.588C185.926 163.86 188.674 161.309 191.375 158.714C196.436 153.853 201.517 149.022 206.604 144.202C212.685 138.439 218.778 132.694 224.883 126.972C230.598 121.612 236.323 116.27 242.074 110.969C245.989 107.361 249.9 103.739 253.9 100.275C254.198 100.016 254.497 99.7576 254.797 99.5062C255.442 98.9591 254.829 97.6542 254.177 98.205C250.463 101.355 246.859 104.704 243.245 108.023C237.632 113.18 232.049 118.381 226.475 123.601C220.302 129.378 214.144 135.178 207.996 140.997C202.686 146.024 197.382 151.063 192.096 156.127C189.02 159.077 185.921 162.001 182.908 165.047C182.752 165.206 182.597 165.365 182.443 165.524C181.84 166.152 182.713 167.213 183.312 166.588Z" fill="#353535"/>
<path d="M183.312 170.629C185.935 167.893 188.678 165.317 191.38 162.699C196.47 157.764 201.579 152.863 206.695 147.969C212.806 142.121 218.929 136.295 225.066 130.487C230.772 125.087 236.488 119.704 242.234 114.367C246.164 110.714 250.09 107.047 254.114 103.554C254.41 103.295 254.706 103.04 255.003 102.789C255.648 102.242 255.035 100.937 254.383 101.491C250.643 104.663 247.024 108.056 243.395 111.417C237.769 116.625 232.174 121.885 226.59 127.16C220.405 133.005 214.234 138.871 208.075 144.756C202.753 149.839 197.438 154.937 192.14 160.056C189.048 163.047 185.937 166.015 182.904 169.095C182.749 169.25 182.596 169.405 182.443 169.568C181.84 170.196 182.713 171.253 183.312 170.629Z" fill="#353535"/>
<path d="M183.312 174.166C185.953 171.412 188.718 168.821 191.441 166.189C196.555 161.247 201.687 156.33 206.827 151.425C212.969 145.566 219.123 139.721 225.291 133.896C231.057 128.454 236.834 123.024 242.639 117.642C246.574 113.993 250.505 110.326 254.532 106.833C254.826 106.578 255.12 106.323 255.416 106.071C256.061 105.524 255.448 104.223 254.796 104.774C251.054 107.949 247.43 111.339 243.798 114.696C238.131 119.934 232.497 125.22 226.871 130.524C220.659 136.38 214.461 142.257 208.275 148.153C202.907 153.269 197.546 158.397 192.203 163.553C189.095 166.551 185.966 169.527 182.918 172.617C182.759 172.776 182.6 172.939 182.443 173.102C181.84 173.73 182.713 174.791 183.312 174.166Z" fill="#353535"/>
<path d="M183.105 177.955C185.707 175.242 188.426 172.684 191.105 170.085C196.116 165.228 201.146 160.396 206.182 155.576C212.197 149.82 218.224 144.08 224.264 138.361C229.931 132.997 235.608 127.648 241.314 122.347C245.212 118.725 249.106 115.087 253.098 111.624C253.388 111.372 253.679 111.121 253.971 110.873C254.617 110.326 254.003 109.021 253.351 109.576C249.652 112.71 246.073 116.067 242.484 119.39C236.896 124.562 231.342 129.785 225.797 135.027C219.707 140.782 213.632 146.56 207.569 152.356C202.31 157.384 197.058 162.422 191.823 167.486C188.771 170.44 185.7 173.371 182.705 176.41C182.548 176.569 182.392 176.732 182.237 176.891C181.634 177.519 182.506 178.58 183.105 177.955Z" fill="#353535"/>
<path d="M183.518 181.493C186.147 178.75 188.864 176.125 191.553 173.471C196.594 168.499 201.65 163.546 206.713 158.607C212.76 152.704 218.818 146.823 224.892 140.963C230.583 135.47 236.284 129.999 242.02 124.58C245.912 120.902 249.801 117.205 253.805 113.712C254.1 113.453 254.396 113.198 254.694 112.947C255.34 112.396 254.726 111.095 254.074 111.646C250.348 114.806 246.764 118.233 243.171 121.612C237.579 126.872 232.025 132.191 226.482 137.529C220.354 143.429 214.243 149.355 208.144 155.299C202.837 160.47 197.539 165.657 192.255 170.861C189.196 173.874 186.124 176.872 183.11 179.955C182.956 180.11 182.802 180.269 182.649 180.428C182.047 181.057 182.919 182.118 183.518 181.493Z" fill="#353535"/>
<path d="M183.105 185.03C185.729 182.291 188.444 179.682 191.128 177.035C196.173 172.059 201.229 167.098 206.286 162.141C212.291 156.253 218.3 150.371 224.308 144.49C229.9 139.012 235.493 133.537 241.083 128.059C244.886 124.329 248.693 120.603 252.481 116.847C252.756 116.573 253.03 116.3 253.305 116.026C253.919 115.416 253.045 114.359 252.436 114.965C248.973 118.411 245.486 121.823 242.003 125.242C236.54 130.598 231.072 135.951 225.605 141.304C219.574 147.211 213.543 153.114 207.514 159.021C202.283 164.148 197.053 169.279 191.832 174.421C188.778 177.427 185.709 180.417 182.699 183.489C182.545 183.648 182.39 183.807 182.237 183.966C181.634 184.594 182.507 185.655 183.105 185.03Z" fill="#353535"/>
<path d="M182.358 190.442C187.265 186.04 191.996 181.352 196.526 176.38C201.136 171.327 205.75 166.344 210.573 161.594C219.941 152.364 229.08 142.79 238.28 133.312C243.435 128 248.608 122.717 253.855 117.542C254.471 116.936 253.597 115.878 252.987 116.481C243.659 125.674 234.563 135.212 225.401 144.653C220.887 149.303 216.358 153.931 211.776 158.482C207.017 163.206 202.302 167.945 197.764 172.987C192.633 178.695 187.331 184.129 181.738 189.145C181.107 189.71 181.719 191.015 182.358 190.442Z" fill="#353535"/>
<path d="M82.72 169.819C88.2523 166.385 94.2553 164.352 100.281 162.677C106.633 160.91 113.031 159.358 119.458 158.053C132.361 155.428 145.459 153.916 158.548 154.497C165.958 154.826 173.339 155.839 180.608 157.635C181.38 157.827 181.711 156.378 180.935 156.186C167.926 152.97 154.601 152.275 141.376 153.351C128.119 154.43 114.989 157.199 102.02 160.663C95.1905 162.489 88.3652 164.633 82.1 168.522C81.395 168.961 82.0161 170.259 82.72 169.819Z" fill="#353535"/>
<path d="M86.2823 166.766C100.306 164.141 114.387 161.295 128.555 160.108C138.251 159.295 147.911 159.794 157.587 160.759C165.32 161.528 173.043 162.444 180.772 163.28C181.559 163.365 181.554 161.86 180.772 161.775C168.564 160.456 156.338 158.718 144.081 158.245C133.745 157.849 123.473 158.933 113.225 160.515C104.114 161.927 95.0329 163.616 85.9558 165.317C85.1768 165.461 85.5077 166.91 86.2823 166.766Z" fill="#353535"/>
<path d="M84.2069 170.07C96.9519 171.527 109.654 173.505 122.284 176.063C134.671 178.565 146.982 181.615 159.206 185.119C166.24 187.134 173.246 189.296 180.226 191.577C180.99 191.829 181.317 190.379 180.553 190.128C168.129 186.069 155.623 182.387 143.024 179.234C130.766 176.166 118.424 173.608 106.023 171.582C98.768 170.399 91.4939 169.398 84.2069 168.566C83.42 168.477 83.4251 169.982 84.2069 170.07Z" fill="#353535"/>
<path d="M85.9184 168.492C90.6182 168.34 95.3482 168.843 100.027 169.313C106.994 170.015 113.946 170.928 120.889 171.919C128.669 173.031 136.439 174.259 144.196 175.589C151.323 176.817 158.442 178.122 165.538 179.597C170.564 180.643 175.612 181.704 180.563 183.204C180.975 183.33 181.386 183.459 181.795 183.596C182.559 183.848 182.885 182.399 182.122 182.147C177.499 180.613 172.747 179.611 168.034 178.606C161.079 177.116 154.098 175.815 147.11 174.591C139.368 173.235 131.614 171.985 123.849 170.843C116.721 169.797 109.583 168.836 102.431 168.063C97.3617 167.512 92.2585 166.965 87.1649 166.969C86.7491 166.969 86.3339 166.976 85.9184 166.987C85.1297 167.013 85.1264 168.518 85.9184 168.492Z" fill="#353535"/>
<path d="M88.5923 168.78C100.575 166.884 112.679 166.444 124.745 167.072C136.879 167.701 148.963 169.379 160.972 171.56C167.85 172.81 174.708 174.225 181.555 175.708C182.328 175.878 182.659 174.429 181.881 174.259C169.754 171.634 157.589 169.22 145.347 167.553C133.303 165.915 121.179 165.01 109.059 165.376C102.215 165.583 95.3817 166.2 88.5923 167.276C87.8193 167.401 87.8093 168.906 88.5923 168.78Z" fill="#353535"/>
<path d="M86.4734 168.403C92.7156 166.518 99.1686 165.716 105.571 165.176C113.231 164.537 120.918 164.374 128.595 164.433C136.213 164.489 143.829 164.781 151.438 165.221C157.639 165.583 163.835 166.045 170.025 166.61C173.444 166.921 176.864 167.25 180.276 167.668C180.441 167.686 180.607 167.708 180.772 167.727C181.557 167.83 181.551 166.326 180.772 166.226C177.788 165.834 174.793 165.557 171.801 165.272C165.848 164.707 159.888 164.241 153.925 163.868C146.379 163.394 138.827 163.069 131.271 162.958C123.504 162.844 115.727 162.943 107.97 163.49C101.351 163.956 94.6877 164.684 88.1949 166.378C87.5097 166.555 86.827 166.747 86.1467 166.954C85.3797 167.187 85.7046 168.636 86.4734 168.403Z" fill="#353535"/>
<path d="M8.67178 113.919C24.1168 118.588 37.8698 128.813 50.7718 139.891C54.4404 143.041 58.06 146.275 61.6761 149.517C62.3147 150.087 62.9283 148.785 62.296 148.216C49.4516 136.709 36.4089 125.094 21.6193 117.583C17.5207 115.501 13.3071 113.771 8.99839 112.47C8.23097 112.237 7.90365 113.686 8.67178 113.919Z" fill="#353535"/>
<path d="M9.63796 119.072C23.977 125.349 37.6337 133.896 50.87 143.056C54.5271 145.584 58.1546 148.183 61.7576 150.826C62.437 151.325 63.0555 150.024 62.3775 149.528C49.1986 139.855 35.6775 130.739 21.5643 123.261C17.746 121.235 13.8828 119.338 9.96456 117.623C9.21898 117.294 8.8979 118.747 9.63796 119.072Z" fill="#353535"/>
<path d="M9.14278 124.776C23.9417 128.609 37.4145 137.341 50.588 146.124C54.6397 148.826 58.6894 151.536 62.7399 154.238C63.4341 154.704 64.0547 153.406 63.3595 152.94C56.3561 148.264 49.3837 143.503 42.3087 138.989C35.6504 134.742 28.8535 130.765 21.7802 127.652C17.7581 125.881 13.6517 124.41 9.46941 123.327C8.69822 123.127 8.36854 124.576 9.14278 124.776Z" fill="#353535"/>
<path d="M8.33866 131.238C16.7582 132.657 24.792 136.224 32.5214 140.442C39.7821 144.405 46.8898 148.8 54.0228 153.092C57.9314 155.447 61.8391 157.801 65.758 160.13C66.4664 160.552 67.0897 159.254 66.378 158.833C59.3576 154.663 52.3713 150.405 45.3558 146.22C37.8885 141.769 30.3983 137.259 22.5306 133.951C18.0211 132.055 13.3928 130.583 8.6653 129.789C7.89221 129.659 7.55794 131.108 8.33866 131.238Z" fill="#353535"/>
<path d="M7.99647 135.807C23.7702 141.699 39.3192 148.49 54.576 156.156C58.8856 158.323 63.1708 160.559 67.4321 162.866C68.1487 163.254 68.7747 161.956 68.0524 161.568C52.9182 153.38 37.4784 146.05 21.7872 139.625C17.3187 137.795 12.8297 136.04 8.3231 134.358C7.56535 134.073 7.24144 135.526 7.99647 135.807Z" fill="#353535"/>
<path d="M6.61287 142.032C22.4041 146.545 37.9999 152.068 53.3147 158.592C57.6433 160.437 61.9491 162.359 66.2315 164.359C66.9704 164.707 67.2905 163.254 66.5579 162.91C51.4084 155.835 35.9575 149.732 20.2822 144.649C15.8516 143.211 11.403 141.858 6.93948 140.583C6.17043 140.365 5.84217 141.814 6.61287 142.032Z" fill="#353535"/>
<path d="M198.762 46.3123C207.337 43.5288 209.182 41.2702 211.457 30.7719C213.732 41.2702 215.576 43.5288 224.152 46.3123C215.576 49.0995 213.732 51.3582 211.457 61.8528C209.182 51.3582 207.337 49.0995 198.762 46.3123Z" fill="#B14BB4"/>
<path d="M224.675 32.7939C228.651 31.5038 229.506 30.454 230.561 25.5893C231.615 30.454 232.47 31.5038 236.446 32.7939C232.47 34.084 231.615 35.1302 230.561 39.9986C229.506 35.1302 228.651 34.084 224.675 32.7939Z" fill="#84418F"/>
<path d="M225.681 55.6129H227.684V58.0675C227.684 58.792 228.605 58.7957 228.605 58.0675V55.6129H230.472C231.064 55.6129 231.065 54.4855 230.472 54.4855H228.605V52.371C228.605 51.6428 227.684 51.6428 227.684 52.371V54.4855H225.681C225.088 54.4855 225.087 55.6129 225.681 55.6129Z" fill="#353535"/>
<path d="M215.057 15.2388H217.06V17.6896C217.06 18.4142 217.981 18.4179 217.981 17.6896V15.2388H219.847C220.44 15.2388 220.441 14.1114 219.847 14.1114H217.981V11.9932C217.981 11.2686 217.06 11.265 217.06 11.9932V14.1114H215.057C214.464 14.1114 214.463 15.2388 215.057 15.2388Z" fill="#353535"/>
<path d="M122.503 6.40025C120.565 1.91629 116.172 -0.541918 112.12 0.101289C110.919 0.293511 109.769 0.740798 108.711 1.46903C107.863 2.04939 108.624 3.6463 109.473 3.06224C112.547 0.951489 116.661 1.67231 119.321 4.47063C120.093 5.28018 120.723 6.23022 121.199 7.3318C121.654 8.38533 122.957 7.45008 122.503 6.40025Z" fill="#353535"/>
<path d="M6.93322 89.141C3.98894 85.1302 2.8252 79.3154 3.72297 74.0589C3.98293 72.5396 4.4045 71.0721 5.00101 69.7006C5.45724 68.6508 4.15445 67.7155 3.69736 68.7654C1.36152 74.1402 1.38344 80.7571 3.53307 86.2133C4.13992 87.7548 4.93249 89.1779 5.86562 90.4496C6.51651 91.3367 7.58126 90.0245 6.93322 89.141Z" fill="#353535"/>
<path d="M195.004 16.2775C194.635 16.0668 194.191 16.1482 193.971 16.6102C193.78 17.0095 193.871 17.6601 194.242 17.8745C197.423 19.6821 199.516 23.7816 199.401 28.0807C199.37 29.271 200.88 29.271 200.911 28.0807C201.041 23.1902 198.638 18.3439 195.004 16.2775Z" fill="#353535"/>
</g>
<defs>
<clipPath id="clip0_8_854">
<rect width="259" height="199" fill="white"/>
</clipPath>
</defs>
</svg>
