<svg width="650" height="691" viewBox="0 0 650 691" fill="none" xmlns="http://www.w3.org/2000/svg">
<g clip-path="url(#clip0_6_477)">
<path d="M497.753 0.834412H142.717C133.755 0.834412 126.49 8.1069 126.49 17.0748V437.622C126.49 446.59 133.755 453.859 142.717 453.859H497.753C506.715 453.859 513.979 446.59 513.979 437.622V17.0748C513.979 8.1069 506.715 0.834412 497.753 0.834412Z" fill="#F8F8F8"/>
<path d="M142.717 1.67279C134.23 1.67279 127.326 8.58273 127.326 17.0749V437.622C127.326 446.114 134.23 453.024 142.717 453.024H497.753C506.24 453.024 513.145 446.114 513.145 437.622V17.0749C513.145 8.58273 506.24 1.67279 497.753 1.67279H142.717ZM497.753 454.697H142.717C133.309 454.697 125.654 447.039 125.654 437.622V17.0749C125.654 7.65762 133.309 0 142.717 0H497.753C507.161 0 514.817 7.65762 514.817 17.0749V437.622C514.817 447.039 507.161 454.697 497.753 454.697Z" fill="#0B0B0B"/>
<path d="M513.979 163.197C513.519 163.197 513.146 162.823 513.146 162.362V111.27C513.146 110.809 513.519 110.432 513.979 110.432C514.44 110.432 514.817 110.809 514.817 111.27V162.362C514.817 162.823 514.44 163.197 513.979 163.197Z" fill="#0B0B0B"/>
<path d="M346.887 431.429H148.017V23.2674H346.887V431.429Z" fill="#F8F8F8"/>
<path d="M148.853 430.591H346.053V24.1057H148.853V430.591ZM346.887 432.264H148.017C147.556 432.264 147.181 431.89 147.181 431.429V23.2674C147.181 22.8067 147.556 22.433 148.017 22.433H346.887C347.347 22.433 347.725 22.8067 347.725 23.2674V431.429C347.725 431.89 347.347 432.264 346.887 432.264Z" fill="#0B0B0B"/>
<path d="M492.451 431.429H367.389V23.2674H492.451V431.429Z" fill="#F8F8F8"/>
<path d="M368.226 430.591H491.617V24.1057H368.226V430.591ZM492.451 432.264H367.389C366.928 432.264 366.555 431.89 366.555 431.429V23.2674C366.555 22.8067 366.928 22.433 367.389 22.433H492.451C492.915 22.433 493.289 22.8067 493.289 23.2674V431.429C493.289 431.89 492.915 432.264 492.451 432.264Z" fill="#0B0B0B"/>
<path d="M540.119 476.673H90.0989V458.877H540.119V476.673Z" fill="#F8F8F8"/>
<path d="M90.9347 475.838H539.285V459.715H90.9347V475.838ZM540.119 477.511H90.0989C89.6374 477.511 89.2631 477.137 89.2631 476.673V458.877C89.2631 458.416 89.6374 458.042 90.0989 458.042H540.119C540.583 458.042 540.956 458.416 540.956 458.877V476.673C540.956 477.137 540.583 477.511 540.119 477.511Z" fill="#0B0B0B"/>
<path d="M485.006 431.565H482.21V420.528H485.006C488.017 420.528 490.455 423.032 490.455 426.049C490.455 429.058 488.017 431.565 485.006 431.565ZM489.478 413.811C488.236 413.395 486.897 413.169 485.482 413.169H482.21V403.933H425.452V437.048C425.452 450.139 436.052 460.746 449.127 460.746H458.535C470.98 460.746 481.172 451.136 482.131 438.925H485.482C492.508 438.925 497.715 432.872 497.715 425.837V425.739C497.715 420.124 494.395 415.461 489.478 413.811Z" fill="#F8F8F8"/>
<path d="M483.048 430.731H485.006C487.55 430.731 489.621 428.628 489.621 426.049C489.621 423.466 487.55 421.363 485.006 421.363H483.048V430.731ZM485.006 432.404H482.21C481.75 432.404 481.376 432.026 481.376 431.565V420.528C481.376 420.067 481.75 419.69 482.21 419.69H485.006C488.474 419.69 491.293 422.541 491.293 426.049C491.293 429.553 488.474 432.404 485.006 432.404ZM426.29 404.771V437.048C426.29 449.656 436.535 459.911 449.127 459.911H458.535C470.376 459.911 480.372 450.664 481.297 438.86C481.331 438.422 481.693 438.09 482.131 438.09H485.482C491.874 438.09 496.882 432.709 496.882 425.837V425.739C496.882 420.539 493.87 416.167 489.214 414.604C488.029 414.207 486.776 414.007 485.482 414.007H482.21C481.75 414.007 481.376 413.629 481.376 413.169V404.771H426.29ZM458.535 461.584H449.127C435.614 461.584 424.618 450.577 424.618 437.048V403.933C424.618 403.472 424.992 403.098 425.452 403.098H482.21C482.674 403.098 483.048 403.472 483.048 403.933V412.334H485.482C486.957 412.334 488.391 412.565 489.742 413.018C495.097 414.815 498.553 419.807 498.553 425.739V425.837C498.553 433.514 492.689 439.759 485.482 439.759H482.893C481.535 452.061 470.984 461.584 458.535 461.584Z" fill="#0B0B0B"/>
<path d="M489.478 414.645C489.391 414.645 489.301 414.634 489.214 414.604C488.029 414.207 486.776 414.007 485.482 414.007H482.976C482.093 414.007 481.376 413.286 481.376 412.402V404.771H435.309C434.848 404.771 434.475 404.397 434.475 403.933C434.475 403.472 434.848 403.098 435.309 403.098H481.448C482.331 403.098 483.048 403.816 483.048 404.699V412.334H485.482C486.957 412.334 488.391 412.565 489.742 413.018C490.18 413.165 490.418 413.637 490.27 414.075C490.153 414.426 489.829 414.645 489.478 414.645ZM483.048 430.731H484.772C487.221 430.731 489.338 428.903 489.591 426.57C489.738 425.237 489.308 423.904 488.417 422.903C487.538 421.925 486.297 421.363 485.006 421.363H483.048V430.731ZM484.772 432.404H482.976C482.093 432.404 481.376 431.682 481.376 430.799V421.295C481.376 420.411 482.093 419.69 482.976 419.69H485.006C486.772 419.69 488.467 420.456 489.659 421.789C490.87 423.141 491.451 424.95 491.255 426.751C490.901 429.972 488.116 432.404 484.772 432.404ZM458.535 461.584H449.127C435.614 461.584 424.618 450.577 424.618 437.048V403.933C424.618 403.472 424.992 403.098 425.452 403.098C425.916 403.098 426.29 403.472 426.29 403.933V437.048C426.29 449.656 436.535 459.911 449.127 459.911H458.535C470.376 459.911 480.372 450.664 481.297 438.86C481.331 438.422 481.693 438.09 482.131 438.09H485.482C491.874 438.09 496.882 432.709 496.882 425.837V425.739C496.882 423.337 496.232 421.053 495.002 419.135C494.753 418.746 494.867 418.229 495.255 417.979C495.644 417.73 496.157 417.843 496.406 418.232C497.81 420.422 498.553 423.016 498.553 425.739V425.837C498.553 433.514 492.689 439.759 485.482 439.759H482.893C481.535 452.061 470.984 461.584 458.535 461.584Z" fill="#0B0B0B"/>
<path d="M464.388 430.285C464.388 436.123 459.663 440.85 453.833 440.85C448.003 440.85 443.278 436.123 443.278 430.285C443.278 424.451 448.003 419.72 453.833 419.72C459.663 419.72 464.388 424.451 464.388 430.285Z" fill="#F8F8F8"/>
<path d="M453.833 420.558C448.475 420.558 444.112 424.92 444.112 430.285C444.112 435.651 448.475 440.016 453.833 440.016C459.191 440.016 463.55 435.651 463.55 430.285C463.55 424.92 459.191 420.558 453.833 420.558ZM453.833 441.689C447.55 441.689 442.441 436.572 442.441 430.285C442.441 423.998 447.55 418.886 453.833 418.886C460.112 418.886 465.222 423.998 465.222 430.285C465.222 436.572 460.112 441.689 453.833 441.689Z" fill="#0B0B0B"/>
<path d="M455.931 394.923C455.776 394.923 455.622 394.878 455.482 394.791C455.35 394.704 452.252 392.673 451.486 388.939C450.973 386.428 451.637 383.792 453.456 381.103C458.403 373.797 456.784 370.569 455.071 367.155L454.931 366.876C454.724 366.464 454.893 365.962 455.305 365.754C455.72 365.546 456.222 365.716 456.425 366.128L456.565 366.407C458.331 369.93 460.335 373.922 454.841 382.04C453.286 384.336 452.709 386.541 453.12 388.587C453.735 391.627 456.361 393.368 456.388 393.383C456.776 393.636 456.886 394.153 456.637 394.538C456.475 394.787 456.207 394.923 455.931 394.923Z" fill="#0B0B0B"/>
<path d="M550.613 119.671H517.594C513.968 96.487 493.923 78.7512 469.735 78.7512C463.516 78.7512 457.573 79.9369 452.108 82.0741C439.799 59.8299 416.109 44.7601 388.898 44.7601C349.012 44.7601 316.68 77.1163 316.68 117.028C316.68 117.912 316.714 118.792 316.748 119.671H313.393C285.556 119.671 262.99 142.252 262.99 170.107C262.99 197.962 285.556 220.542 313.393 220.542H550.613C578.447 220.542 601.016 197.962 601.016 170.107C601.016 142.252 578.447 119.671 550.613 119.671Z" fill="#F8F8F8"/>
<path d="M318.789 114.411C291.458 114.411 269.224 136.659 269.224 164.009C269.224 191.358 291.458 213.61 318.789 213.61H556.009C583.341 213.61 605.578 191.358 605.578 164.012C605.578 136.659 583.341 114.411 556.009 114.411H522.994C522.583 114.411 522.232 114.113 522.168 113.705C518.523 90.4039 498.742 73.4914 475.135 73.4914C469.18 73.4914 463.354 74.5902 457.81 76.7576C457.422 76.9087 456.98 76.7501 456.776 76.3838C444.184 53.6337 420.245 39.504 394.298 39.504C354.936 39.504 322.914 71.5468 322.914 110.93C322.914 111.742 322.944 112.542 322.974 113.343L322.982 113.543C322.989 113.773 322.903 113.992 322.748 114.155C322.589 114.321 322.37 114.411 322.144 114.411H318.789ZM556.009 215.282H318.789C290.537 215.282 267.552 192.283 267.552 164.012C267.552 135.738 290.537 112.739 318.789 112.739H321.28C321.257 112.138 321.242 111.538 321.242 110.93C321.242 70.6217 354.015 37.8313 394.298 37.8313C420.611 37.8313 444.909 52.0288 457.882 74.9376C463.414 72.8683 469.214 71.8186 475.135 71.8186C486.953 71.8186 498.383 76.0704 507.319 83.7884C515.979 91.2686 521.779 101.528 523.704 112.739H556.009C584.265 112.739 607.25 135.738 607.25 164.009C607.25 192.283 584.265 215.282 556.009 215.282Z" fill="#0B0B0B"/>
<path d="M385.29 630.69C385.29 630.69 404.641 669.772 426.384 688.561C430.048 691.725 435.761 689.98 437.128 685.328C437.92 682.64 438.694 679.057 439.335 674.284C441.727 656.439 425.686 609.972 425.686 609.972L418.543 607.668C416.037 606.86 413.381 608.393 412.826 610.972L412.083 614.454L403.49 606.887C401.535 605.161 398.532 605.422 396.92 607.468C393.637 611.629 388.539 619.396 385.29 630.69Z" fill="#F8F8F8"/>
<path d="M386.181 630.607C388.004 634.213 406.543 670.311 426.931 687.926C428.441 689.233 430.411 689.656 432.335 689.089C434.267 688.519 435.758 687.028 436.328 685.094C437.195 682.134 437.931 678.46 438.505 674.174C440.731 657.59 426.573 615.186 425.03 610.636L418.286 608.465C417.316 608.148 416.252 608.261 415.369 608.775C414.486 609.284 413.86 610.149 413.645 611.146L412.898 614.627C412.837 614.918 412.626 615.152 412.343 615.247C412.06 615.341 411.75 615.277 411.528 615.08L402.939 607.513C402.162 606.83 401.166 606.505 400.139 606.596C399.12 606.69 398.207 607.185 397.573 607.985C394.102 612.388 389.324 619.872 386.181 630.607ZM430.682 691C428.924 691 427.207 690.377 425.837 689.191C404.215 670.512 384.736 631.453 384.54 631.06C384.449 630.872 384.426 630.656 384.487 630.456C387.702 619.294 392.664 611.512 396.264 606.951C397.185 605.784 398.505 605.067 399.988 604.931C401.479 604.795 402.92 605.267 404.045 606.26L411.562 612.883L412.011 610.795C412.324 609.337 413.245 608.072 414.535 607.325C415.826 606.577 417.381 606.415 418.799 606.872L425.939 609.175C426.192 609.254 426.388 609.451 426.475 609.696C427.131 611.603 442.554 656.559 440.161 674.397C439.577 678.766 438.826 682.527 437.931 685.566C437.203 688.047 435.286 689.961 432.807 690.694C432.105 690.898 431.392 691 430.682 691Z" fill="#0B0B0B"/>
<path d="M432.433 684.705C432.218 684.705 432.003 684.622 431.841 684.456C409.732 662.238 391.222 627.462 391.037 627.115C390.822 626.707 390.977 626.201 391.385 625.986C391.792 625.77 392.298 625.925 392.513 626.333C392.698 626.68 411.094 661.238 433.026 683.278C433.35 683.607 433.35 684.135 433.022 684.46C432.86 684.622 432.648 684.705 432.433 684.705Z" fill="#0B0B0B"/>
<path d="M423.007 654.188C422.656 654.188 422.328 653.965 422.214 653.61C422.067 653.172 422.305 652.7 422.747 652.557L434.309 648.747C434.746 648.6 435.218 648.841 435.361 649.279C435.505 649.717 435.267 650.189 434.829 650.337L423.267 654.143C423.18 654.173 423.094 654.188 423.007 654.188Z" fill="#0B0B0B"/>
<path d="M415.403 641.829C415.052 641.829 414.724 641.607 414.611 641.252C414.464 640.814 414.701 640.342 415.143 640.198L429.671 635.41C430.109 635.267 430.58 635.505 430.724 635.943C430.871 636.381 430.633 636.856 430.192 637L415.664 641.788C415.577 641.814 415.49 641.829 415.403 641.829Z" fill="#0B0B0B"/>
<path d="M227.267 337.197C228.754 335.63 334.774 289.797 378.109 280.048C421.445 270.302 437.592 270.207 452.339 294.989C467.082 319.771 381.306 454.995 381.306 454.995L198.82 407.399L227.267 337.197Z" fill="#0B0B0B"/>
<path d="M329.967 389.422C329.853 389.422 329.736 389.399 329.623 389.346C329.204 389.158 329.016 388.663 329.204 388.244C349.589 342.713 383.241 310.183 383.581 309.859C383.913 309.538 384.441 309.549 384.762 309.885C385.083 310.217 385.068 310.746 384.736 311.067C384.4 311.388 350.978 343.706 330.729 388.927C330.589 389.237 330.284 389.422 329.967 389.422Z" fill="#F8F8F8"/>
<path d="M140.525 397.767C140.525 397.767 145.328 447.054 155.982 457.306C166.637 467.554 294.458 457.306 294.458 457.306C294.458 457.306 304.616 473.958 311.254 518.465C317.891 562.969 325.295 622.889 336.291 637.506L432.003 616.829C432.003 616.829 400.256 426.173 378.207 400.247C356.159 374.318 195.733 370.248 195.733 370.248L140.525 397.767Z" fill="#0B0B0B"/>
<path d="M389.279 424.47C388.932 424.47 388.607 424.251 388.49 423.908C384.475 412.368 380.804 404.59 377.57 400.788C370.102 392.008 337.019 384.003 281.892 377.648C281.435 377.596 281.103 377.18 281.156 376.72C281.209 376.263 281.631 375.934 282.084 375.987C338.431 382.485 370.985 390.464 378.845 399.704C382.211 403.665 385.988 411.621 390.068 423.356C390.219 423.794 389.988 424.27 389.551 424.421C389.46 424.455 389.37 424.47 389.279 424.47Z" fill="#F8F8F8"/>
<path d="M317.672 236.405C314.276 233.92 309.495 234.781 307.186 238.304C295.258 256.497 262.262 306.887 261.873 308.129L278.409 310.463L319.525 246.321C321.623 243.043 320.812 238.701 317.672 236.405Z" fill="#F8F8F8"/>
<path d="M263.209 307.472L277.994 309.56L318.82 245.868C320.676 242.971 319.955 239.109 317.178 237.077C315.721 236.012 313.94 235.605 312.167 235.925C310.393 236.246 308.873 237.255 307.884 238.761C282.669 277.227 266.394 302.258 263.209 307.472ZM278.409 311.301C278.371 311.301 278.333 311.297 278.292 311.29L261.756 308.96C261.515 308.926 261.3 308.786 261.167 308.579C261.035 308.371 261.001 308.114 261.077 307.88C261.454 306.668 285.978 269.124 306.488 237.844C307.729 235.948 309.639 234.683 311.869 234.279C314.095 233.875 316.333 234.389 318.167 235.729C321.653 238.282 322.559 243.13 320.227 246.77L279.114 310.916C278.956 311.158 278.692 311.301 278.409 311.301Z" fill="#0B0B0B"/>
<path d="M92.8901 388.282C92.8901 388.282 75.7156 364.263 82.7484 310.463C89.7815 256.663 106.988 228.736 124.988 222.355C142.989 215.977 217.033 227.63 222.814 318.019L92.8901 388.282Z" fill="#F8F8F8"/>
<path d="M135.77 221.72C131.417 221.72 127.805 222.245 125.268 223.144C116.061 226.406 107.496 235.351 100.499 249.009C92.594 264.441 86.9004 285.153 83.5775 310.572C77.2723 358.803 90.6498 383.112 93.1706 387.179L221.946 317.539C218.81 270.872 197.358 247.329 179.876 235.786C164.23 225.455 147.376 221.72 135.77 221.72ZM92.8906 389.12C92.6283 389.12 92.3721 388.995 92.2102 388.769C92.037 388.527 74.9247 363.862 81.9197 310.353C88.3336 261.292 103.93 228.932 124.709 221.569C134.331 218.156 158.811 219.874 180.796 234.389C198.661 246.185 220.597 270.26 223.649 317.966C223.67 318.29 223.499 318.6 223.212 318.755L93.2875 389.018C93.1615 389.086 93.0253 389.12 92.8906 389.12Z" fill="#0B0B0B"/>
<path d="M144.627 350.261C144.192 350.261 143.825 349.925 143.794 349.484L140.229 299.029C140.197 298.569 140.544 298.168 141.004 298.134C141.466 298.1 141.864 298.448 141.897 298.908L145.461 349.367C145.494 349.827 145.147 350.227 144.686 350.258C144.667 350.261 144.647 350.261 144.627 350.261Z" fill="#0B0B0B"/>
<path d="M86.6371 374.446C86.6371 374.446 92.8766 419.626 155.982 404.507C219.088 389.384 251.986 330.683 251.986 330.683C251.986 330.683 288.729 322.822 287.484 298.969C287.484 298.969 275.182 302.269 264.726 298.969C254.266 295.669 242.945 299.044 238.594 303.13C208.754 331.132 113.442 339.53 86.6371 374.446Z" fill="#F8F8F8"/>
<path d="M87.5224 374.669C87.942 376.957 90.8918 390.321 103.614 398.998C115.991 407.445 133.545 409.023 155.788 403.691C217.82 388.825 250.934 330.857 251.258 330.272C251.375 330.064 251.579 329.913 251.813 329.864C252.168 329.788 286.79 322.108 286.677 300.022C283.473 300.744 273.413 302.586 264.473 299.766C254.183 296.522 243.164 299.988 239.164 303.738C225.43 316.629 198.479 325.242 169.946 334.361C136.581 345.02 102.085 356.046 87.5224 374.669ZM132.141 408.449C120.399 408.449 110.53 405.753 102.647 400.365C88.156 390.46 85.8979 375.205 85.8092 374.56C85.7787 374.341 85.8383 374.114 85.9745 373.937C100.724 354.725 135.656 343.563 169.437 332.767C197.786 323.709 224.562 315.149 238.021 302.518C242.949 297.893 254.654 294.917 264.979 298.172C275.084 301.359 287.145 298.195 287.269 298.161C287.511 298.097 287.771 298.146 287.975 298.293C288.178 298.44 288.307 298.674 288.318 298.924C289.533 322.199 256.62 330.479 252.53 331.419C251.202 333.689 242.938 347.407 228.249 362.507C213.47 377.698 188.97 397.461 156.177 405.319C147.462 407.407 139.439 408.449 132.141 408.449Z" fill="#0B0B0B"/>
<path d="M265.013 310.002C263.994 310.002 262.937 309.98 261.839 309.938C261.379 309.919 261.02 309.53 261.039 309.066C261.058 308.605 261.416 308.25 261.907 308.265C280.322 309.009 286.605 302.907 286.665 302.847C286.99 302.522 287.518 302.518 287.846 302.839C288.175 303.164 288.182 303.689 287.858 304.017C287.609 304.274 281.824 310.002 265.013 310.002Z" fill="#0B0B0B"/>
<path d="M263.099 318.744C262.692 318.744 262.281 318.74 261.858 318.732C261.398 318.725 261.028 318.343 261.039 317.879C261.047 317.418 261.435 317.056 261.888 317.059C277.941 317.354 283.122 311.66 283.171 311.603C283.477 311.256 284.005 311.218 284.352 311.524C284.699 311.826 284.733 312.355 284.431 312.702C284.209 312.955 278.971 318.744 263.099 318.744Z" fill="#0B0B0B"/>
<path d="M153.686 180.487C153.212 181.355 133.024 215.879 133.024 215.879L119.102 225.239C124.24 229.148 133.308 235.023 145.998 238.387C158.941 241.82 169.928 241.121 176.362 240.23C175.803 238.47 174.863 236.178 173.234 233.785C170.664 230.009 167.599 227.762 165.642 226.561C169.796 219.421 173.95 212.28 178.105 205.144L153.686 180.487Z" fill="#F8F8F8"/>
<path d="M120.547 225.277C128.283 230.975 136.913 235.114 146.212 237.579C155.725 240.102 165.486 240.759 175.242 239.531C174.562 237.662 173.657 235.891 172.543 234.253C170.625 231.436 168.156 229.087 165.205 227.271C164.818 227.033 164.692 226.531 164.92 226.138L177.06 205.276L153.863 181.854C150.619 187.442 134.496 215.018 133.746 216.302C133.682 216.411 133.595 216.506 133.49 216.574L120.547 225.277ZM165.707 241.805C159.003 241.805 152.337 240.932 145.784 239.195C135.894 236.575 126.747 232.1 118.597 225.908C118.382 225.745 118.259 225.489 118.267 225.217C118.275 224.949 118.412 224.7 118.636 224.549L132.399 215.294C133.916 212.7 152.506 180.902 152.953 180.087C153.08 179.853 153.308 179.694 153.57 179.66C153.829 179.622 154.094 179.709 154.28 179.898L178.698 204.555C178.964 204.823 179.017 205.238 178.827 205.567L166.769 226.285C169.62 228.158 172.024 230.518 173.924 233.313C175.316 235.359 176.404 237.602 177.158 239.977C177.233 240.211 177.2 240.468 177.068 240.676C176.937 240.883 176.72 241.023 176.476 241.057C172.885 241.555 169.29 241.805 165.707 241.805Z" fill="#0B0B0B"/>
<path d="M214.809 158.432C205.505 150.789 194.533 158.768 183.671 149.396C178.694 145.099 178.238 141.039 172.262 138.691C168.305 137.135 161.261 136.063 156.574 139.642C150.605 144.2 154.998 151.303 150.156 167.233C146.756 178.421 142.044 183.289 144.69 187.212C147.364 191.18 153.584 188.284 156.832 192.4C161.035 197.724 153.368 206.058 155.757 213.579C157.398 218.749 165.252 226.131 184.992 228.6C186.08 225.428 188.701 219.16 190.406 213.028C195.744 193.831 192.836 186.487 197.635 184.01C204.988 180.211 213.861 191.943 219.326 188.401C225.001 184.724 224.363 166.282 214.809 158.432Z" fill="#0B0B0B"/>
<path d="M176.242 167.826L178.104 173.464C178.104 173.464 170.876 191.199 169.585 197.898C168.293 204.596 188.723 210.173 188.723 210.173L191.93 207.795L197.635 209.222C197.635 209.222 197.462 189.7 202.689 176.684C202.689 176.684 193.043 164.975 176.242 167.826Z" fill="#F8F8F8"/>
<path d="M175.526 167.396C176.194 167.207 176.921 167.007 177.677 166.859C178.413 166.72 179.246 166.591 179.811 166.606C181.056 166.584 182.302 166.508 183.545 166.648C186.037 166.773 188.498 167.316 190.862 168.094C193.235 168.868 195.494 169.967 197.587 171.319C199.691 172.678 201.61 174.219 203.334 176.152C203.533 176.375 203.581 176.681 203.485 176.941L203.465 176.994C202.464 179.505 201.676 182.118 201.019 184.765C200.396 187.419 199.897 190.112 199.492 192.823C199.107 195.534 198.809 198.264 198.595 201.002C198.385 203.735 198.241 206.488 198.217 209.214C198.215 209.543 197.95 209.803 197.625 209.803C197.581 209.803 197.534 209.796 197.493 209.788L191.727 208.606L192.428 208.467L189.221 210.846L189.211 210.853C189.001 211.008 188.736 211.046 188.503 210.978C184.447 209.803 180.502 208.399 176.69 206.533C174.797 205.582 172.928 204.528 171.259 203.075C170.436 202.338 169.642 201.489 169.124 200.367C168.851 199.82 168.723 199.17 168.69 198.521C168.72 198.211 168.735 197.83 168.799 197.581L168.975 196.795C169.991 192.664 171.415 188.752 172.827 184.822C174.267 180.906 175.765 177.021 177.33 173.15L177.311 173.728C176.612 171.651 176.027 169.45 175.526 167.396ZM176.958 168.257C177.699 169.963 178.356 171.519 178.898 173.203C178.962 173.399 178.949 173.603 178.878 173.781C177.324 177.625 175.827 181.503 174.397 185.396C172.996 189.292 171.573 193.219 170.604 197.173L170.439 197.909C170.376 198.166 170.399 198.309 170.362 198.517C170.395 198.902 170.45 199.295 170.648 199.68C171.001 200.458 171.642 201.179 172.367 201.821C173.835 203.105 175.616 204.128 177.433 205.038C181.093 206.832 185.015 208.229 188.943 209.365L188.225 209.501L191.431 207.122L191.482 207.089C191.679 206.953 191.92 206.922 192.133 206.983L197.774 208.656L197.052 209.226C197.034 206.439 197.137 203.679 197.306 200.911C197.481 198.143 197.739 195.383 198.087 192.63C198.455 189.878 198.92 187.136 199.515 184.414C200.145 181.695 200.911 179.003 201.913 176.375L202.044 177.213C200.537 175.529 198.654 173.988 196.684 172.727C194.704 171.447 192.568 170.405 190.33 169.68C188.098 168.948 185.781 168.43 183.428 168.317C182.257 168.181 181.077 168.257 179.899 168.279C179.249 168.268 178.885 168.374 178.417 168.358C177.969 168.358 177.493 168.298 176.958 168.257Z" fill="#0B0B0B"/>
<path d="M169.339 183.489C169.339 183.489 171.127 170.526 165.06 170.96C158.993 171.394 157.383 185.713 169.339 183.489Z" fill="#F8F8F8"/>
<path d="M165.35 171.783C165.275 171.783 165.198 171.787 165.12 171.795C163.765 171.889 162.572 172.89 161.848 174.536C161.03 176.394 160.874 179.109 162.365 180.993C163.606 182.564 165.747 183.172 168.584 182.768C168.863 180.132 169.014 174.574 167.109 172.538C166.636 172.033 166.058 171.783 165.35 171.783ZM166.943 184.561C163.801 184.561 162.029 183.262 161.055 182.031C159.131 179.603 159.299 176.179 160.318 173.864C161.286 171.662 163.037 170.265 165 170.126C166.334 170.031 167.452 170.458 168.33 171.398C171.364 174.638 170.217 183.24 170.167 183.602C170.117 183.961 169.846 184.244 169.491 184.312C168.555 184.486 167.708 184.561 166.943 184.561Z" fill="#0B0B0B"/>
<path d="M214.653 549.881C210.598 541.529 210.212 533.116 214.653 524.612L211.465 520.787L124.276 523.657L127.281 551.373L211.679 552.347L214.653 549.881Z" fill="#F8F8F8"/>
<path d="M128.032 550.546L211.382 551.505L213.619 549.655C209.645 541.095 209.657 532.716 213.657 524.726L211.085 521.637L125.203 524.465L128.032 550.546ZM211.68 553.181C211.676 553.181 211.673 553.181 211.67 553.181L127.271 552.207C126.848 552.203 126.496 551.882 126.45 551.463L123.445 523.748C123.419 523.517 123.492 523.283 123.644 523.11C123.797 522.932 124.015 522.83 124.248 522.823L211.438 519.953C211.691 519.945 211.942 520.055 212.107 520.251L215.295 524.08C215.511 524.337 215.55 524.703 215.394 525.001C211.246 532.938 211.25 540.959 215.405 549.515C215.573 549.862 215.483 550.281 215.186 550.527L212.212 552.989C212.063 553.113 211.874 553.181 211.68 553.181Z" fill="#0B0B0B"/>
<path d="M54.4427 517.736H216.271C218.163 517.736 219.696 519.269 219.696 521.165C219.696 523.057 218.163 524.59 216.271 524.59H141.872C136.424 524.59 132.007 529.011 132.007 534.46V540.011C132.007 545.463 136.424 549.881 141.872 549.881H216.271C218.163 549.881 219.696 551.414 219.696 553.31C219.696 555.201 218.163 556.734 216.271 556.734H54.4427C44.3972 556.734 36.2539 548.586 36.2539 538.534V535.937C36.2539 525.885 44.3972 517.736 54.4427 517.736Z" fill="#F8F8F8"/>
<path d="M54.4427 518.571C44.8746 518.571 37.0901 526.361 37.0901 535.936V538.534C37.0901 548.11 44.8746 555.9 54.4427 555.9H216.271C217.699 555.9 218.86 554.737 218.86 553.31C218.86 551.879 217.699 550.719 216.271 550.719H141.872C135.972 550.719 131.172 545.916 131.172 540.011V534.46C131.172 528.558 135.972 523.755 141.872 523.755H216.271C217.699 523.755 218.86 522.592 218.86 521.165C218.86 519.734 217.699 518.571 216.271 518.571H54.4427ZM216.271 557.573H54.4427C43.9527 557.573 35.4185 549.031 35.4185 538.534V535.936C35.4185 525.439 43.9527 516.902 54.4427 516.902H216.271C218.62 516.902 220.532 518.813 220.532 521.165C220.532 523.514 218.62 525.428 216.271 525.428H141.872C136.893 525.428 132.843 529.48 132.843 534.46V540.011C132.843 544.991 136.893 549.047 141.872 549.047H216.271C218.62 549.047 220.532 550.957 220.532 553.31C220.532 555.658 218.62 557.573 216.271 557.573Z" fill="#0B0B0B"/>
<path d="M211.46 536.907H162.356C161.895 536.907 161.521 536.529 161.521 536.069C161.521 535.608 161.895 535.234 162.356 535.234H211.46C211.922 535.234 212.296 535.608 212.296 536.069C212.296 536.529 211.922 536.907 211.46 536.907Z" fill="#0B0B0B"/>
<path d="M211.771 544.304H171.86C171.398 544.304 171.024 543.93 171.024 543.47C171.024 543.009 171.398 542.635 171.86 542.635H211.771C212.232 542.635 212.606 543.009 212.606 543.47C212.606 543.93 212.232 544.304 211.771 544.304Z" fill="#0B0B0B"/>
<path d="M220.925 597.035H74.7512V561.198H220.925C216.61 573.303 216.491 585.25 220.925 597.035Z" fill="#F8F8F8"/>
<path d="M75.587 596.197H219.731C215.847 585.141 215.853 573.658 219.751 562.036H75.587V596.197ZM220.925 597.87H74.7511C74.2896 597.87 73.9153 597.496 73.9153 597.035V561.198C73.9153 560.737 74.2896 560.363 74.7511 560.363H220.925C221.196 560.363 221.451 560.495 221.608 560.718C221.764 560.941 221.803 561.224 221.712 561.481C217.427 573.5 217.426 585.364 221.707 596.741C221.804 596.998 221.768 597.284 221.612 597.511C221.456 597.734 221.199 597.87 220.925 597.87Z" fill="#0B0B0B"/>
<path d="M92.3486 562.969H221.93C223.489 562.969 224.752 561.704 224.752 560.144C224.752 558.585 223.489 557.32 221.93 557.32H53.7767C46.9284 557.32 41.3772 562.874 41.3772 569.728V589.234C41.3772 596.084 46.9284 601.642 53.7767 601.642H221.93C223.489 601.642 224.752 600.377 224.752 598.818C224.752 597.258 223.489 595.993 221.93 595.993H92.3486C87.5106 595.993 83.5887 592.07 83.5887 587.229V571.733C83.5887 566.892 87.5106 562.969 92.3486 562.969Z" fill="#F8F8F8"/>
<path d="M53.7767 558.158C47.4002 558.158 42.2127 563.346 42.2127 569.728V589.234C42.2127 595.612 47.4002 600.804 53.7767 600.804H221.93C223.026 600.804 223.917 599.913 223.917 598.817C223.917 597.722 223.026 596.831 221.93 596.831H92.349C87.0578 596.831 82.7529 592.523 82.7529 587.229V571.733C82.7529 566.439 87.0578 562.13 92.349 562.13H221.93C223.026 562.13 223.917 561.239 223.917 560.144C223.917 559.049 223.026 558.158 221.93 558.158H53.7767ZM221.93 602.476H53.7767C46.4791 602.476 40.5414 596.537 40.5414 589.234V569.728C40.5414 562.425 46.4791 556.485 53.7767 556.485H221.93C223.947 556.485 225.588 558.124 225.588 560.144C225.588 562.16 223.947 563.803 221.93 563.803H92.349C87.9793 563.803 84.4246 567.36 84.4246 571.733V587.229C84.4246 591.602 87.9793 595.159 92.349 595.159H221.93C223.947 595.159 225.588 596.801 225.588 598.817C225.588 600.834 223.947 602.476 221.93 602.476Z" fill="#0B0B0B"/>
<path d="M218.34 570.543H196.755C196.294 570.543 195.919 570.169 195.919 569.709C195.919 569.248 196.294 568.87 196.755 568.87H218.34C218.801 568.87 219.176 569.248 219.176 569.709C219.176 570.169 218.801 570.543 218.34 570.543Z" fill="#0B0B0B"/>
<path d="M217.885 575.327H151.411C150.95 575.327 150.575 574.953 150.575 574.489C150.575 574.028 150.95 573.655 151.411 573.655H217.885C218.346 573.655 218.72 574.028 218.72 574.489C218.72 574.953 218.346 575.327 217.885 575.327Z" fill="#0B0B0B"/>
<path d="M217.885 585.311H160.689C160.227 585.311 159.853 584.937 159.853 584.473C159.853 584.012 160.227 583.638 160.689 583.638H217.885C218.346 583.638 218.72 584.012 218.72 584.473C218.72 584.937 218.346 585.311 217.885 585.311Z" fill="#0B0B0B"/>
<path d="M41.9524 638.216C46.535 628.78 46.9716 619.268 41.9524 609.662L45.555 605.339L144.079 608.582L140.683 639.9L45.3131 640.999L41.9524 638.216Z" fill="#F8F8F8"/>
<path d="M42.987 637.989L45.61 640.161L139.932 639.073L143.151 609.39L45.9352 606.188L42.9489 609.775C47.4967 618.815 47.5095 628.3 42.987 637.989ZM45.313 641.837C45.1183 641.837 44.93 641.769 44.7801 641.644L41.4194 638.862C41.1228 638.616 41.0323 638.197 41.2009 637.85C45.9126 628.145 45.9156 619.053 41.2119 610.051C41.0553 609.753 41.0945 609.386 41.3108 609.13L44.913 604.806C45.0779 604.606 45.3269 604.497 45.5824 604.504L144.106 607.748C144.339 607.755 144.558 607.857 144.71 608.035C144.863 608.212 144.936 608.442 144.91 608.673L141.514 639.991C141.468 640.414 141.116 640.731 140.693 640.738L45.3228 641.837C45.3194 641.837 45.3164 641.837 45.313 641.837Z" fill="#0B0B0B"/>
<path d="M222.99 601.891H40.1244C37.9867 601.891 36.2539 603.628 36.2539 605.765C36.2539 607.902 37.9867 609.639 40.1244 609.639H124.195C130.351 609.639 135.342 614.631 135.342 620.79V627.062C135.342 633.224 130.351 638.216 124.195 638.216H40.1244C37.9867 638.216 36.2539 639.949 36.2539 642.09C36.2539 644.227 37.9867 645.96 40.1244 645.96H222.99C234.341 645.96 243.545 636.755 243.545 625.396V622.459C243.545 611.101 234.341 601.891 222.99 601.891Z" fill="#F8F8F8"/>
<path d="M40.1244 639.054C38.4512 639.054 37.0901 640.413 37.0901 642.09C37.0901 643.763 38.4512 645.126 40.1244 645.126H222.99C233.862 645.126 242.707 636.275 242.707 625.396V622.459C242.707 611.58 233.862 602.729 222.99 602.729H40.1244C38.4512 602.729 37.0901 604.093 37.0901 605.765C37.0901 607.438 38.4512 608.801 40.1244 608.801H124.195C130.803 608.801 136.178 614.178 136.178 620.79V627.062C136.178 633.673 130.803 639.054 124.195 639.054H40.1244ZM222.99 646.799H40.1244C37.5294 646.799 35.4185 644.684 35.4185 642.09C35.4185 639.492 37.5294 637.381 40.1244 637.381H124.195C129.881 637.381 134.506 632.752 134.506 627.062V620.79C134.506 615.103 129.881 610.474 124.195 610.474H40.1244C37.5294 610.474 35.4185 608.363 35.4185 605.765C35.4185 603.167 37.5294 601.057 40.1244 601.057H222.99C234.783 601.057 244.379 610.659 244.379 622.459V625.396C244.379 637.196 234.783 646.799 222.99 646.799Z" fill="#0B0B0B"/>
<path d="M90.66 623.444H45.5602C45.0987 623.444 44.7247 623.071 44.7247 622.61C44.7247 622.145 45.0987 621.772 45.5602 621.772H90.66C91.1215 621.772 91.4955 622.145 91.4955 622.61C91.4955 623.071 91.1215 623.444 90.66 623.444Z" fill="#0B0B0B"/>
<path d="M100.338 631.808H45.2096C44.7485 631.808 44.3741 631.434 44.3741 630.97C44.3741 630.509 44.7485 630.135 45.2096 630.135H100.338C100.8 630.135 101.174 630.509 101.174 630.97C101.174 631.434 100.8 631.808 100.338 631.808Z" fill="#0B0B0B"/>
<path d="M503.776 472.297C512.357 477.802 568.771 510.996 636.355 478.889C636.601 478.772 636.797 478.584 636.914 478.338C639.521 472.95 668.287 409.608 626.903 319.132C626.578 318.426 625.687 318.196 625.084 318.668C617.499 324.608 574.703 356.877 540.753 356.046C539.956 356.027 539.36 356.76 539.572 357.534C542.017 366.491 551.469 413.048 503.512 470.522C503.051 471.073 503.168 471.904 503.776 472.297Z" fill="#F8F8F8"/>
<path d="M540.723 356.881C540.564 356.881 540.474 356.967 540.432 357.017C540.387 357.077 540.338 357.179 540.375 357.315C542.794 366.162 552.409 413.225 504.153 471.058C504.059 471.168 504.063 471.288 504.07 471.349C504.082 471.405 504.112 471.515 504.229 471.59C508.606 474.4 524.708 483.953 548.111 488.881C578.118 495.198 607.692 491.58 635.997 478.134C636.072 478.096 636.129 478.044 636.163 477.972C637.661 474.872 645.261 458.016 647.574 430.572C650.604 394.576 643.397 357.198 626.14 319.48C626.073 319.329 625.94 319.28 625.888 319.268C625.827 319.253 625.71 319.242 625.597 319.329C617.51 325.661 575.907 356.896 542.055 356.896C541.613 356.896 541.175 356.892 540.734 356.881C540.73 356.881 540.726 356.881 540.723 356.881ZM576.635 493.57C567.077 493.57 557.443 492.555 547.768 490.516C524.085 485.531 507.765 475.846 503.327 472.999C502.836 472.685 502.508 472.176 502.417 471.602C502.331 471.024 502.493 470.435 502.87 469.986C550.594 412.791 541.145 366.464 538.764 357.757C538.594 357.134 538.723 356.492 539.119 355.986C539.515 355.476 540.13 355.197 540.775 355.208C574.322 356.042 616.454 324.366 624.567 318.011C625.054 317.63 625.68 317.494 626.28 317.641C626.895 317.792 627.397 318.207 627.661 318.781C645.035 356.767 652.295 394.425 649.238 430.712C646.899 458.454 639.189 475.555 637.665 478.701C637.465 479.116 637.137 479.444 636.714 479.645C617.193 488.918 597.08 493.57 576.635 493.57Z" fill="#0B0B0B"/>
<path d="M553.319 371.675C552.93 371.675 552.583 371.403 552.5 371.01C552.405 370.557 552.692 370.115 553.145 370.021C553.507 369.945 589.76 362.163 616.159 342.558C616.529 342.283 617.054 342.362 617.329 342.732C617.605 343.106 617.525 343.627 617.156 343.903C590.454 363.73 553.854 371.58 553.488 371.656C553.432 371.667 553.375 371.675 553.319 371.675Z" fill="#0B0B0B"/>
<path d="M579.397 381.107C579.016 381.107 578.673 380.847 578.582 380.458C578.48 380.008 578.763 379.559 579.213 379.457C596.473 375.534 611.642 369.137 624.299 360.445C624.68 360.185 625.201 360.279 625.461 360.66C625.725 361.042 625.627 361.563 625.246 361.823C612.416 370.636 597.05 377.116 579.582 381.088C579.522 381.103 579.458 381.107 579.397 381.107Z" fill="#0B0B0B"/>
<path d="M553.002 384.732C552.545 384.732 552.171 384.362 552.164 383.905C552.16 383.444 552.53 383.063 552.99 383.059C553.043 383.056 558.586 382.969 567.054 381.726C567.511 381.662 567.933 381.976 568.001 382.433C568.069 382.889 567.752 383.316 567.296 383.38C558.707 384.641 553.069 384.728 553.013 384.732C553.009 384.732 553.005 384.732 553.002 384.732Z" fill="#0B0B0B"/>
<path d="M561.028 399.239C555.458 399.239 552.209 398.873 552.103 398.862C551.647 398.805 551.319 398.39 551.375 397.929C551.428 397.472 551.839 397.144 552.303 397.2C552.658 397.242 588.009 401.214 627.612 382.142C628.031 381.942 628.529 382.115 628.729 382.531C628.929 382.946 628.755 383.448 628.336 383.648C600.201 397.197 574.16 399.239 561.028 399.239Z" fill="#0B0B0B"/>
<path d="M571.824 414.415C557.511 414.415 548.553 412.474 548.371 412.433C547.922 412.331 547.639 411.881 547.741 411.432C547.839 410.983 548.285 410.699 548.737 410.801C549.107 410.884 586.08 418.886 630.382 401.849C630.812 401.682 631.295 401.898 631.461 402.328C631.627 402.759 631.412 403.242 630.982 403.408C607.982 412.251 586.926 414.415 571.824 414.415Z" fill="#0B0B0B"/>
<path d="M604.646 431.867C604.235 431.867 603.876 431.565 603.82 431.146C603.756 430.689 604.073 430.266 604.529 430.202C613.438 428.945 621.925 426.747 629.755 423.666C630.185 423.5 630.668 423.711 630.838 424.138C631.008 424.568 630.797 425.056 630.367 425.222C622.416 428.352 613.801 430.584 604.763 431.856C604.725 431.864 604.684 431.867 604.646 431.867Z" fill="#0B0B0B"/>
<path d="M585.914 433.147C562.213 433.147 544.077 427.314 543.888 427.249C543.451 427.106 543.209 426.634 543.353 426.196C543.496 425.758 543.972 425.516 544.409 425.66C544.605 425.724 564.537 432.128 589.862 431.418C590.345 431.407 590.707 431.769 590.718 432.234C590.733 432.694 590.367 433.079 589.907 433.091C588.563 433.129 587.228 433.147 585.914 433.147Z" fill="#0B0B0B"/>
<path d="M25.7362 129.863L58.9645 161.992C62.0279 164.956 66.9293 164.836 69.8255 161.709C79.8548 150.887 103.681 127.559 133.539 114.438C137.848 112.546 139.448 107.256 136.881 103.31L107.319 57.8401C105.101 54.4304 100.596 53.3504 97.0908 55.4197C85.9087 62.0163 60.6456 79.514 25.3272 119.328C22.622 122.375 22.8061 127.027 25.7362 129.863Z" fill="#F8F8F8"/>
<path d="M26.3166 129.258L59.5457 161.392C60.8687 162.672 62.6056 163.344 64.449 163.299C66.2788 163.246 67.9705 162.483 69.2127 161.143C78.3077 151.325 102.75 127.053 133.203 113.671C135.039 112.867 136.421 111.304 136.993 109.386C137.561 107.483 137.265 105.432 136.181 103.767L106.618 58.2969C104.634 55.246 100.636 54.2982 97.515 56.1409C85.751 63.0811 60.8106 80.5902 25.9525 119.883C23.5352 122.605 23.6959 126.725 26.3166 129.258ZM64.2562 164.971C62.0532 164.971 59.9759 164.133 58.3842 162.593L25.1555 130.463C21.888 127.303 21.6891 122.167 24.7019 118.773C59.7125 79.3064 84.8174 61.6877 96.6664 54.6984C100.559 52.4026 105.547 53.5808 108.02 57.387L137.582 102.853C138.935 104.934 139.304 107.49 138.595 109.865C137.882 112.252 136.162 114.2 133.875 115.204C103.709 128.462 79.4628 152.541 70.4387 162.279C68.8878 163.952 66.7773 164.907 64.4947 164.968C64.4154 164.971 64.3354 164.971 64.2562 164.971Z" fill="#0B0B0B"/>
<path d="M3.45842 171.776L36.6867 203.905C39.75 206.869 44.6515 206.749 47.5477 203.622C57.577 192.8 81.4028 169.472 111.261 156.355C115.57 154.459 117.17 149.169 114.603 145.223L85.0412 99.7569C82.8224 96.3435 78.3179 95.2673 74.8126 97.3327C63.6309 103.929 38.3678 121.431 3.04937 161.241C0.34412 164.292 0.528263 168.944 3.45842 171.776Z" fill="#F8F8F8"/>
<path d="M4.03917 171.175L37.2674 203.305C38.5908 204.585 40.3297 205.257 42.1715 205.212C44.0009 205.163 45.6926 204.396 46.9349 203.056C56.0299 193.242 80.4718 168.97 110.925 155.588C112.762 154.78 114.144 153.217 114.716 151.299C115.283 149.396 114.988 147.345 113.903 145.68L84.3408 100.214C82.3563 97.1591 78.3583 96.2113 75.2372 98.054C63.4735 104.994 38.5335 122.503 3.67427 161.796C1.25732 164.522 1.41769 168.638 4.03917 171.175ZM41.9783 206.888C39.775 206.888 37.6976 206.046 36.1059 204.509L2.87805 172.376C-0.389837 169.219 -0.589081 164.08 2.42409 160.686C37.4357 121.219 62.54 103.601 74.3881 96.6115C78.2813 94.3158 83.2688 95.4977 85.742 99.3001L115.304 144.766C116.657 146.847 117.026 149.403 116.317 151.778C115.605 154.168 113.884 156.113 111.597 157.117C81.4307 170.375 57.1846 194.454 48.1605 204.192C46.6103 205.865 44.4998 206.82 42.2172 206.885C42.1376 206.885 42.0579 206.888 41.9783 206.888Z" fill="#0B0B0B"/>
<path d="M10.4693 168.948C10.0629 168.948 9.70671 168.649 9.64407 168.238C9.57539 167.781 9.88936 167.354 10.3456 167.286L51.2047 161.112C58.4189 160.021 64.323 155.075 66.6121 148.199L80.1908 107.43C80.3368 106.992 80.8077 106.754 81.2481 106.901C81.6858 107.048 81.9228 107.52 81.7768 107.958L68.1981 148.731C65.7087 156.204 59.2929 161.581 51.4545 162.766L10.5954 168.94C10.5527 168.944 10.5109 168.948 10.4693 168.948Z" fill="#0B0B0B"/>
<path d="M614.465 493.291L560.066 461.765C557.843 460.478 554.873 461.169 553.439 463.306L485.127 565.087C483.689 567.228 484.331 570.003 486.553 571.295L540.953 602.816C543.175 604.108 546.141 603.417 547.579 601.276L615.891 499.499C617.325 497.358 616.688 494.578 614.465 493.291Z" fill="#F8F8F8"/>
<path d="M557.613 461.95C556.262 461.95 554.918 462.6 554.134 463.774L485.821 565.555C485.255 566.393 485.067 567.379 485.282 568.327C485.5 569.267 486.1 570.064 486.972 570.57L541.371 602.095C543.221 603.164 545.688 602.59 546.885 600.811L615.197 499.03C615.759 498.188 615.952 497.203 615.733 496.259C615.514 495.315 614.914 494.518 614.046 494.016L559.647 462.49C559.017 462.124 558.315 461.95 557.613 461.95ZM543.387 604.296C542.402 604.296 541.417 604.055 540.534 603.541L486.134 572.016C484.859 571.279 483.98 570.101 483.655 568.704C483.331 567.3 483.606 565.85 484.433 564.622L552.745 462.842C554.42 460.346 557.892 459.541 560.484 461.044L614.88 492.566C616.159 493.306 617.039 494.484 617.363 495.881C617.688 497.282 617.408 498.732 616.582 499.963L548.27 601.744C547.168 603.386 545.285 604.296 543.387 604.296Z" fill="#0B0B0B"/>
<path d="M571.484 468.385L570.028 470.556C568.481 472.867 569.167 475.865 571.567 477.254L594.435 490.504C596.835 491.898 600.035 491.154 601.586 488.843L603.042 486.672L571.484 468.385Z" fill="#0B0B0B"/>
<path d="M584.318 481.918C583.447 481.412 583.194 480.324 583.76 479.482C584.322 478.644 585.484 478.376 586.356 478.878C587.228 479.384 587.48 480.475 586.918 481.314C586.352 482.152 585.19 482.424 584.318 481.918Z" fill="#F8F8F8"/>
<path d="M601.941 508.768L550.613 479.025L553.617 474.551L604.944 504.294L601.941 508.768Z" fill="#0B0B0B"/>
<path d="M529.625 511.801L579.499 540.702L598.552 512.318L548.677 483.413L529.625 511.801ZM579.76 542.654C579.616 542.654 579.473 542.62 579.341 542.541L528.013 512.797C527.813 512.684 527.67 512.488 527.617 512.265C527.568 512.038 527.609 511.801 527.738 511.608L547.722 481.831C547.968 481.465 548.455 481.351 548.836 481.574L600.163 511.317C600.363 511.434 600.507 511.627 600.56 511.853C600.612 512.08 600.567 512.314 600.439 512.507L580.454 542.284C580.292 542.525 580.028 542.654 579.76 542.654Z" fill="#0B0B0B"/>
<path d="M601.303 505.295C600.903 505.887 600.08 506.08 599.461 505.721C598.843 505.363 598.665 504.589 599.061 503.996C599.461 503.399 600.288 503.21 600.907 503.565C601.525 503.924 601.703 504.698 601.303 505.295Z" fill="#F8F8F8"/>
<path d="M515.791 532.414L565.666 561.315L577.19 544.145L527.315 515.241L515.791 532.414ZM565.922 563.267C565.782 563.267 565.635 563.233 565.507 563.154L514.179 533.41C513.979 533.297 513.836 533.101 513.783 532.878C513.73 532.651 513.776 532.414 513.904 532.221L526.364 513.658C526.609 513.292 527.096 513.179 527.477 513.402L578.801 543.145C579.001 543.262 579.145 543.454 579.197 543.681C579.25 543.904 579.205 544.142 579.077 544.334L566.616 562.897C566.458 563.139 566.194 563.267 565.922 563.267Z" fill="#0B0B0B"/>
<path d="M501.512 553.687L551.386 582.592L562.911 565.419L513.036 536.514L501.512 553.687ZM551.643 584.544C551.5 584.544 551.356 584.507 551.228 584.431L499.9 554.688C499.7 554.571 499.557 554.378 499.504 554.152C499.451 553.925 499.496 553.687 499.625 553.495L512.085 534.932C512.33 534.566 512.813 534.456 513.194 534.675L564.522 564.419C564.722 564.536 564.866 564.728 564.918 564.955C564.971 565.181 564.926 565.419 564.798 565.608L552.337 584.174C552.179 584.412 551.915 584.544 551.643 584.544Z" fill="#0B0B0B"/>
<path d="M491.448 568.678L541.326 597.583L548.632 586.693L498.757 557.788L491.448 568.678ZM541.583 599.535C541.439 599.535 541.296 599.497 541.164 599.422L489.836 569.678C489.636 569.561 489.493 569.369 489.44 569.142C489.391 568.916 489.433 568.682 489.561 568.489L497.802 556.21C498.048 555.843 498.534 555.73 498.916 555.949L550.243 585.696C550.443 585.809 550.587 586.006 550.639 586.228C550.692 586.455 550.647 586.693 550.519 586.886L542.277 599.165C542.115 599.403 541.851 599.535 541.583 599.535Z" fill="#0B0B0B"/>
<path d="M520.575 225.202C520.474 225.202 520.368 225.183 520.266 225.141C517.07 223.861 513.583 221.766 513.436 221.679C513.04 221.441 512.915 220.927 513.153 220.531C513.391 220.134 513.904 220.006 514.3 220.244C514.334 220.267 517.821 222.362 520.885 223.589C521.315 223.759 521.523 224.246 521.353 224.677C521.221 225.002 520.908 225.202 520.575 225.202Z" fill="#0B0B0B"/>
<path d="M552.5 273.878L565.209 281.15C566.262 281.75 567.605 281.38 568.205 280.319L607.469 211.095C608.137 209.913 607.729 208.41 606.556 207.738L574.349 189.308L552.5 273.878Z" fill="#F8F8F8"/>
<path d="M552.5 273.878L565.209 281.15C565.828 281.501 566.545 281.52 567.152 281.263C567.152 281.263 568.167 280.799 569.3 278.817C570.269 277.11 607.182 211.597 607.182 211.597C607.997 210.162 607.586 208.659 606.416 207.987L574.205 189.557L552.5 273.878Z" fill="#F8F8F8"/>
<path d="M566.284 282.275C565.767 282.275 565.258 282.139 564.794 281.875L552.085 274.603C551.681 274.372 551.545 273.862 551.771 273.462C552.001 273.058 552.511 272.922 552.911 273.149L565.624 280.425C565.994 280.633 566.428 280.659 566.824 280.493C566.82 280.493 567.635 280.044 568.575 278.401C569.533 276.717 606.084 211.839 606.454 211.185C607.012 210.204 606.823 209.188 605.997 208.716L573.79 190.285C573.39 190.055 573.25 189.545 573.481 189.141C573.711 188.741 574.22 188.601 574.62 188.832L606.827 207.262C608.454 208.191 608.918 210.234 607.91 212.009C607.54 212.662 570.986 277.54 570.024 279.228C568.798 281.384 567.628 281.966 567.499 282.022C567.103 282.192 566.692 282.275 566.284 282.275Z" fill="#0B0B0B"/>
<path d="M587.888 233.256L550.217 276.936C549.688 277.548 548.802 277.703 548.1 277.302L473.833 234.804C472.908 234.275 472.697 233.026 473.395 232.214L530.519 165.983C531.047 165.368 531.934 165.213 532.632 165.617L606.903 208.116C607.827 208.644 608.039 209.894 607.34 210.702L591.692 228.876L587.888 233.256Z" fill="#F8F8F8"/>
<path d="M548.934 278.36C548.507 278.36 548.077 278.25 547.689 278.027L473.418 235.529C472.761 235.155 472.312 234.509 472.184 233.762C472.052 233.01 472.263 232.248 472.761 231.67L529.885 165.436C530.674 164.522 532.002 164.292 533.047 164.888L607.318 207.387C607.975 207.764 608.424 208.41 608.552 209.158C608.68 209.909 608.473 210.672 607.975 211.25L592.326 229.419C592.024 229.771 591.496 229.808 591.145 229.506C590.797 229.208 590.756 228.679 591.058 228.328L606.707 210.158C606.876 209.962 606.948 209.698 606.907 209.441C606.88 209.29 606.79 209.014 606.488 208.841L532.217 166.342C531.866 166.138 531.417 166.218 531.153 166.527L474.029 232.761C473.859 232.958 473.784 233.218 473.829 233.475C473.855 233.626 473.942 233.905 474.248 234.079L548.515 276.577C548.866 276.778 549.319 276.698 549.583 276.389L587.258 232.708C587.56 232.357 588.088 232.319 588.435 232.621C588.786 232.924 588.824 233.452 588.522 233.8L550.851 277.48C550.356 278.054 549.651 278.36 548.934 278.36Z" fill="#0B0B0B"/>
<path d="M536.307 271.982C536.228 271.997 536.152 272.012 536.077 272.027L536.307 271.982Z" fill="#0B0B0B"/>
<path d="M518.44 189.625L532.594 197.728L522.375 209.573L508.221 201.474L518.44 189.625Z" fill="#F8F8F8"/>
<path d="M509.515 201.251L522.191 208.508L531.3 197.947L518.621 190.693L509.515 201.251ZM522.375 210.411C522.232 210.411 522.089 210.374 521.96 210.302L507.806 202.199C507.587 202.078 507.44 201.863 507.394 201.617C507.353 201.368 507.425 201.115 507.587 200.926L517.806 189.081C518.07 188.775 518.508 188.703 518.855 188.9L533.009 196.999C533.228 197.124 533.375 197.339 533.421 197.584C533.462 197.83 533.39 198.083 533.228 198.272L523.006 210.121C522.843 210.309 522.613 210.411 522.375 210.411Z" fill="#0B0B0B"/>
<path d="M505.972 204.034L520.126 212.137L509.904 223.982L495.749 215.883L505.972 204.034Z" fill="#F8F8F8"/>
<path d="M497.048 215.66L509.723 222.917L518.828 212.356L506.153 205.102L497.048 215.66ZM509.904 224.82C509.764 224.82 509.621 224.783 509.489 224.711L495.334 216.611C495.119 216.487 494.968 216.272 494.927 216.026C494.885 215.777 494.953 215.528 495.119 215.335L505.338 203.49C505.598 203.188 506.036 203.112 506.387 203.309L520.542 211.408C520.757 211.533 520.908 211.748 520.949 211.993C520.991 212.243 520.923 212.492 520.761 212.681L510.538 224.53C510.376 224.718 510.142 224.82 509.904 224.82Z" fill="#0B0B0B"/>
<path d="M535.466 199.37L549.62 207.47L539.402 219.319L525.247 211.216L535.466 199.37Z" fill="#F8F8F8"/>
<path d="M526.541 210.997L539.221 218.25L548.326 207.693L535.651 200.439L526.541 210.997ZM539.402 220.153C539.258 220.153 539.119 220.119 538.987 220.044L524.832 211.944C524.613 211.82 524.466 211.605 524.421 211.359C524.379 211.114 524.451 210.861 524.613 210.672L534.836 198.823C535.096 198.521 535.534 198.445 535.881 198.642L550.035 206.745C550.254 206.869 550.405 207.081 550.447 207.33C550.488 207.576 550.417 207.829 550.254 208.017L540.036 219.863C539.87 220.055 539.639 220.153 539.402 220.153Z" fill="#0B0B0B"/>
<path d="M522.998 213.779L537.153 221.879L526.934 233.728L512.776 225.628L522.998 213.779Z" fill="#F8F8F8"/>
<path d="M514.074 225.406L526.749 232.659L535.858 222.102L523.179 214.848L514.074 225.406ZM526.934 234.562C526.791 234.562 526.647 234.528 526.519 234.453L512.361 226.353C512.145 226.229 511.995 226.014 511.953 225.768C511.912 225.523 511.979 225.27 512.145 225.081L522.364 213.232C522.625 212.93 523.066 212.854 523.413 213.051L537.568 221.154C537.783 221.279 537.934 221.49 537.975 221.739C538.021 221.985 537.949 222.238 537.787 222.426L527.564 234.272C527.402 234.464 527.168 234.562 526.934 234.562Z" fill="#0B0B0B"/>
<path d="M552.492 209.112L566.651 217.212L556.428 229.061L542.273 220.961L552.492 209.112Z" fill="#F8F8F8"/>
<path d="M543.568 220.739L556.247 227.992L565.352 217.435L552.677 210.181L543.568 220.739ZM556.428 229.899C556.288 229.899 556.145 229.861 556.013 229.79L541.858 221.686C541.639 221.562 541.492 221.35 541.451 221.101C541.405 220.856 541.477 220.603 541.639 220.414L551.862 208.565C552.122 208.263 552.56 208.187 552.907 208.387L567.066 216.487C567.281 216.611 567.432 216.827 567.473 217.072C567.515 217.318 567.443 217.571 567.281 217.759L557.062 229.608C556.9 229.797 556.666 229.899 556.428 229.899Z" fill="#0B0B0B"/>
<path d="M540.024 223.521L554.179 231.621L543.96 243.47L529.802 235.37L540.024 223.521Z" fill="#F8F8F8"/>
<path d="M531.1 235.148L543.775 242.401L552.885 231.844L540.205 224.59L531.1 235.148ZM543.96 244.308C543.817 244.308 543.673 244.27 543.545 244.195L529.391 236.095C529.172 235.971 529.021 235.759 528.979 235.51C528.938 235.265 529.009 235.012 529.172 234.823L539.39 222.974C539.651 222.672 540.092 222.596 540.439 222.796L554.594 230.896C554.813 231.021 554.96 231.236 555.005 231.481C555.047 231.727 554.975 231.98 554.813 232.168L544.59 244.017C544.428 244.206 544.194 244.308 543.96 244.308Z" fill="#0B0B0B"/>
<path d="M569.518 218.858L583.677 226.958L573.454 238.807L559.3 230.703L569.518 218.858Z" fill="#F8F8F8"/>
<path d="M560.594 230.484L573.273 237.738L582.379 227.177L569.703 219.923L560.594 230.484ZM573.454 239.641C573.314 239.641 573.171 239.607 573.039 239.531L558.884 231.432C558.669 231.307 558.519 231.092 558.477 230.847C558.435 230.601 558.503 230.348 558.666 230.16L568.888 218.311C569.149 218.009 569.586 217.933 569.933 218.129L584.092 226.229C584.307 226.353 584.458 226.569 584.499 226.814C584.541 227.063 584.473 227.312 584.307 227.501L574.088 239.35C573.926 239.539 573.692 239.641 573.454 239.641Z" fill="#0B0B0B"/>
<path d="M557.051 233.263L571.205 241.367L560.986 253.216L546.832 245.112L557.051 233.263Z" fill="#F8F8F8"/>
<path d="M548.126 244.893L560.801 252.147L569.911 241.589L557.232 234.332L548.126 244.893ZM560.986 254.05C560.843 254.05 560.7 254.016 560.571 253.941L546.417 245.841C546.198 245.717 546.051 245.501 546.005 245.256C545.964 245.007 546.036 244.757 546.198 244.569L556.417 232.72C556.681 232.418 557.118 232.342 557.466 232.538L571.62 240.638C571.839 240.762 571.986 240.978 572.032 241.223C572.073 241.472 572.001 241.722 571.839 241.91L561.62 253.759C561.454 253.948 561.224 254.05 560.986 254.05Z" fill="#0B0B0B"/>
<path d="M538.73 177.946C538.59 177.946 538.447 177.912 538.315 177.836C534.443 175.62 533.092 170.647 535.304 166.75C536.379 164.854 538.123 163.495 540.217 162.921C542.296 162.351 544.473 162.627 546.341 163.695C546.488 163.778 546.628 163.865 546.764 163.956C547.149 164.209 547.258 164.726 547.006 165.111C546.753 165.5 546.236 165.606 545.847 165.353C545.738 165.281 545.628 165.213 545.511 165.149C544.028 164.299 542.307 164.08 540.658 164.533C538.998 164.99 537.613 166.07 536.757 167.573C535.002 170.673 536.074 174.623 539.145 176.382C539.549 176.613 539.685 177.123 539.458 177.523C539.304 177.795 539.021 177.946 538.73 177.946Z" fill="#0B0B0B"/>
<path d="M548.266 183.402C548.126 183.402 547.983 183.368 547.851 183.292C543.979 181.076 542.628 176.103 544.839 172.206C545.915 170.311 547.658 168.951 549.749 168.377C551.832 167.807 554.005 168.079 555.877 169.151C556.02 169.234 556.16 169.321 556.3 169.412C556.684 169.661 556.794 170.182 556.541 170.567C556.288 170.953 555.768 171.062 555.383 170.809C555.273 170.737 555.16 170.669 555.047 170.605C553.564 169.756 551.839 169.537 550.194 169.99C548.53 170.443 547.145 171.527 546.292 173.029C544.534 176.129 545.605 180.079 548.681 181.839C549.081 182.069 549.22 182.579 548.99 182.979C548.836 183.251 548.556 183.402 548.266 183.402Z" fill="#0B0B0B"/>
<path d="M557.798 188.858C557.658 188.858 557.515 188.82 557.386 188.749C553.515 186.532 552.164 181.559 554.375 177.662C555.447 175.767 557.19 174.408 559.284 173.834C561.364 173.263 563.541 173.535 565.413 174.608C565.556 174.691 565.696 174.778 565.832 174.864C566.22 175.117 566.326 175.639 566.073 176.024C565.82 176.409 565.303 176.518 564.918 176.265C564.809 176.194 564.696 176.126 564.579 176.058C563.1 175.212 561.375 174.993 559.726 175.446C558.066 175.899 556.681 176.983 555.828 178.486C554.069 181.586 555.141 185.535 558.217 187.295C558.617 187.525 558.756 188.035 558.526 188.435C558.371 188.707 558.088 188.858 557.798 188.858Z" fill="#0B0B0B"/>
<path d="M567.333 194.314C567.194 194.314 567.05 194.277 566.918 194.201C563.047 191.988 561.696 187.015 563.907 183.115C564.982 181.223 566.726 179.86 568.82 179.286C570.899 178.72 573.077 178.992 574.945 180.064C575.088 180.147 575.231 180.234 575.367 180.324C575.752 180.577 575.862 181.095 575.609 181.48C575.356 181.865 574.839 181.975 574.45 181.722C574.341 181.65 574.231 181.582 574.114 181.514C572.631 180.668 570.907 180.449 569.262 180.902C567.601 181.355 566.213 182.435 565.36 183.942C563.605 187.042 564.673 190.992 567.748 192.751C568.148 192.981 568.288 193.491 568.062 193.892C567.907 194.163 567.624 194.314 567.333 194.314Z" fill="#0B0B0B"/>
<path d="M576.869 199.771C576.726 199.771 576.586 199.733 576.454 199.657C572.582 197.445 571.232 192.468 573.443 188.571C574.515 186.679 576.262 185.316 578.352 184.742C580.431 184.172 582.609 184.448 584.48 185.52C584.624 185.599 584.763 185.686 584.899 185.777C585.288 186.03 585.394 186.547 585.145 186.936C584.892 187.321 584.371 187.431 583.986 187.178C583.877 187.106 583.764 187.038 583.65 186.97C582.167 186.124 580.443 185.905 578.794 186.358C577.133 186.812 575.749 187.892 574.896 189.398C573.137 192.494 574.209 196.448 577.284 198.207C577.684 198.438 577.824 198.948 577.594 199.348C577.439 199.62 577.156 199.771 576.869 199.771Z" fill="#0B0B0B"/>
<path d="M586.401 205.227C586.262 205.227 586.118 205.189 585.986 205.114C582.115 202.901 580.764 197.924 582.975 194.027C584.05 192.132 585.794 190.773 587.888 190.199C589.967 189.628 592.145 189.904 594.012 190.976C594.16 191.06 594.299 191.143 594.435 191.233C594.82 191.486 594.929 192.003 594.677 192.392C594.424 192.778 593.907 192.887 593.522 192.634C593.412 192.562 593.299 192.494 593.182 192.426C591.699 191.577 589.979 191.362 588.33 191.811C586.669 192.268 585.284 193.348 584.428 194.854C582.673 197.951 583.745 201.904 586.816 203.664C587.22 203.89 587.356 204.404 587.13 204.804C586.975 205.076 586.692 205.227 586.401 205.227Z" fill="#0B0B0B"/>
<path d="M595.394 210.37C595.254 210.37 595.11 210.336 594.978 210.26C591.107 208.044 589.756 203.071 591.967 199.174C593.043 197.279 594.786 195.919 596.88 195.345C598.96 194.775 601.137 195.051 603.005 196.119C605.458 197.524 606.978 200.054 607.08 202.893C607.095 203.358 606.733 203.743 606.273 203.758C605.79 203.781 605.424 203.414 605.408 202.954C605.329 200.696 604.122 198.687 602.175 197.573C600.692 196.723 598.967 196.508 597.322 196.958C595.661 197.414 594.277 198.494 593.42 200.001C591.665 203.097 592.737 207.051 595.809 208.807C596.212 209.037 596.348 209.55 596.122 209.951C595.967 210.219 595.684 210.37 595.394 210.37Z" fill="#0B0B0B"/>
<path d="M220.635 625.464C220.635 625.464 191.735 562.077 208.313 479.905C208.313 479.905 253.103 517.461 236.956 625.464H220.635Z" fill="#F8F8F8"/>
<path d="M221.181 624.626H236.236C244.36 569.509 236.236 533.312 227.966 512.624C220.605 494.212 211.836 484.508 208.839 481.544C193.875 558.06 218.593 618.6 221.181 624.626ZM236.956 626.299H220.635C220.308 626.299 220.011 626.11 219.874 625.812C219.584 625.174 191.052 561.235 207.493 479.739C207.551 479.452 207.758 479.214 208.036 479.116C208.314 479.018 208.623 479.074 208.849 479.263C209.313 479.652 220.313 489.051 229.465 511.872C237.877 532.852 246.153 569.611 237.783 625.589C237.722 625.997 237.368 626.299 236.956 626.299Z" fill="#0B0B0B"/>
<path d="M227.703 619.691C227.687 619.691 227.672 619.691 227.656 619.691C227.196 619.665 226.842 619.272 226.868 618.811C229.08 578.284 210.819 491.78 210.634 490.912C210.539 490.459 210.826 490.017 211.278 489.919C211.726 489.825 212.173 490.111 212.269 490.565C212.454 491.437 230.76 578.152 228.536 618.902C228.512 619.347 228.144 619.691 227.703 619.691Z" fill="#0B0B0B"/>
<path d="M254.115 522.709C254.115 522.709 216.878 590.027 239.277 619.155H251.258C251.258 619.155 275.201 566.537 254.115 522.709Z" fill="#F8F8F8"/>
<path d="M239.692 618.32H250.711C253.002 612.962 272.473 565.004 254.066 524.578C248.873 534.505 220.183 592.153 239.692 618.32ZM251.258 619.993H239.277C239.017 619.993 238.771 619.872 238.613 619.665C229.148 607.355 228.773 587.199 237.5 559.755C243.96 539.444 253.288 522.475 253.383 522.305C253.534 522.033 253.82 521.863 254.137 521.875C254.451 521.882 254.73 522.067 254.866 522.347C275.88 566.02 252.258 618.974 252.017 619.502C251.881 619.8 251.586 619.993 251.258 619.993Z" fill="#0B0B0B"/>
<path d="M244.869 621.775C244.424 621.775 244.054 621.424 244.036 620.971C242.956 593.184 252.296 532.719 252.39 532.111C252.462 531.658 252.888 531.345 253.345 531.417C253.801 531.485 254.115 531.915 254.043 532.372C253.949 532.976 244.636 593.278 245.707 620.907C245.722 621.368 245.364 621.756 244.903 621.775C244.892 621.775 244.881 621.775 244.869 621.775Z" fill="#0B0B0B"/>
<path d="M178.62 547.506C178.62 547.506 210.339 558.332 221.824 622.444H209.348C209.348 622.444 183.312 587.233 178.62 547.506Z" fill="#F8F8F8"/>
<path d="M209.776 621.609H220.823C210.762 566.933 185.599 551.739 179.631 548.854C184.425 585.269 207.153 617.939 209.776 621.609ZM221.824 623.282H209.348C209.084 623.282 208.834 623.154 208.677 622.942C208.415 622.587 182.454 587.097 177.79 547.604C177.756 547.317 177.871 547.034 178.095 546.853C178.317 546.672 178.618 546.619 178.89 546.713C179.222 546.826 187.14 549.617 196.544 560.382C205.159 570.245 216.68 588.989 222.647 622.296C222.691 622.542 222.624 622.791 222.465 622.98C222.307 623.172 222.072 623.282 221.824 623.282Z" fill="#0B0B0B"/>
<path d="M215.005 621.473C214.603 621.473 214.249 621.186 214.181 620.775C209.459 592.221 189.029 563.471 188.823 563.184C188.554 562.806 188.64 562.285 189.015 562.017C189.391 561.745 189.912 561.832 190.181 562.21C190.389 562.497 211.045 591.568 215.831 620.503C215.906 620.956 215.597 621.386 215.142 621.462C215.096 621.469 215.05 621.473 215.005 621.473Z" fill="#0B0B0B"/>
<path d="M190.857 617.358H269.111L270.865 654.396C271.296 663.477 264.054 671.074 254.971 671.074H210.276C199.527 671.074 190.815 662.348 190.825 651.59L190.857 617.358Z" fill="#0B0B0B"/>
<path d="M367.389 263.8H346.887V32.9754H367.389V263.8Z" fill="#F8F8F8"/>
<path d="M346.887 264.634C346.427 264.634 346.053 264.26 346.053 263.8V32.9754C346.053 32.5147 346.427 32.1371 346.887 32.1371C347.348 32.1371 347.725 32.5147 347.725 32.9754V263.8C347.725 264.26 347.348 264.634 346.887 264.634Z" fill="#0B0B0B"/>
<path d="M367.389 264.634C366.928 264.634 366.555 264.26 366.555 263.8V32.9754C366.555 32.5147 366.928 32.1371 367.389 32.1371C367.849 32.1371 368.226 32.5147 368.226 32.9754V263.8C368.226 264.26 367.849 264.634 367.389 264.634Z" fill="#0B0B0B"/>
<path d="M431.037 97.48L512.878 121.299L570.964 56.6544L431.037 97.48Z" fill="#F8F8F8"/>
<path d="M434.026 97.48L512.606 120.347L568.379 58.2818L434.026 97.48ZM512.878 122.133C512.798 122.133 512.723 122.122 512.644 122.099L430.803 98.2843C430.445 98.1786 430.199 97.8538 430.199 97.48C430.199 97.11 430.445 96.7815 430.803 96.6758L570.726 55.8539C571.084 55.7481 571.469 55.8954 571.669 56.2088C571.869 56.526 571.832 56.9376 571.583 57.2132L513.5 121.858C513.338 122.035 513.112 122.133 512.878 122.133Z" fill="#0B0B0B"/>
<path d="M471.814 135.912L460.391 106.021L550.832 67.869L474.776 110.209L491.885 115.189L471.814 135.912Z" fill="#F8F8F8"/>
<path d="M461.463 106.478L472.123 134.386L490.319 115.605L474.542 111.013C474.222 110.919 473.984 110.639 473.946 110.303C473.908 109.967 474.078 109.642 474.372 109.48L537.006 74.6091L461.463 106.478ZM471.814 136.746C471.757 136.746 471.701 136.742 471.644 136.731C471.365 136.674 471.135 136.478 471.033 136.21L459.61 106.323C459.452 105.9 459.652 105.428 460.067 105.251L550.507 67.0987C550.919 66.925 551.39 67.1024 551.583 67.5027C551.779 67.9029 551.628 68.3825 551.239 68.5977L476.935 109.967L492.119 114.385C492.399 114.468 492.618 114.691 492.693 114.974C492.768 115.257 492.689 115.559 492.485 115.771L472.414 136.493C472.255 136.656 472.037 136.746 471.814 136.746Z" fill="#0B0B0B"/>
<path d="M472.855 127.722C472.821 127.722 472.791 127.722 472.757 127.718C472.301 127.665 471.972 127.25 472.025 126.789L473.946 110.114C473.999 109.654 474.414 109.325 474.874 109.378C475.331 109.431 475.659 109.846 475.606 110.307L473.686 126.982C473.637 127.408 473.274 127.722 472.855 127.722Z" fill="#0B0B0B"/>
<path d="M304.314 674.756C298.71 674.756 293.043 674.601 287.469 674.295C287.009 674.269 286.654 673.876 286.68 673.415C286.703 672.955 287.103 672.603 287.56 672.626C293.103 672.928 298.741 673.083 304.314 673.083C333.133 673.083 361.638 669.035 389.045 661.053C389.49 660.924 389.955 661.177 390.083 661.623C390.211 662.065 389.955 662.529 389.513 662.658C361.955 670.685 333.291 674.756 304.314 674.756Z" fill="#0B0B0B"/>
<path d="M478.195 619.997C477.931 619.997 477.674 619.872 477.512 619.642C477.248 619.261 477.338 618.739 477.716 618.475C485.927 612.721 493.95 606.487 501.553 599.939C501.9 599.641 502.429 599.678 502.731 600.03C503.032 600.377 502.991 600.906 502.644 601.208C494.995 607.789 486.931 614.061 478.674 619.846C478.527 619.948 478.361 619.997 478.195 619.997Z" fill="#0B0B0B"/>
<path d="M207.546 83.1768C207.197 83.1768 206.871 82.9539 206.754 82.6065C206.607 82.1685 206.842 81.6928 207.28 81.5455C238.462 71.0559 271.107 65.7394 304.314 65.7394C309.774 65.7394 315.299 65.8866 320.733 66.1736C321.193 66.2 321.548 66.5928 321.525 67.0534C321.499 67.5141 321.106 67.869 320.646 67.8425C315.238 67.5556 309.744 67.4121 304.314 67.4121C271.288 67.4121 238.82 72.6984 207.813 83.1314C207.724 83.1616 207.634 83.1768 207.546 83.1768Z" fill="#0B0B0B"/>
<path d="M182.403 92.9073C182.081 92.9073 181.775 92.7223 181.637 92.4051C181.451 91.9822 181.643 91.4914 182.067 91.3063C185.584 89.7582 189.178 88.2591 192.749 86.8507C193.18 86.6808 193.664 86.896 193.833 87.3227C194.002 87.7532 193.791 88.2403 193.362 88.4102C189.811 89.8073 186.237 91.2988 182.738 92.8356C182.629 92.8847 182.515 92.9073 182.403 92.9073Z" fill="#0B0B0B"/>
<path d="M10.4667 294.895C10.398 294.895 10.3278 294.887 10.2576 294.868C9.81083 294.751 9.54177 294.294 9.65725 293.849C15.7315 270.324 24.6582 247.529 36.1905 226.097C36.4098 225.689 36.9158 225.538 37.3226 225.757C37.729 225.976 37.8807 226.482 37.6622 226.89C26.1937 248.205 17.316 270.872 11.2753 294.268C11.178 294.645 10.8391 294.895 10.4667 294.895Z" fill="#0B0B0B"/>
<path d="M32.7271 506.741C32.4203 506.741 32.1253 506.571 31.9789 506.276C10.7595 463.823 0 418.059 0 370.248C0 348.43 2.31771 326.654 6.8886 305.524C6.98633 305.071 7.43311 304.788 7.88216 304.882C8.33348 304.98 8.6199 305.426 8.52254 305.879C3.97656 326.892 1.67168 348.547 1.67168 370.248C1.67168 417.794 12.3712 463.31 33.4739 505.529C33.6807 505.944 33.5132 506.446 33.1003 506.65C32.9803 506.711 32.8524 506.741 32.7271 506.741Z" fill="#0B0B0B"/>
<path d="M62.3037 238.459C62.1569 238.459 62.0086 238.418 61.8735 238.338C61.4781 238.1 61.3505 237.587 61.5883 237.19C71.9904 219.889 84.3465 203.694 98.3131 189.055C98.6316 188.722 99.161 188.711 99.4946 189.028C99.8282 189.349 99.8406 189.878 99.5218 190.21C85.64 204.759 73.3591 220.856 63.0203 238.051C62.8637 238.312 62.5871 238.459 62.3037 238.459Z" fill="#0B0B0B"/>
<path d="M47.5824 491.573C47.2647 491.573 46.9605 491.392 46.8205 491.082C30.7336 455.528 22.5767 417.553 22.5767 378.211C22.5767 334.021 32.769 291.836 52.8699 252.83C53.0812 252.419 53.5842 252.256 53.9955 252.468C54.4057 252.679 54.5668 253.185 54.3551 253.597C34.378 292.365 24.2483 334.289 24.2483 378.211C24.2483 417.315 32.355 455.056 48.3431 490.395C48.5333 490.814 48.3469 491.308 47.9265 491.501C47.8148 491.55 47.6979 491.573 47.5824 491.573Z" fill="#0B0B0B"/>
<path d="M461.44 622.285C461.233 622.285 461.025 622.21 460.863 622.051C460.527 621.734 460.516 621.205 460.837 620.869L463.912 617.659C464.233 617.323 464.761 617.312 465.093 617.633C465.425 617.95 465.437 618.483 465.12 618.815L462.044 622.028C461.878 622.198 461.659 622.285 461.44 622.285Z" fill="#0B0B0B"/>
<path d="M450.678 633.526C450.471 633.526 450.259 633.451 450.097 633.296C449.765 632.975 449.754 632.446 450.074 632.114L453.15 628.901C453.467 628.568 453.999 628.557 454.331 628.874C454.663 629.195 454.674 629.724 454.357 630.06L451.282 633.269C451.116 633.443 450.897 633.526 450.678 633.526Z" fill="#0B0B0B"/>
<path d="M453.693 622.459C453.482 622.459 453.271 622.376 453.108 622.217L449.988 619.144C449.656 618.819 449.652 618.29 449.976 617.962C450.301 617.629 450.829 617.626 451.158 617.95L454.282 621.024C454.61 621.349 454.614 621.877 454.29 622.21C454.127 622.376 453.908 622.459 453.693 622.459Z" fill="#0B0B0B"/>
<path d="M464.622 633.216C464.406 633.216 464.195 633.137 464.033 632.979L460.912 629.905C460.584 629.58 460.58 629.052 460.901 628.719C461.225 628.391 461.757 628.387 462.086 628.712L465.206 631.785C465.535 632.11 465.539 632.639 465.214 632.967C465.052 633.133 464.837 633.216 464.622 633.216Z" fill="#0B0B0B"/>
<path d="M591.061 313.046C590.854 313.046 590.646 312.966 590.484 312.811C590.148 312.494 590.137 311.962 590.458 311.63L593.533 308.416C593.854 308.084 594.382 308.073 594.714 308.394C595.05 308.711 595.058 309.239 594.741 309.575L591.665 312.785C591.499 312.959 591.28 313.046 591.061 313.046Z" fill="#0B0B0B"/>
<path d="M580.299 324.287C580.092 324.287 579.88 324.211 579.718 324.056C579.386 323.735 579.375 323.207 579.696 322.874L582.771 319.661C583.088 319.325 583.62 319.317 583.952 319.635C584.284 319.956 584.296 320.484 583.979 320.817L580.903 324.03C580.737 324.2 580.518 324.287 580.299 324.287Z" fill="#0B0B0B"/>
<path d="M583.314 313.215C583.103 313.215 582.892 313.136 582.73 312.978L579.609 309.9C579.277 309.579 579.273 309.047 579.598 308.718C579.922 308.39 580.45 308.386 580.779 308.711L583.903 311.784C584.231 312.109 584.235 312.638 583.911 312.966C583.748 313.132 583.53 313.215 583.314 313.215Z" fill="#0B0B0B"/>
<path d="M594.243 323.977C594.028 323.977 593.816 323.898 593.654 323.735L590.533 320.662C590.205 320.337 590.201 319.808 590.522 319.48C590.846 319.151 591.379 319.148 591.707 319.472L594.828 322.546C595.156 322.871 595.16 323.399 594.839 323.728C594.673 323.894 594.458 323.977 594.243 323.977Z" fill="#0B0B0B"/>
<path d="M464.814 162.37C464.686 162.37 464.55 162.34 464.425 162.275C464.018 162.06 463.863 161.554 464.078 161.143C465.535 158.375 466.599 155.282 467.24 151.944C467.327 151.491 467.765 151.193 468.218 151.28C468.671 151.367 468.969 151.805 468.882 152.258C468.21 155.758 467.093 159.009 465.554 161.924C465.406 162.207 465.116 162.37 464.814 162.37ZM450.629 176.08C450.331 176.08 450.041 175.918 449.89 175.635C449.675 175.227 449.829 174.721 450.237 174.506C453.278 172.89 455.958 170.994 458.207 168.864C458.542 168.547 459.071 168.559 459.388 168.895C459.705 169.231 459.69 169.759 459.357 170.077C456.999 172.312 454.195 174.298 451.022 175.982C450.897 176.05 450.761 176.08 450.629 176.08ZM431.603 182.178C431.203 182.178 430.852 181.895 430.78 181.488C430.701 181.034 431.003 180.6 431.46 180.521C434.92 179.909 438.169 179.143 441.112 178.233C441.554 178.097 442.022 178.342 442.158 178.784C442.294 179.226 442.048 179.694 441.607 179.83C438.595 180.759 435.279 181.548 431.747 182.167C431.701 182.175 431.652 182.178 431.603 182.178ZM381.551 183.602C381.543 183.602 381.536 183.602 381.528 183.602C378.924 183.534 376.875 183.504 375.075 183.504L374.917 182.666V183.504L371.525 183.508H371.521C371.06 183.508 370.687 183.134 370.687 182.673C370.687 182.213 371.06 181.839 371.521 181.835L374.917 181.831H375.075C376.891 181.831 378.955 181.861 381.574 181.933C382.034 181.944 382.396 182.33 382.385 182.79C382.374 183.243 382.004 183.602 381.551 183.602ZM351.461 183.813C351.012 183.813 350.642 183.459 350.627 183.005C350.608 182.545 350.97 182.156 351.43 182.141C354.532 182.031 357.819 181.952 361.479 181.903C361.483 181.903 361.487 181.903 361.491 181.903C361.947 181.903 362.321 182.269 362.325 182.73C362.332 183.19 361.962 183.572 361.502 183.576C357.857 183.625 354.581 183.704 351.491 183.813C351.48 183.813 351.468 183.813 351.461 183.813ZM411.634 184.036C411.184 184.036 410.811 183.678 410.8 183.224C410.784 182.764 411.147 182.379 411.611 182.364C415.184 182.258 418.445 182.073 421.581 181.797C422.048 181.756 422.448 182.095 422.486 182.556C422.528 183.013 422.188 183.421 421.728 183.462C418.562 183.742 415.267 183.931 411.66 184.036C411.652 184.036 411.641 184.036 411.634 184.036ZM401.603 184.123C401.6 184.123 401.6 184.123 401.596 184.123C397.837 184.085 394.253 183.991 391.551 183.912C391.09 183.897 390.728 183.511 390.739 183.047C390.755 182.586 391.128 182.235 391.6 182.239C394.294 182.318 397.868 182.413 401.611 182.45C402.071 182.454 402.445 182.832 402.437 183.292C402.434 183.753 402.06 184.123 401.603 184.123ZM331.45 185.252C331.031 185.252 330.668 184.935 330.619 184.512C330.567 184.051 330.895 183.636 331.352 183.583C334.521 183.217 337.895 182.907 341.382 182.662C341.838 182.628 342.238 182.979 342.272 183.44C342.302 183.9 341.955 184.297 341.495 184.331C338.034 184.572 334.687 184.878 331.544 185.245C331.514 185.248 331.48 185.252 331.45 185.252ZM311.725 188.786C311.356 188.786 311.012 188.533 310.918 188.156C310.805 187.71 311.073 187.253 311.522 187.14C314.654 186.343 317.971 185.633 321.382 185.029C321.835 184.95 322.269 185.252 322.352 185.709C322.431 186.162 322.129 186.596 321.672 186.676C318.303 187.272 315.023 187.975 311.933 188.76C311.865 188.779 311.797 188.786 311.725 188.786ZM292.88 195.508C292.567 195.508 292.269 195.334 292.126 195.036C291.926 194.616 292.103 194.118 292.518 193.918C295.469 192.502 298.612 191.203 301.858 190.055C302.291 189.9 302.771 190.131 302.925 190.565C303.076 191.003 302.85 191.479 302.412 191.633C299.224 192.759 296.137 194.035 293.239 195.428C293.126 195.481 293.001 195.508 292.88 195.508ZM276.058 206.33C275.824 206.33 275.586 206.231 275.42 206.035C275.122 205.684 275.167 205.155 275.518 204.857C278.069 202.697 280.813 200.673 283.673 198.838C284.062 198.589 284.578 198.702 284.828 199.091C285.077 199.48 284.963 199.997 284.575 200.246C281.775 202.04 279.092 204.019 276.597 206.133C276.443 206.265 276.25 206.33 276.058 206.33ZM262.741 221.241C262.583 221.241 262.42 221.195 262.277 221.101C261.892 220.844 261.79 220.327 262.047 219.942C263.586 217.631 265.126 215.566 266.616 213.795C267.152 213.153 267.699 212.526 268.254 211.91C268.564 211.571 269.092 211.54 269.435 211.85C269.775 212.16 269.805 212.688 269.496 213.032C268.952 213.632 268.42 214.248 267.892 214.871C266.443 216.593 264.945 218.613 263.435 220.871C263.277 221.112 263.009 221.241 262.741 221.241ZM253.398 238.976C253.292 238.976 253.186 238.958 253.085 238.916C252.658 238.742 252.451 238.255 252.62 237.829C253.847 234.774 255.281 231.685 256.881 228.645C257.096 228.238 257.601 228.083 258.013 228.298C258.42 228.513 258.575 229.019 258.36 229.427C256.786 232.414 255.375 235.45 254.171 238.452C254.039 238.776 253.726 238.976 253.398 238.976ZM248.583 258.385C248.568 258.385 248.549 258.381 248.53 258.381C248.069 258.351 247.719 257.954 247.749 257.494C247.949 254.356 248.511 250.98 249.424 247.45C249.541 247.004 249.994 246.736 250.443 246.853C250.888 246.966 251.16 247.423 251.043 247.869C250.156 251.297 249.609 254.571 249.417 257.599C249.39 258.041 249.02 258.385 248.583 258.385ZM253.949 277.166C253.718 277.166 253.488 277.072 253.326 276.883C251.073 274.346 249.473 271.261 248.568 267.715C248.454 267.27 248.722 266.813 249.171 266.699C249.617 266.586 250.073 266.854 250.186 267.304C251.024 270.585 252.503 273.436 254.575 275.773C254.881 276.121 254.851 276.649 254.503 276.955C254.345 277.098 254.149 277.166 253.949 277.166Z" fill="#0B0B0B"/>
</g>
<defs>
<clipPath id="clip0_6_477">
<rect width="649.918" height="691" fill="white"/>
</clipPath>
</defs>
</svg>
