<svg width="376" height="293" viewBox="0 0 376 293" fill="none" xmlns="http://www.w3.org/2000/svg">
<g clip-path="url(#clip0_20_3562)">
<path d="M287.415 0.481843H82.4081C77.2333 0.481843 73.0385 4.68115 73.0385 9.85942V252.693C73.0385 257.872 77.2333 262.069 82.4081 262.069H287.415C292.59 262.069 296.784 257.872 296.784 252.693V9.85942C296.784 4.68115 292.59 0.481843 287.415 0.481843Z" fill="#F8F8F8"/>
<path d="M82.4081 0.965873C77.5077 0.965873 73.5209 4.95584 73.5209 9.8594V252.693C73.5209 257.597 77.5077 261.587 82.4081 261.587H287.415C292.315 261.587 296.303 257.597 296.303 252.693V9.8594C296.303 4.95584 292.315 0.965873 287.415 0.965873H82.4081ZM287.415 262.553H82.4081C76.9756 262.553 72.5558 258.131 72.5558 252.693V9.8594C72.5558 4.42166 76.9756 -2.87219e-05 82.4081 -2.87219e-05H287.415C292.847 -2.87219e-05 297.268 4.42166 297.268 9.8594V252.693C297.268 258.131 292.847 262.553 287.415 262.553Z" fill="#0B0B0B"/>
<path d="M296.784 94.2338C296.518 94.2338 296.302 94.0179 296.302 93.7519V64.2499C296.302 63.9839 296.518 63.7659 296.784 63.7659C297.05 63.7659 297.268 63.9839 297.268 64.2499V93.7519C297.268 94.0179 297.05 94.2338 296.784 94.2338Z" fill="#0B0B0B"/>
<path d="M200.301 249.118H85.4689V13.4351H200.301V249.118Z" fill="#F8F8F8"/>
<path d="M85.9512 248.634H199.819V13.9192H85.9512V248.634ZM200.301 249.6H85.4686C85.2021 249.6 84.986 249.384 84.986 249.118V13.4352C84.986 13.1692 85.2021 12.9533 85.4686 12.9533H200.301C200.567 12.9533 200.785 13.1692 200.785 13.4352V249.118C200.785 249.384 200.567 249.6 200.301 249.6Z" fill="#0B0B0B"/>
<path d="M284.353 249.118H212.139V13.4351H284.353V249.118Z" fill="#F8F8F8"/>
<path d="M212.623 248.634H283.872V13.9192H212.623V248.634ZM284.353 249.6H212.139C211.873 249.6 211.658 249.384 211.658 249.118V13.4352C211.658 13.1692 211.873 12.9533 212.139 12.9533H284.353C284.621 12.9533 284.837 13.1692 284.837 13.4352V249.118C284.837 249.384 284.621 249.6 284.353 249.6Z" fill="#0B0B0B"/>
<path d="M311.878 275.242H52.0253V264.966H311.878V275.242Z" fill="#F8F8F8"/>
<path d="M52.5079 274.761H311.396V265.451H52.5079V274.761ZM311.877 275.726H52.0253C51.7588 275.726 51.5427 275.511 51.5427 275.242V264.967C51.5427 264.701 51.7588 264.485 52.0253 264.485H311.877C312.146 264.485 312.361 264.701 312.361 264.967V275.242C312.361 275.511 312.146 275.726 311.877 275.726Z" fill="#0B0B0B"/>
<path d="M280.054 249.196H278.44V242.823H280.054C281.793 242.823 283.201 244.269 283.201 246.011C283.201 247.748 281.793 249.196 280.054 249.196ZM282.636 238.944C281.919 238.704 281.146 238.574 280.329 238.574H278.44V233.241H245.666V252.362C245.666 259.921 251.787 266.046 259.337 266.046H264.769C271.955 266.046 277.84 260.497 278.394 253.446H280.329C284.386 253.446 287.393 249.951 287.393 245.889V245.832C287.393 242.59 285.475 239.897 282.636 238.944Z" fill="#F8F8F8"/>
<path d="M278.923 248.714H280.054C281.523 248.714 282.719 247.5 282.719 246.011C282.719 244.519 281.523 243.305 280.054 243.305H278.923V248.714ZM280.054 249.68H278.44C278.174 249.68 277.958 249.462 277.958 249.196V242.823C277.958 242.557 278.174 242.339 278.44 242.339H280.054C282.057 242.339 283.684 243.985 283.684 246.011C283.684 248.034 282.057 249.68 280.054 249.68ZM246.15 233.725V252.362C246.15 259.642 252.066 265.564 259.337 265.564H264.769C271.607 265.564 277.379 260.224 277.912 253.409C277.932 253.156 278.141 252.964 278.394 252.964H280.329C284.02 252.964 286.911 249.857 286.911 245.889V245.832C286.911 242.83 285.173 240.305 282.484 239.402C281.8 239.173 281.076 239.058 280.329 239.058H278.44C278.174 239.058 277.958 238.84 277.958 238.574V233.725H246.15ZM264.769 266.53H259.337C251.534 266.53 245.185 260.174 245.185 252.362V233.241C245.185 232.975 245.401 232.759 245.666 232.759H278.44C278.708 232.759 278.923 232.975 278.923 233.241V238.092H280.329C281.181 238.092 282.009 238.225 282.789 238.486C285.881 239.524 287.877 242.407 287.877 245.832V245.889C287.877 250.321 284.491 253.927 280.329 253.927H278.834C278.05 261.031 271.957 266.53 264.769 266.53Z" fill="#0B0B0B"/>
<path d="M282.636 239.426C282.586 239.426 282.534 239.42 282.484 239.402C281.8 239.173 281.076 239.058 280.329 239.058H278.882C278.372 239.058 277.958 238.641 277.958 238.131V233.725H251.358C251.092 233.725 250.876 233.509 250.876 233.241C250.876 232.975 251.092 232.759 251.358 232.759H278C278.509 232.759 278.923 233.173 278.923 233.683V238.092H280.329C281.181 238.092 282.009 238.225 282.789 238.486C283.042 238.571 283.179 238.844 283.094 239.097C283.026 239.3 282.839 239.426 282.636 239.426ZM278.923 248.714H279.919C281.333 248.714 282.556 247.659 282.702 246.312C282.787 245.542 282.538 244.772 282.024 244.195C281.516 243.63 280.799 243.305 280.054 243.305H278.923V248.714ZM279.919 249.68H278.882C278.372 249.68 277.958 249.264 277.958 248.754V243.266C277.958 242.755 278.372 242.339 278.882 242.339H280.054C281.074 242.339 282.052 242.782 282.741 243.551C283.44 244.332 283.776 245.376 283.663 246.416C283.458 248.276 281.85 249.68 279.919 249.68ZM264.769 266.53H259.337C251.534 266.53 245.185 260.174 245.185 252.362V233.241C245.185 232.975 245.401 232.759 245.666 232.759C245.934 232.759 246.15 232.975 246.15 233.241V252.362C246.15 259.642 252.066 265.564 259.337 265.564H264.769C271.607 265.564 277.379 260.224 277.912 253.409C277.932 253.156 278.141 252.964 278.394 252.964H280.329C284.02 252.964 286.911 249.857 286.911 245.889V245.832C286.911 244.445 286.537 243.126 285.826 242.019C285.682 241.794 285.748 241.495 285.972 241.351C286.197 241.207 286.493 241.273 286.637 241.497C287.447 242.762 287.877 244.26 287.877 245.832V245.889C287.877 250.321 284.491 253.927 280.329 253.927H278.834C278.05 261.031 271.957 266.53 264.769 266.53Z" fill="#0B0B0B"/>
<path d="M268.149 248.457C268.149 251.828 265.421 254.558 262.054 254.558C258.688 254.558 255.96 251.828 255.96 248.457C255.96 245.088 258.688 242.356 262.054 242.356C265.421 242.356 268.149 245.088 268.149 248.457Z" fill="#F8F8F8"/>
<path d="M262.054 242.84C258.96 242.84 256.441 245.359 256.441 248.457C256.441 251.555 258.96 254.076 262.054 254.076C265.148 254.076 267.665 251.555 267.665 248.457C267.665 245.359 265.148 242.84 262.054 242.84ZM262.054 255.042C258.426 255.042 255.476 252.087 255.476 248.457C255.476 244.827 258.426 241.875 262.054 241.875C265.68 241.875 268.63 244.827 268.63 248.457C268.63 252.087 265.68 255.042 262.054 255.042Z" fill="#0B0B0B"/>
<path d="M263.266 228.038C263.176 228.038 263.087 228.012 263.006 227.962C262.93 227.912 261.141 226.739 260.699 224.582C260.402 223.133 260.786 221.611 261.836 220.058C264.693 215.839 263.758 213.975 262.769 212.004L262.688 211.843C262.568 211.605 262.666 211.315 262.904 211.195C263.143 211.075 263.433 211.173 263.551 211.411L263.632 211.572C264.651 213.607 265.808 215.911 262.636 220.599C261.738 221.925 261.405 223.198 261.642 224.38C261.997 226.135 263.514 227.14 263.529 227.149C263.754 227.295 263.817 227.593 263.673 227.816C263.579 227.96 263.425 228.038 263.266 228.038Z" fill="#0B0B0B"/>
<path d="M317.937 69.1011H298.871C296.778 55.7139 285.203 45.4729 271.236 45.4729C267.645 45.4729 264.213 46.1575 261.058 47.3916C253.951 34.5472 240.271 25.8456 224.559 25.8456C201.528 25.8456 182.859 44.5288 182.859 67.5749C182.859 68.0851 182.878 68.5931 182.898 69.1011H180.961C164.887 69.1011 151.857 82.1394 151.857 98.2237C151.857 114.308 164.887 127.346 180.961 127.346H317.937C334.009 127.346 347.041 114.308 347.041 98.2237C347.041 82.1394 334.009 69.1011 317.937 69.1011Z" fill="#F8F8F8"/>
<path d="M184.077 66.0639C168.295 66.0639 155.456 78.9104 155.456 94.7025C155.456 110.495 168.295 123.343 184.077 123.343H321.053C336.835 123.343 349.675 110.495 349.675 94.7047C349.675 78.9104 336.835 66.0639 321.053 66.0639H301.99C301.752 66.0639 301.549 65.8917 301.512 65.6562C299.407 52.2014 287.986 42.4357 274.354 42.4357C270.916 42.4357 267.551 43.0702 264.351 44.3217C264.126 44.4089 263.871 44.3173 263.754 44.1059C256.483 30.9694 242.659 22.8106 227.677 22.8106C204.949 22.8106 186.458 41.3129 186.458 64.0537C186.458 64.5224 186.476 64.9846 186.493 65.4469L186.497 65.5624C186.502 65.6954 186.452 65.8219 186.362 65.9156C186.271 66.0116 186.144 66.0639 186.014 66.0639H184.077ZM321.053 124.309H184.077C167.763 124.309 154.491 111.029 154.491 94.7047C154.491 78.3784 167.763 65.098 184.077 65.098H185.515C185.502 64.7513 185.493 64.4047 185.493 64.0537C185.493 40.7787 204.417 21.8447 227.677 21.8447C242.871 21.8447 256.901 30.0427 264.392 43.2708C267.586 42.0759 270.935 41.4698 274.354 41.4698C281.179 41.4698 287.779 43.9249 292.938 48.3815C297.939 52.7007 301.288 58.6246 302.399 65.098H321.053C337.369 65.098 350.641 78.3784 350.641 94.7025C350.641 111.029 337.369 124.309 321.053 124.309Z" fill="#0B0B0B"/>
<path d="M131.23 194.705C132.088 193.801 193.307 167.336 218.329 161.706C243.352 156.079 252.676 156.024 261.191 170.334C269.704 184.643 220.175 262.725 220.175 262.725L114.803 235.242L131.23 194.705Z" fill="#0B0B0B"/>
<path d="M190.531 224.862C190.465 224.862 190.398 224.848 190.332 224.818C190.09 224.709 189.982 224.423 190.09 224.181C201.861 197.891 221.293 179.107 221.489 178.92C221.681 178.735 221.986 178.741 222.171 178.935C222.356 179.127 222.347 179.432 222.156 179.618C221.962 179.803 202.663 198.464 190.971 224.576C190.89 224.755 190.714 224.862 190.531 224.862Z" fill="#F8F8F8"/>
<path d="M81.1426 229.68C81.1426 229.68 83.9157 258.14 90.0679 264.059C96.2199 269.977 170.027 264.059 170.027 264.059C170.027 264.059 175.893 273.675 179.725 299.374C183.558 325.072 187.833 359.671 194.183 368.111L249.449 356.172C249.449 356.172 231.118 246.083 218.386 231.112C205.655 216.14 113.021 213.79 113.021 213.79L81.1426 229.68Z" fill="#0B0B0B"/>
<path d="M224.779 245.099C224.579 245.099 224.391 244.973 224.324 244.774C222.005 238.111 219.885 233.62 218.018 231.424C213.706 226.355 194.603 221.733 162.771 218.063C162.507 218.033 162.316 217.793 162.346 217.527C162.377 217.263 162.621 217.073 162.882 217.104C195.418 220.856 214.216 225.463 218.754 230.799C220.698 233.086 222.879 237.68 225.234 244.456C225.322 244.709 225.189 244.984 224.936 245.071C224.884 245.091 224.831 245.099 224.779 245.099Z" fill="#F8F8F8"/>
<path d="M183.432 136.506C181.471 135.071 178.71 135.568 177.376 137.603C170.489 148.107 151.436 177.204 151.212 177.921L160.76 179.269L184.502 142.231C185.713 140.339 185.245 137.832 183.432 136.506Z" fill="#F8F8F8"/>
<path d="M151.983 177.542L160.52 178.748L184.094 141.97C185.166 140.298 184.75 138.067 183.146 136.894C182.305 136.279 181.277 136.044 180.253 136.229C179.229 136.414 178.35 136.997 177.78 137.866C163.22 160.077 153.822 174.531 151.983 177.542ZM160.76 179.753C160.738 179.753 160.716 179.751 160.692 179.746L151.144 178.401C151.005 178.381 150.881 178.301 150.804 178.181C150.728 178.061 150.708 177.913 150.752 177.777C150.97 177.077 165.131 155.399 176.973 137.337C177.69 136.242 178.793 135.512 180.08 135.278C181.366 135.045 182.658 135.342 183.717 136.116C185.73 137.59 186.253 140.389 184.907 142.491L161.167 179.53C161.076 179.67 160.923 179.753 160.76 179.753Z" fill="#0B0B0B"/>
<path d="M53.637 224.203C53.637 224.203 43.7201 210.334 47.7809 179.269C51.842 148.203 61.7773 132.078 72.1713 128.393C82.5652 124.71 125.32 131.439 128.658 183.632L53.637 224.203Z" fill="#F8F8F8"/>
<path d="M78.3967 128.027C75.8835 128.027 73.7976 128.33 72.3325 128.849C67.0163 130.732 62.0708 135.898 58.0307 143.784C53.466 152.695 50.1784 164.654 48.2597 179.332C44.6189 207.181 52.3434 221.218 53.7989 223.566L128.157 183.355C126.346 156.408 113.959 142.814 103.865 136.148C94.8304 130.183 85.0987 128.027 78.3967 128.027ZM53.6373 224.687C53.4858 224.687 53.3379 224.615 53.2444 224.484C53.1444 224.345 43.2634 210.103 47.3025 179.205C51.006 150.876 60.0115 132.191 72.0102 127.939C77.5661 125.968 91.701 126.96 104.396 135.342C114.712 142.153 127.378 156.055 129.14 183.601C129.152 183.788 129.054 183.967 128.888 184.057L53.8665 224.628C53.7937 224.667 53.7151 224.687 53.6373 224.687Z" fill="#0B0B0B"/>
<path d="M83.5111 202.249C83.2601 202.249 83.048 202.055 83.0302 201.8L80.9717 172.667C80.953 172.401 81.1532 172.17 81.4193 172.15C81.6858 172.13 81.9156 172.331 81.9346 172.597L83.9928 201.733C84.0118 201.999 83.8115 202.23 83.5453 202.247C83.5339 202.249 83.5224 202.249 83.5111 202.249Z" fill="#0B0B0B"/>
<path d="M50.0263 216.214C50.0263 216.214 53.6292 242.302 90.0679 233.572C126.507 224.84 145.503 190.944 145.503 190.944C145.503 190.944 166.719 186.405 166 172.632C166 172.632 158.897 174.537 152.859 172.632C146.819 170.726 140.282 172.675 137.77 175.034C120.54 191.204 65.5044 196.053 50.0263 216.214Z" fill="#F8F8F8"/>
<path d="M50.5375 216.343C50.7798 217.664 52.4831 225.38 59.8294 230.391C66.9758 235.268 77.1122 236.18 89.9555 233.101C125.775 224.517 144.895 191.045 145.082 190.707C145.15 190.587 145.268 190.5 145.403 190.471C145.608 190.428 165.599 185.993 165.534 173.24C163.684 173.657 157.875 174.721 152.713 173.092C146.771 171.219 140.409 173.22 138.099 175.386C130.169 182.829 114.607 187.803 98.1308 193.068C78.8654 199.223 58.9465 205.59 50.5375 216.343ZM76.3014 235.848C69.5215 235.848 63.8229 234.291 59.2707 231.18C50.9034 225.461 49.5995 216.653 49.5483 216.28C49.5306 216.153 49.5651 216.022 49.6437 215.92C58.1605 204.827 78.3309 198.381 97.8371 192.148C114.206 186.917 129.668 181.975 137.439 174.681C140.284 172.01 147.044 170.292 153.005 172.172C158.84 174.012 165.804 172.185 165.876 172.165C166.015 172.128 166.166 172.156 166.283 172.242C166.401 172.327 166.475 172.462 166.482 172.606C167.183 186.045 148.179 190.827 145.817 191.37C145.05 192.68 140.278 200.601 131.796 209.32C123.263 218.092 109.116 229.503 90.1804 234.041C85.1479 235.246 80.5155 235.848 76.3014 235.848Z" fill="#0B0B0B"/>
<path d="M153.025 179.003C152.436 179.003 151.826 178.99 151.192 178.966C150.926 178.955 150.719 178.73 150.73 178.462C150.741 178.196 150.948 177.991 151.231 178C161.865 178.429 165.493 174.906 165.527 174.871C165.715 174.683 166.02 174.681 166.209 174.867C166.399 175.054 166.403 175.357 166.216 175.547C166.072 175.695 162.732 179.003 153.025 179.003Z" fill="#0B0B0B"/>
<path d="M151.92 184.05C151.685 184.05 151.447 184.048 151.203 184.044C150.937 184.039 150.724 183.819 150.73 183.551C150.735 183.285 150.959 183.076 151.221 183.078C160.49 183.248 163.481 179.96 163.51 179.927C163.686 179.727 163.991 179.705 164.192 179.881C164.392 180.056 164.412 180.361 164.237 180.562C164.109 180.708 161.085 184.05 151.92 184.05Z" fill="#0B0B0B"/>
<path d="M88.7421 104.217C88.4682 104.719 76.8113 124.654 76.8113 124.654L68.7726 130.059C71.739 132.315 76.9754 135.708 84.3029 137.651C91.7764 139.632 98.1206 139.229 101.835 138.715C101.513 137.699 100.97 136.375 100.029 134.993C98.5457 132.812 96.7756 131.515 95.6458 130.822C98.0444 126.699 100.443 122.576 102.842 118.455L88.7421 104.217Z" fill="#F8F8F8"/>
<path d="M69.6064 130.08C74.0739 133.371 79.0566 135.76 84.4264 137.184C89.9193 138.64 95.5553 139.02 101.189 138.311C100.797 137.232 100.274 136.209 99.6303 135.263C98.5228 133.637 97.0973 132.28 95.3932 131.232C95.1698 131.094 95.0969 130.804 95.2287 130.578L102.239 118.531L88.844 105.007C86.9712 108.234 77.6613 124.157 77.2279 124.898C77.191 124.961 77.1407 125.016 77.0804 125.055L69.6064 130.08ZM95.6834 139.624C91.8123 139.624 87.9628 139.12 84.1791 138.117C78.4686 136.604 73.1868 134.02 68.4806 130.445C68.3566 130.351 68.2857 130.203 68.2901 130.046C68.2947 129.891 68.374 129.747 68.5034 129.66L76.4504 124.316C77.3264 122.818 88.0606 104.457 88.3186 103.986C88.3918 103.851 88.5239 103.76 88.6747 103.74C88.8246 103.718 88.9773 103.768 89.085 103.877L103.185 118.115C103.338 118.27 103.369 118.509 103.259 118.699L96.2964 130.663C97.9425 131.744 99.3307 133.107 100.428 134.72C101.232 135.902 101.86 137.197 102.295 138.569C102.339 138.704 102.319 138.852 102.244 138.972C102.168 139.092 102.042 139.172 101.902 139.192C99.8278 139.48 97.7523 139.624 95.6834 139.624Z" fill="#0B0B0B"/>
<path d="M124.036 91.4822C118.664 87.0692 112.328 91.6762 106.056 86.2647C103.182 83.7834 102.919 81.4396 99.4683 80.0834C97.1832 79.1851 93.1158 78.5659 90.4096 80.6329C86.9631 83.2645 89.4999 87.3657 86.7038 96.5645C84.7402 103.025 82.0198 105.835 83.5472 108.101C85.0917 110.392 88.683 108.72 90.5584 111.096C92.9855 114.171 88.5581 118.983 89.9378 123.326C90.8857 126.311 95.4205 130.573 106.819 131.999C107.447 130.168 108.961 126.548 109.945 123.008C113.027 111.923 111.348 107.682 114.119 106.252C118.365 104.058 123.489 110.833 126.644 108.787C129.921 106.664 129.553 96.0151 124.036 91.4822Z" fill="#0B0B0B"/>
<path d="M101.766 96.9068L102.842 100.162C102.842 100.162 98.6681 110.403 97.9223 114.271C97.1765 118.139 108.973 121.359 108.973 121.359L110.825 119.986L114.119 120.81C114.119 120.81 114.019 109.537 117.037 102.022C117.037 102.022 111.468 95.2607 101.766 96.9068Z" fill="#F8F8F8"/>
<path d="M101.353 96.6582C101.738 96.5492 102.158 96.4337 102.595 96.3486C103.02 96.2679 103.501 96.1938 103.827 96.2026C104.546 96.1895 105.266 96.1459 105.983 96.2265C107.422 96.2985 108.843 96.6124 110.208 97.0616C111.578 97.5085 112.883 98.143 114.091 98.9236C115.306 99.7085 116.414 100.598 117.41 101.714C117.525 101.843 117.552 102.02 117.497 102.17L117.485 102.201C116.908 103.651 116.453 105.159 116.073 106.688C115.713 108.22 115.425 109.775 115.191 111.341C114.969 112.906 114.797 114.482 114.673 116.063C114.552 117.642 114.469 119.231 114.455 120.805C114.454 120.995 114.301 121.145 114.114 121.145C114.088 121.145 114.061 121.141 114.037 121.137L110.708 120.454L111.112 120.374L109.261 121.747L109.255 121.752C109.134 121.841 108.981 121.863 108.846 121.824C106.504 121.145 104.226 120.334 102.025 119.257C100.932 118.708 99.853 118.1 98.8889 117.26C98.4138 116.835 97.9554 116.344 97.6565 115.697C97.4985 115.381 97.4244 115.006 97.4059 114.631C97.4229 114.452 97.4318 114.232 97.4688 114.088L97.5702 113.634C98.157 111.249 98.9791 108.99 99.7946 106.72C100.626 104.459 101.491 102.216 102.395 99.981L102.383 100.315C101.98 99.1155 101.642 97.8443 101.353 96.6582ZM102.18 97.1553C102.607 98.1408 102.987 99.0391 103.3 100.012C103.337 100.125 103.329 100.243 103.289 100.345C102.391 102.565 101.527 104.804 100.701 107.052C99.8918 109.302 99.0704 111.57 98.5108 113.852L98.4154 114.277C98.379 114.426 98.3923 114.509 98.3711 114.628C98.3903 114.851 98.4217 115.078 98.5363 115.3C98.74 115.749 99.1102 116.166 99.5288 116.536C100.377 117.278 101.405 117.868 102.454 118.394C104.567 119.43 106.832 120.236 109.1 120.893L108.686 120.971L110.537 119.597L110.566 119.578C110.68 119.499 110.819 119.482 110.942 119.517L114.2 120.483L113.783 120.812C113.772 119.203 113.832 117.609 113.929 116.011C114.03 114.413 114.18 112.819 114.38 111.229C114.593 109.64 114.861 108.057 115.205 106.485C115.568 104.915 116.011 103.361 116.589 101.843L116.665 102.327C115.795 101.355 114.707 100.465 113.57 99.7369C112.427 98.9977 111.193 98.3959 109.901 97.9773C108.613 97.5543 107.274 97.2556 105.916 97.1902C105.239 97.1117 104.558 97.1553 103.878 97.1684C103.503 97.1619 103.292 97.2229 103.022 97.2142C102.763 97.2142 102.489 97.1793 102.18 97.1553Z" fill="#0B0B0B"/>
<path d="M97.7803 105.951C97.7803 105.951 98.8129 98.4657 95.3096 98.7164C91.8065 98.9672 90.8768 107.235 97.7803 105.951Z" fill="#F8F8F8"/>
<path d="M95.4771 99.1918C95.4335 99.1918 95.3893 99.194 95.344 99.1983C94.5618 99.2529 93.8732 99.8307 93.4549 100.781C92.9827 101.854 92.8923 103.422 93.7536 104.51C94.4702 105.417 95.7066 105.768 97.3445 105.534C97.5055 104.013 97.5927 100.803 96.4929 99.6279C96.2195 99.3357 95.8861 99.1918 95.4771 99.1918ZM96.3971 106.57C94.5829 106.57 93.5592 105.82 92.9969 105.109C91.886 103.707 91.983 101.73 92.5713 100.393C93.1304 99.1221 94.1412 98.3153 95.2751 98.2347C96.0454 98.1801 96.691 98.4265 97.1981 98.9694C98.9495 100.84 98.2873 105.807 98.2583 106.016C98.2298 106.223 98.0729 106.387 97.8683 106.426C97.3279 106.526 96.8388 106.57 96.3971 106.57Z" fill="#0B0B0B"/>
<path d="M290.892 272.715C295.847 275.894 328.422 295.062 367.447 276.522C367.588 276.455 367.702 276.346 367.769 276.204C369.275 273.093 385.885 236.518 361.989 184.275C361.801 183.867 361.287 183.734 360.938 184.007C356.559 187.436 331.847 206.069 312.244 205.59C311.784 205.579 311.44 206.002 311.562 206.449C312.974 211.62 318.432 238.504 290.74 271.691C290.474 272.009 290.541 272.489 290.892 272.715Z" fill="#F8F8F8"/>
<path d="M312.226 206.071C312.135 206.071 312.082 206.122 312.058 206.15C312.032 206.185 312.004 206.244 312.026 206.322C313.422 211.431 318.974 238.606 291.11 272C291.056 272.063 291.058 272.133 291.062 272.168C291.069 272.201 291.086 272.264 291.154 272.308C293.681 273.93 302.979 279.446 316.493 282.291C333.819 285.939 350.896 283.85 367.24 276.086C367.283 276.064 367.316 276.034 367.336 275.992C368.201 274.202 372.589 264.469 373.925 248.623C375.675 227.838 371.513 206.255 361.549 184.475C361.509 184.388 361.433 184.36 361.402 184.353C361.368 184.344 361.3 184.338 361.235 184.388C356.565 188.045 332.543 206.08 312.995 206.08C312.74 206.08 312.488 206.078 312.233 206.071C312.231 206.071 312.228 206.071 312.226 206.071ZM332.963 284.999C327.444 284.999 321.881 284.413 316.294 283.235C302.619 280.357 293.195 274.765 290.633 273.121C290.35 272.94 290.16 272.646 290.108 272.314C290.058 271.981 290.151 271.64 290.369 271.381C317.926 238.356 312.47 211.605 311.095 206.577C310.997 206.218 311.071 205.847 311.3 205.555C311.529 205.26 311.884 205.099 312.257 205.106C331.627 205.587 355.955 187.297 360.64 183.627C360.921 183.407 361.283 183.328 361.629 183.413C361.984 183.501 362.274 183.741 362.427 184.072C372.458 206.006 376.651 227.75 374.886 248.703C373.535 264.722 369.083 274.597 368.203 276.413C368.087 276.653 367.898 276.843 367.654 276.958C356.382 282.313 344.769 284.999 332.963 284.999Z" fill="#0B0B0B"/>
<path d="M319.499 214.614C319.275 214.614 319.075 214.457 319.027 214.23C318.972 213.969 319.138 213.714 319.399 213.659C319.608 213.615 340.541 209.122 355.785 197.801C355.999 197.642 356.302 197.688 356.461 197.902C356.62 198.118 356.574 198.419 356.36 198.578C340.942 210.027 319.809 214.56 319.597 214.603C319.565 214.61 319.532 214.614 319.499 214.614Z" fill="#0B0B0B"/>
<path d="M334.558 220.06C334.338 220.06 334.14 219.91 334.087 219.685C334.029 219.426 334.192 219.166 334.451 219.108C344.418 216.842 353.177 213.149 360.485 208.13C360.705 207.979 361.006 208.034 361.156 208.254C361.309 208.474 361.252 208.775 361.032 208.925C353.624 214.014 344.751 217.756 334.665 220.05C334.63 220.058 334.593 220.06 334.558 220.06Z" fill="#0B0B0B"/>
<path d="M319.316 222.154C319.053 222.154 318.837 221.94 318.833 221.676C318.831 221.41 319.044 221.19 319.31 221.188C319.34 221.186 322.541 221.135 327.431 220.418C327.694 220.381 327.938 220.562 327.978 220.826C328.017 221.09 327.834 221.336 327.57 221.373C322.611 222.101 319.356 222.151 319.323 222.154C319.321 222.154 319.319 222.154 319.316 222.154Z" fill="#0B0B0B"/>
<path d="M323.951 230.53C320.735 230.53 318.859 230.319 318.798 230.312C318.534 230.28 318.345 230.04 318.377 229.774C318.408 229.51 318.645 229.32 318.913 229.353C319.118 229.377 339.53 231.671 362.398 220.658C362.64 220.542 362.928 220.643 363.043 220.882C363.159 221.122 363.058 221.412 362.817 221.528C346.57 229.351 331.534 230.53 323.951 230.53Z" fill="#0B0B0B"/>
<path d="M330.185 239.293C321.92 239.293 316.748 238.172 316.643 238.148C316.384 238.09 316.22 237.83 316.279 237.571C316.336 237.311 316.593 237.148 316.854 237.207C317.068 237.255 338.417 241.875 363.998 232.037C364.246 231.941 364.525 232.065 364.621 232.314C364.717 232.562 364.593 232.842 364.344 232.937C351.064 238.044 338.905 239.293 330.185 239.293Z" fill="#0B0B0B"/>
<path d="M349.137 249.371C348.9 249.371 348.693 249.196 348.66 248.954C348.623 248.69 348.806 248.446 349.07 248.409C354.214 247.683 359.115 246.414 363.636 244.635C363.884 244.539 364.163 244.661 364.261 244.907C364.359 245.156 364.237 245.437 363.989 245.533C359.398 247.341 354.423 248.629 349.205 249.364C349.183 249.368 349.159 249.371 349.137 249.371Z" fill="#0B0B0B"/>
<path d="M338.321 250.11C324.635 250.11 314.163 246.741 314.054 246.704C313.802 246.621 313.662 246.349 313.745 246.096C313.828 245.843 314.102 245.703 314.355 245.786C314.468 245.823 325.977 249.521 340.6 249.111C340.879 249.105 341.088 249.314 341.095 249.582C341.104 249.848 340.892 250.07 340.626 250.077C339.851 250.099 339.079 250.11 338.321 250.11Z" fill="#0B0B0B"/>
<path d="M14.8608 74.9858L34.0476 93.5382C35.8164 95.2498 38.6466 95.18 40.319 93.3747C46.1101 87.1259 59.8677 73.6558 77.1085 66.0792C79.5966 64.9868 80.5207 61.9322 79.0386 59.6538L61.9686 33.3983C60.6876 31.4294 58.0864 30.8058 56.0626 32.0006C49.6058 35.8097 35.0183 45.9133 14.6246 68.9027C13.0625 70.6622 13.1688 73.3484 14.8608 74.9858Z" fill="#F8F8F8"/>
<path d="M15.1959 74.6369L34.3831 93.1915C35.147 93.9306 36.15 94.3187 37.2144 94.2926C38.271 94.2621 39.2478 93.8216 39.9651 93.0476C45.2168 87.3788 59.3304 73.3636 76.9146 65.6366C77.975 65.1721 78.773 64.2695 79.1031 63.1619C79.4312 62.063 79.2604 60.8791 78.6342 59.9175L61.564 33.6621C60.4183 31.9003 58.1099 31.3531 56.3075 32.4171C49.5147 36.4245 35.1135 46.5347 14.9856 69.2232C13.5898 70.7952 13.6826 73.1739 15.1959 74.6369ZM37.1031 95.2585C35.831 95.2585 34.6315 94.7745 33.7124 93.8849L14.5254 75.3325C12.6387 73.5075 12.5238 70.5423 14.2635 68.5822C34.4794 45.7934 48.9756 35.62 55.8175 31.5842C58.0653 30.2585 60.9456 30.9388 62.3732 33.1366L79.4432 59.3899C80.2241 60.5913 80.4372 62.0673 80.0278 63.4388C79.6164 64.8167 78.6231 65.9418 77.3024 66.5218C59.884 74.1769 45.8837 88.0808 40.673 93.7039C39.7775 94.6698 38.5588 95.2214 37.2408 95.2563C37.195 95.2585 37.1488 95.2585 37.1031 95.2585Z" fill="#0B0B0B"/>
<path d="M1.997 99.1874L21.1838 117.74C22.9527 119.451 25.7829 119.382 27.4552 117.576C33.2464 111.327 47.0039 97.8574 64.2447 90.283C66.7329 89.1884 67.6569 86.1338 66.1748 83.8553L49.1049 57.602C47.8237 55.631 45.2227 55.0096 43.1987 56.2022C36.742 60.0113 22.1545 70.1171 1.76081 93.1043C0.198736 94.866 0.305064 97.5522 1.997 99.1874Z" fill="#F8F8F8"/>
<path d="M2.33231 98.8408L21.5191 117.393C22.2833 118.132 23.2873 118.52 24.3509 118.494C25.4072 118.466 26.384 118.023 27.1013 117.249C32.353 111.583 46.4664 97.5674 64.0506 89.8404C65.1115 89.3738 65.9094 88.4711 66.2395 87.3635C66.5675 86.2646 66.3966 85.0807 65.7702 84.1192L48.7004 57.8658C47.5545 56.102 45.2459 55.5547 43.4438 56.6187C36.6511 60.6262 22.2502 70.7363 2.12161 93.4248C0.726005 94.999 0.818608 97.3756 2.33231 98.8408ZM24.2393 119.462C22.967 119.462 21.7675 118.976 20.8484 118.089L1.66185 99.5341C-0.225101 97.7113 -0.340149 94.7439 1.39973 92.7838C21.6163 69.995 36.1121 59.8216 42.9535 55.7858C45.2015 54.4602 48.0814 55.1426 49.5095 57.3382L66.5794 83.5915C67.3604 84.7929 67.5737 86.269 67.1643 87.6404C66.7529 89.0205 65.7595 90.1434 64.4386 90.7234C47.02 98.3785 33.0197 112.282 27.809 117.906C26.9139 118.871 25.6953 119.423 24.3772 119.46C24.3312 119.46 24.2853 119.462 24.2393 119.462Z" fill="#0B0B0B"/>
<path d="M6.04521 97.5544C5.81054 97.5544 5.60485 97.3821 5.56868 97.1445C5.52902 96.8806 5.71031 96.6343 5.97375 96.595L29.5668 93.0302C33.7325 92.4001 37.1416 89.5439 38.4634 85.5735L46.304 62.0325C46.3884 61.7795 46.6603 61.6422 46.9146 61.7272C47.1673 61.8122 47.3042 62.0848 47.2198 62.3377L39.3792 85.8809C37.9417 90.1958 34.2371 93.3005 29.711 93.9852L6.11798 97.55C6.09336 97.5522 6.06918 97.5544 6.04521 97.5544Z" fill="#0B0B0B"/>
<path d="M337.399 278.271C336.896 277.979 336.75 277.351 337.077 276.864C337.402 276.38 338.073 276.226 338.576 276.516C339.079 276.808 339.225 277.438 338.901 277.922C338.574 278.406 337.903 278.563 337.399 278.271Z" fill="#F8F8F8"/>
<path d="M300.593 130.037C300.534 130.037 300.473 130.026 300.414 130.002C298.569 129.263 296.555 128.053 296.47 128.003C296.241 127.865 296.17 127.569 296.307 127.34C296.444 127.111 296.74 127.037 296.969 127.174C296.989 127.187 299.002 128.397 300.771 129.106C301.02 129.204 301.14 129.485 301.042 129.734C300.965 129.921 300.785 130.037 300.593 130.037Z" fill="#0B0B0B"/>
<path d="M319.027 158.144L326.365 162.343C326.973 162.689 327.749 162.476 328.095 161.863L350.767 121.891C351.153 121.209 350.917 120.341 350.24 119.953L331.643 109.311L319.027 158.144Z" fill="#F8F8F8"/>
<path d="M319.027 158.144L326.365 162.343C326.723 162.546 327.137 162.556 327.487 162.408C327.487 162.408 328.073 162.14 328.727 160.995C329.287 160.01 350.601 122.181 350.601 122.181C351.072 121.353 350.835 120.485 350.159 120.097L331.56 109.455L319.027 158.144Z" fill="#F8F8F8"/>
<path d="M326.986 162.993C326.688 162.993 326.394 162.914 326.126 162.761L318.787 158.562C318.554 158.429 318.475 158.135 318.606 157.904C318.739 157.67 319.033 157.592 319.264 157.723L326.605 161.924C326.818 162.044 327.069 162.059 327.298 161.963C327.296 161.963 327.766 161.704 328.309 160.756C328.862 159.783 349.967 122.321 350.181 121.944C350.503 121.377 350.394 120.79 349.917 120.518L331.32 109.875C331.089 109.742 331.009 109.448 331.141 109.215C331.274 108.984 331.568 108.903 331.799 109.036L350.397 119.678C351.336 120.215 351.604 121.394 351.022 122.419C350.808 122.796 329.701 160.258 329.146 161.233C328.437 162.478 327.762 162.814 327.688 162.846C327.459 162.945 327.222 162.993 326.986 162.993Z" fill="#0B0B0B"/>
<path d="M339.461 134.688L317.708 159.91C317.403 160.263 316.891 160.352 316.486 160.121L273.602 135.581C273.069 135.276 272.947 134.555 273.35 134.086L306.334 95.8428C306.639 95.4874 307.151 95.398 307.555 95.6313L350.44 120.171C350.974 120.476 351.096 121.198 350.693 121.664L341.657 132.158L339.461 134.688Z" fill="#F8F8F8"/>
<path d="M316.968 160.732C316.721 160.732 316.473 160.668 316.248 160.54L273.363 136C272.984 135.784 272.724 135.411 272.65 134.98C272.574 134.546 272.696 134.105 272.984 133.772L305.968 95.5267C306.424 94.9991 307.191 94.8661 307.794 95.2106L350.68 119.75C351.059 119.968 351.318 120.341 351.393 120.773C351.467 121.207 351.347 121.647 351.059 121.981L342.023 132.472C341.849 132.675 341.544 132.697 341.341 132.522C341.141 132.35 341.117 132.045 341.291 131.842L350.327 121.35C350.425 121.237 350.466 121.084 350.442 120.936C350.427 120.849 350.375 120.69 350.201 120.59L307.315 96.05C307.112 95.9322 306.853 95.978 306.7 96.1568L273.716 134.402C273.618 134.515 273.574 134.666 273.6 134.814C273.615 134.901 273.666 135.063 273.842 135.163L316.726 159.702C316.928 159.818 317.19 159.772 317.342 159.593L339.097 134.371C339.271 134.169 339.576 134.147 339.777 134.321C339.979 134.496 340.001 134.801 339.827 135.002L318.074 160.224C317.789 160.555 317.382 160.732 316.968 160.732Z" fill="#0B0B0B"/>
<path d="M309.676 157.049C309.63 157.058 309.587 157.066 309.544 157.075L309.676 157.049Z" fill="#0B0B0B"/>
<path d="M299.36 109.494L307.533 114.173L301.632 121.013L293.459 116.336L299.36 109.494Z" fill="#F8F8F8"/>
<path d="M294.206 116.207L301.525 120.398L306.785 114.299L299.464 110.111L294.206 116.207ZM301.632 121.497C301.549 121.497 301.467 121.475 301.392 121.433L293.219 116.754C293.093 116.685 293.008 116.56 292.982 116.419C292.958 116.275 292.999 116.129 293.093 116.02L298.993 109.18C299.146 109.003 299.399 108.962 299.599 109.075L307.772 113.752C307.899 113.824 307.984 113.948 308.01 114.09C308.034 114.232 307.992 114.378 307.899 114.487L301.996 121.329C301.902 121.438 301.769 121.497 301.632 121.497Z" fill="#0B0B0B"/>
<path d="M292.16 117.814L300.334 122.493L294.431 129.333L286.258 124.656L292.16 117.814Z" fill="#F8F8F8"/>
<path d="M287.007 124.527L294.326 128.718L299.584 122.619L292.265 118.431L287.007 124.527ZM294.431 129.817C294.35 129.817 294.267 129.795 294.191 129.753L286.018 125.077C285.894 125.005 285.807 124.88 285.783 124.739C285.759 124.595 285.798 124.451 285.894 124.34L291.794 117.5C291.945 117.326 292.197 117.282 292.4 117.395L300.573 122.072C300.697 122.144 300.785 122.268 300.809 122.41C300.833 122.554 300.793 122.698 300.7 122.807L294.797 129.649C294.703 129.758 294.568 129.817 294.431 129.817Z" fill="#0B0B0B"/>
<path d="M309.191 115.121L317.364 119.798L311.464 126.64L303.29 121.961L309.191 115.121Z" fill="#F8F8F8"/>
<path d="M304.038 121.835L311.359 126.023L316.617 119.927L309.298 115.738L304.038 121.835ZM311.464 127.122C311.381 127.122 311.3 127.102 311.224 127.059L303.051 122.382C302.924 122.31 302.839 122.186 302.813 122.044C302.789 121.902 302.831 121.756 302.924 121.647L308.827 114.805C308.977 114.631 309.23 114.587 309.431 114.7L317.604 119.379C317.73 119.451 317.817 119.574 317.841 119.717C317.865 119.859 317.824 120.005 317.73 120.114L311.83 126.954C311.734 127.065 311.601 127.122 311.464 127.122Z" fill="#0B0B0B"/>
<path d="M301.992 123.441L310.165 128.118L304.264 134.96L296.089 130.283L301.992 123.441Z" fill="#F8F8F8"/>
<path d="M296.839 130.155L304.158 134.343L309.418 128.247L302.096 124.058L296.839 130.155ZM304.264 135.442C304.182 135.442 304.099 135.422 304.025 135.379L295.849 130.702C295.725 130.63 295.638 130.506 295.614 130.364C295.59 130.222 295.629 130.076 295.725 129.967L301.626 123.125C301.776 122.951 302.031 122.907 302.231 123.021L310.405 127.7C310.529 127.772 310.616 127.894 310.64 128.038C310.666 128.179 310.625 128.325 310.531 128.434L304.628 135.274C304.535 135.385 304.399 135.442 304.264 135.442Z" fill="#0B0B0B"/>
<path d="M319.022 120.747L327.198 125.423L321.295 132.265L313.122 127.588L319.022 120.747Z" fill="#F8F8F8"/>
<path d="M313.869 127.46L321.19 131.648L326.448 125.552L319.129 121.364L313.869 127.46ZM321.295 132.749C321.214 132.749 321.131 132.727 321.055 132.686L312.882 128.007C312.756 127.935 312.671 127.813 312.647 127.669C312.621 127.527 312.662 127.381 312.756 127.272L318.658 120.43C318.809 120.256 319.061 120.212 319.262 120.328L327.437 125.005C327.561 125.077 327.649 125.201 327.673 125.343C327.697 125.484 327.655 125.63 327.561 125.739L321.661 132.581C321.567 132.69 321.432 132.749 321.295 132.749Z" fill="#0B0B0B"/>
<path d="M311.823 129.067L319.996 133.743L314.096 140.585L305.92 135.909L311.823 129.067Z" fill="#F8F8F8"/>
<path d="M306.67 135.78L313.989 139.968L319.249 133.872L311.928 129.684L306.67 135.78ZM314.096 141.069C314.013 141.069 313.93 141.048 313.856 141.004L305.683 136.327C305.556 136.255 305.469 136.133 305.445 135.989C305.421 135.847 305.463 135.701 305.556 135.592L311.457 128.75C311.607 128.576 311.862 128.532 312.063 128.648L320.236 133.325C320.362 133.397 320.447 133.521 320.473 133.663C320.497 133.805 320.456 133.951 320.362 134.06L314.46 140.901C314.366 141.01 314.231 141.069 314.096 141.069Z" fill="#0B0B0B"/>
<path d="M328.854 126.374L337.029 131.051L331.126 137.893L322.953 133.214L328.854 126.374Z" fill="#F8F8F8"/>
<path d="M323.7 133.087L331.022 137.276L336.279 131.177L328.96 126.989L323.7 133.087ZM331.126 138.374C331.046 138.374 330.963 138.355 330.887 138.311L322.713 133.634C322.589 133.562 322.502 133.438 322.478 133.296C322.454 133.155 322.493 133.009 322.587 132.9L328.49 126.058C328.64 125.883 328.893 125.84 329.093 125.953L337.269 130.63C337.393 130.702 337.48 130.826 337.504 130.968C337.528 131.112 337.489 131.256 337.393 131.365L331.492 138.207C331.399 138.316 331.263 138.374 331.126 138.374Z" fill="#0B0B0B"/>
<path d="M321.654 134.692L329.828 139.371L323.927 146.213L315.754 141.534L321.654 134.692Z" fill="#F8F8F8"/>
<path d="M316.501 141.407L323.82 145.596L329.08 139.499L321.759 135.309L316.501 141.407ZM323.927 146.695C323.844 146.695 323.761 146.675 323.687 146.631L315.514 141.955C315.388 141.883 315.303 141.758 315.277 141.617C315.253 141.473 315.294 141.329 315.388 141.22L321.288 134.378C321.441 134.203 321.694 134.16 321.894 134.273L330.067 138.95C330.194 139.022 330.279 139.146 330.305 139.288C330.329 139.432 330.287 139.576 330.194 139.685L324.293 146.527C324.197 146.636 324.064 146.695 323.927 146.695Z" fill="#0B0B0B"/>
<path d="M311.076 102.75C310.995 102.75 310.912 102.73 310.836 102.687C308.6 101.407 307.82 98.5355 309.097 96.2854C309.718 95.1909 310.725 94.4059 311.934 94.0745C313.135 93.7453 314.392 93.9045 315.471 94.5215C315.556 94.5695 315.636 94.6196 315.715 94.6719C315.937 94.818 316 95.1167 315.854 95.3391C315.708 95.5637 315.41 95.6247 315.185 95.4787C315.122 95.4372 315.059 95.398 314.991 95.3609C314.135 94.8703 313.141 94.7439 312.189 95.0056C311.23 95.2694 310.431 95.8929 309.936 96.7607C308.923 98.5508 309.542 100.831 311.315 101.847C311.549 101.98 311.627 102.275 311.496 102.506C311.407 102.663 311.243 102.75 311.076 102.75Z" fill="#0B0B0B"/>
<path d="M316.582 105.901C316.501 105.901 316.418 105.881 316.342 105.837C314.107 104.558 313.327 101.686 314.603 99.436C315.224 98.3414 316.231 97.5565 317.438 97.2251C318.641 96.8959 319.896 97.0529 320.977 97.6721C321.06 97.72 321.14 97.7702 321.221 97.8225C321.443 97.9664 321.506 98.2673 321.36 98.4897C321.214 98.7121 320.914 98.7753 320.691 98.6292C320.628 98.5878 320.563 98.5486 320.497 98.5115C319.641 98.0209 318.645 97.8945 317.695 98.1561C316.734 98.4178 315.935 99.0435 315.442 99.9113C314.427 101.701 315.046 103.982 316.822 104.998C317.052 105.131 317.133 105.425 317 105.656C316.911 105.813 316.75 105.901 316.582 105.901Z" fill="#0B0B0B"/>
<path d="M322.086 109.051C322.005 109.051 321.922 109.029 321.848 108.988C319.613 107.708 318.833 104.837 320.109 102.587C320.728 101.492 321.735 100.707 322.944 100.376C324.145 100.046 325.402 100.203 326.483 100.823C326.566 100.871 326.646 100.921 326.725 100.971C326.949 101.117 327.01 101.418 326.864 101.64C326.718 101.863 326.42 101.926 326.197 101.78C326.134 101.738 326.069 101.699 326.001 101.66C325.147 101.172 324.151 101.045 323.199 101.307C322.241 101.568 321.441 102.194 320.948 103.062C319.933 104.852 320.552 107.133 322.328 108.149C322.559 108.282 322.639 108.576 322.506 108.807C322.417 108.964 322.254 109.051 322.086 109.051Z" fill="#0B0B0B"/>
<path d="M327.592 112.202C327.511 112.202 327.429 112.18 327.352 112.136C325.117 110.859 324.337 107.987 325.613 105.735C326.234 104.643 327.241 103.855 328.45 103.524C329.651 103.197 330.908 103.354 331.987 103.973C332.07 104.021 332.152 104.071 332.231 104.124C332.453 104.27 332.516 104.568 332.37 104.791C332.224 105.013 331.926 105.076 331.701 104.93C331.638 104.889 331.575 104.85 331.507 104.81C330.651 104.322 329.655 104.196 328.705 104.457C327.747 104.719 326.945 105.342 326.452 106.212C325.439 108.002 326.056 110.283 327.832 111.299C328.063 111.432 328.143 111.726 328.012 111.958C327.923 112.115 327.76 112.202 327.592 112.202Z" fill="#0B0B0B"/>
<path d="M333.098 115.352C333.015 115.352 332.935 115.331 332.858 115.287C330.623 114.009 329.843 111.136 331.12 108.886C331.739 107.793 332.747 107.006 333.955 106.675C335.155 106.345 336.412 106.505 337.493 107.124C337.576 107.17 337.657 107.22 337.735 107.272C337.959 107.418 338.02 107.717 337.877 107.941C337.731 108.164 337.43 108.227 337.208 108.081C337.144 108.04 337.079 108 337.014 107.961C336.157 107.473 335.162 107.346 334.209 107.608C333.251 107.87 332.451 108.493 331.959 109.363C330.943 111.151 331.562 113.434 333.338 114.45C333.569 114.583 333.649 114.877 333.517 115.108C333.427 115.265 333.264 115.352 333.098 115.352Z" fill="#0B0B0B"/>
<path d="M338.602 118.503C338.522 118.503 338.439 118.481 338.363 118.438C336.127 117.16 335.347 114.286 336.624 112.036C337.245 110.942 338.251 110.157 339.461 109.825C340.661 109.496 341.919 109.655 342.997 110.274C343.082 110.322 343.163 110.37 343.241 110.423C343.463 110.569 343.527 110.867 343.381 111.092C343.235 111.314 342.936 111.378 342.714 111.232C342.651 111.19 342.585 111.151 342.518 111.112C341.661 110.621 340.668 110.497 339.716 110.756C338.757 111.02 337.957 111.644 337.463 112.514C336.449 114.301 337.068 116.584 338.842 117.6C339.075 117.731 339.153 118.028 339.023 118.259C338.933 118.416 338.77 118.503 338.602 118.503Z" fill="#0B0B0B"/>
<path d="M343.795 121.473C343.714 121.473 343.631 121.453 343.555 121.409C341.319 120.13 340.539 117.258 341.816 115.008C342.437 113.913 343.444 113.128 344.653 112.797C345.854 112.468 347.111 112.627 348.189 113.244C349.606 114.055 350.484 115.516 350.543 117.156C350.551 117.424 350.342 117.646 350.076 117.655C349.797 117.668 349.586 117.456 349.577 117.19C349.532 115.887 348.834 114.727 347.71 114.083C346.854 113.593 345.858 113.469 344.908 113.728C343.949 113.992 343.15 114.615 342.655 115.485C341.642 117.273 342.261 119.556 344.034 120.57C344.267 120.703 344.346 120.999 344.215 121.231C344.126 121.385 343.962 121.473 343.795 121.473Z" fill="#0B0B0B"/>
<path d="M212.139 152.324H200.301V19.0408H212.139V152.324Z" fill="#F8F8F8"/>
<path d="M200.301 152.806C200.035 152.806 199.819 152.59 199.819 152.324V19.0407C199.819 18.7747 200.035 18.5567 200.301 18.5567C200.567 18.5567 200.785 18.7747 200.785 19.0407V152.324C200.785 152.59 200.567 152.806 200.301 152.806Z" fill="#0B0B0B"/>
<path d="M212.139 152.806C211.873 152.806 211.658 152.59 211.658 152.324V19.0407C211.658 18.7747 211.873 18.5567 212.139 18.5567C212.405 18.5567 212.623 18.7747 212.623 19.0407V152.324C212.623 152.59 212.405 152.806 212.139 152.806Z" fill="#0B0B0B"/>
<path d="M248.891 56.2873L296.148 70.0408L329.688 32.7136L248.891 56.2873Z" fill="#F8F8F8"/>
<path d="M250.617 56.2873L295.991 69.4914L328.196 33.6533L250.617 56.2873ZM296.148 70.5227C296.102 70.5227 296.059 70.5161 296.013 70.503L248.756 56.7517C248.549 56.6907 248.407 56.5032 248.407 56.2873C248.407 56.0736 248.549 55.884 248.756 55.8229L329.551 32.2514C329.758 32.1903 329.98 32.2754 330.096 32.4563C330.211 32.6395 330.189 32.8771 330.046 33.0363L296.507 70.3635C296.414 70.466 296.283 70.5227 296.148 70.5227Z" fill="#0B0B0B"/>
<path d="M272.437 78.4787L265.841 61.2192L318.064 39.1892L274.147 63.6372L284.026 66.513L272.437 78.4787Z" fill="#F8F8F8"/>
<path d="M266.46 61.483L272.615 77.5978L283.122 66.7529L274.012 64.1016C273.827 64.0471 273.69 63.8857 273.668 63.6917C273.646 63.4976 273.744 63.3102 273.914 63.2164L310.08 43.0811L266.46 61.483ZM272.437 78.9605C272.404 78.9605 272.371 78.9584 272.339 78.9518C272.177 78.9191 272.044 78.8058 271.986 78.651L265.39 61.3937C265.299 61.1495 265.414 60.8769 265.654 60.7744L317.876 38.7444C318.114 38.6441 318.386 38.7466 318.497 38.9777C318.61 39.2088 318.523 39.4857 318.299 39.61L275.394 63.4977L284.162 66.0487C284.323 66.0966 284.449 66.2253 284.493 66.3888C284.536 66.5523 284.491 66.7267 284.373 66.8488L272.783 78.8145C272.692 78.9082 272.565 78.9605 272.437 78.9605Z" fill="#0B0B0B"/>
<path d="M273.038 73.7496C273.018 73.7496 273.001 73.7496 272.981 73.7474C272.718 73.7169 272.528 73.477 272.559 73.211L273.668 63.5827C273.698 63.3167 273.938 63.127 274.204 63.1575C274.467 63.188 274.657 63.4279 274.626 63.6939L273.517 73.3222C273.489 73.5686 273.28 73.7496 273.038 73.7496Z" fill="#0B0B0B"/>
<path d="M119.842 48.0283C119.64 48.0283 119.452 47.8996 119.385 47.699C119.3 47.4461 119.436 47.1714 119.688 47.0863C137.694 41.0294 156.544 37.9595 175.718 37.9595C178.871 37.9595 182.061 38.0445 185.199 38.2102C185.465 38.2255 185.669 38.4523 185.656 38.7183C185.641 38.9843 185.414 39.1892 185.149 39.1739C182.026 39.0082 178.854 38.9254 175.718 38.9254C156.648 38.9254 137.901 41.9778 119.996 48.0021C119.945 48.0195 119.893 48.0283 119.842 48.0283Z" fill="#0B0B0B"/>
<path d="M105.324 53.6469C105.138 53.6469 104.961 53.5401 104.882 53.3569C104.774 53.1127 104.885 52.8293 105.13 52.7225C107.161 51.8285 109.236 50.963 111.298 50.1497C111.546 50.0516 111.826 50.1759 111.924 50.4222C112.022 50.6708 111.9 50.9521 111.652 51.0502C109.601 51.8569 107.537 52.7181 105.517 53.6055C105.454 53.6339 105.388 53.6469 105.324 53.6469Z" fill="#0B0B0B"/>
<path d="M6.04368 170.279C6.00403 170.279 5.9635 170.275 5.92297 170.264C5.66499 170.196 5.50962 169.933 5.5763 169.675C9.08373 156.092 14.2382 142.929 20.8972 130.554C21.0238 130.318 21.316 130.231 21.5509 130.357C21.7856 130.484 21.8732 130.776 21.747 131.012C15.1248 143.319 9.99866 156.408 6.51062 169.917C6.45441 170.135 6.25875 170.279 6.04368 170.279Z" fill="#0B0B0B"/>
<path d="M18.8974 292.604C18.7203 292.604 18.5499 292.506 18.4654 292.336C6.21279 267.823 0 241.397 0 213.79C0 201.192 1.3383 188.618 3.97764 176.417C4.03408 176.155 4.29206 175.992 4.55135 176.046C4.81195 176.103 4.97734 176.36 4.92112 176.622C2.29616 188.755 0.965268 201.259 0.965268 213.79C0.965268 241.245 7.14341 267.526 19.3286 291.904C19.4481 292.144 19.3513 292.434 19.1129 292.552C19.0436 292.587 18.9698 292.604 18.8974 292.604Z" fill="#0B0B0B"/>
<path d="M35.9757 137.692C35.8909 137.692 35.8053 137.668 35.7273 137.622C35.4989 137.485 35.4253 137.188 35.5625 136.959C41.569 126.969 48.7037 117.618 56.7684 109.165C56.9523 108.973 57.258 108.966 57.4506 109.149C57.6432 109.335 57.6504 109.64 57.4663 109.832C49.4506 118.233 42.3593 127.527 36.3895 137.457C36.299 137.607 36.1393 137.692 35.9757 137.692Z" fill="#0B0B0B"/>
<path d="M27.4752 283.846C27.2918 283.846 27.1161 283.741 27.0353 283.563C17.7463 263.033 13.0363 241.105 13.0363 218.388C13.0363 192.872 18.9216 168.513 30.5283 145.99C30.6504 145.753 30.9408 145.659 31.1783 145.781C31.4152 145.903 31.5082 146.195 31.386 146.433C19.8507 168.818 14.0016 193.027 14.0016 218.388C14.0016 240.968 18.6826 262.76 27.9145 283.166C28.0243 283.408 27.9167 283.693 27.6739 283.805C27.6094 283.833 27.5419 283.846 27.4752 283.846Z" fill="#0B0B0B"/>
<path d="M341.293 180.76C341.173 180.76 341.053 180.714 340.96 180.625C340.766 180.442 340.759 180.134 340.945 179.942L342.72 178.087C342.906 177.895 343.211 177.889 343.402 178.074C343.596 178.257 343.601 178.562 343.418 178.756L341.642 180.61C341.546 180.71 341.42 180.76 341.293 180.76Z" fill="#0B0B0B"/>
<path d="M335.079 187.251C334.959 187.251 334.837 187.207 334.743 187.118C334.552 186.933 334.545 186.627 334.73 186.435L336.506 184.58C336.689 184.386 336.996 184.382 337.188 184.565C337.38 184.75 337.386 185.055 337.203 185.247L335.427 187.103C335.332 187.201 335.205 187.251 335.079 187.251Z" fill="#0B0B0B"/>
<path d="M336.82 180.858C336.698 180.858 336.576 180.812 336.482 180.721L334.68 178.944C334.488 178.759 334.486 178.451 334.674 178.261C334.861 178.072 335.166 178.07 335.356 178.257L337.16 180.032C337.349 180.219 337.351 180.525 337.164 180.714C337.07 180.81 336.944 180.858 336.82 180.858Z" fill="#0B0B0B"/>
<path d="M343.13 187.072C343.006 187.072 342.884 187.026 342.79 186.933L340.988 185.158C340.799 184.97 340.796 184.665 340.982 184.475C341.169 184.286 341.476 184.284 341.666 184.471L343.468 186.246C343.657 186.433 343.659 186.739 343.474 186.928C343.378 187.024 343.254 187.072 343.13 187.072Z" fill="#0B0B0B"/>
<path d="M268.395 93.7563C268.321 93.7563 268.242 93.7388 268.17 93.7018C267.935 93.5775 267.846 93.2853 267.97 93.0477C268.811 91.4495 269.425 89.6638 269.796 87.7364C269.846 87.4748 270.099 87.3025 270.36 87.3527C270.622 87.4028 270.794 87.6557 270.744 87.9174C270.356 89.9385 269.711 91.8158 268.822 93.499C268.737 93.6625 268.569 93.7563 268.395 93.7563ZM260.204 101.673C260.032 101.673 259.864 101.579 259.777 101.416C259.653 101.18 259.742 100.888 259.978 100.764C261.734 99.8307 263.281 98.7361 264.579 97.5064C264.773 97.3233 265.078 97.3299 265.261 97.5239C265.444 97.7179 265.436 98.0232 265.244 98.2063C263.882 99.4971 262.263 100.644 260.431 101.616C260.359 101.656 260.28 101.673 260.204 101.673ZM249.218 105.194C248.987 105.194 248.784 105.031 248.743 104.795C248.697 104.534 248.871 104.283 249.135 104.237C251.133 103.884 253.009 103.441 254.709 102.916C254.964 102.837 255.234 102.979 255.312 103.234C255.391 103.489 255.249 103.76 254.994 103.838C253.256 104.374 251.34 104.83 249.301 105.188C249.275 105.192 249.246 105.194 249.218 105.194ZM220.317 106.016C220.312 106.016 220.308 106.016 220.304 106.016C218.8 105.977 217.617 105.96 216.578 105.96L216.486 105.476V105.96L214.527 105.962H214.525C214.259 105.962 214.043 105.746 214.043 105.48C214.043 105.214 214.259 104.998 214.525 104.996L216.486 104.994H216.578C217.626 104.994 218.817 105.011 220.33 105.053C220.596 105.059 220.805 105.282 220.798 105.548C220.792 105.809 220.578 106.016 220.317 106.016ZM202.942 106.138C202.683 106.138 202.469 105.933 202.46 105.672C202.449 105.406 202.659 105.181 202.924 105.172C204.715 105.109 206.613 105.063 208.727 105.035C208.729 105.035 208.731 105.035 208.733 105.035C208.997 105.035 209.213 105.247 209.215 105.513C209.219 105.779 209.006 105.999 208.74 106.001C206.635 106.029 204.744 106.075 202.959 106.138C202.953 106.138 202.946 106.138 202.942 106.138ZM237.687 106.267C237.428 106.267 237.212 106.06 237.205 105.798C237.197 105.532 237.406 105.31 237.674 105.301C239.737 105.24 241.62 105.133 243.431 104.974C243.701 104.95 243.932 105.146 243.954 105.412C243.978 105.676 243.782 105.912 243.516 105.936C241.688 106.097 239.785 106.206 237.702 106.267C237.698 106.267 237.691 106.267 237.687 106.267ZM231.895 106.317C231.893 106.317 231.893 106.317 231.891 106.317C229.721 106.295 227.651 106.241 226.091 106.195C225.825 106.186 225.616 105.964 225.622 105.696C225.631 105.43 225.847 105.227 226.119 105.229C227.675 105.275 229.738 105.329 231.9 105.351C232.166 105.353 232.381 105.571 232.377 105.837C232.375 106.103 232.159 106.317 231.895 106.317ZM191.387 106.969C191.145 106.969 190.936 106.786 190.908 106.542C190.877 106.276 191.067 106.036 191.33 106.005C193.161 105.794 195.109 105.615 197.122 105.473C197.386 105.454 197.616 105.657 197.636 105.923C197.654 106.189 197.453 106.417 197.187 106.437C195.189 106.577 193.256 106.753 191.441 106.965C191.424 106.967 191.404 106.969 191.387 106.969ZM179.998 109.01C179.784 109.01 179.586 108.864 179.531 108.646C179.466 108.388 179.621 108.125 179.88 108.059C181.689 107.599 183.604 107.189 185.574 106.84C185.835 106.795 186.086 106.969 186.134 107.233C186.179 107.495 186.005 107.745 185.741 107.791C183.796 108.136 181.902 108.541 180.117 108.995C180.078 109.005 180.039 109.01 179.998 109.01ZM169.116 112.891C168.935 112.891 168.763 112.791 168.68 112.618C168.565 112.376 168.667 112.088 168.907 111.973C170.611 111.155 172.426 110.405 174.3 109.742C174.55 109.653 174.827 109.786 174.916 110.037C175.004 110.29 174.873 110.564 174.62 110.654C172.779 111.304 170.996 112.041 169.323 112.845C169.258 112.876 169.186 112.891 169.116 112.891ZM159.402 119.14C159.267 119.14 159.13 119.083 159.034 118.97C158.862 118.767 158.888 118.462 159.091 118.289C160.564 117.042 162.148 115.874 163.799 114.814C164.024 114.67 164.322 114.735 164.466 114.96C164.61 115.185 164.545 115.483 164.32 115.627C162.703 116.663 161.154 117.805 159.714 119.026C159.625 119.103 159.513 119.14 159.402 119.14ZM151.713 127.75C151.621 127.75 151.528 127.724 151.445 127.669C151.223 127.521 151.164 127.222 151.312 127C152.201 125.665 153.09 124.473 153.951 123.45C154.26 123.08 154.576 122.718 154.896 122.362C155.075 122.166 155.38 122.149 155.578 122.327C155.774 122.506 155.792 122.811 155.613 123.01C155.299 123.356 154.992 123.712 154.687 124.072C153.85 125.066 152.985 126.232 152.114 127.536C152.022 127.676 151.868 127.75 151.713 127.75ZM146.318 137.991C146.257 137.991 146.196 137.98 146.137 137.956C145.891 137.856 145.771 137.574 145.869 137.328C146.577 135.564 147.405 133.781 148.329 132.025C148.453 131.79 148.745 131.701 148.983 131.825C149.218 131.949 149.307 132.241 149.183 132.477C148.275 134.201 147.46 135.954 146.765 137.688C146.688 137.875 146.507 137.991 146.318 137.991ZM143.538 149.198C143.529 149.198 143.518 149.195 143.507 149.195C143.241 149.178 143.039 148.949 143.056 148.683C143.172 146.871 143.496 144.922 144.023 142.883C144.091 142.626 144.352 142.471 144.612 142.539C144.869 142.604 145.026 142.868 144.958 143.125C144.446 145.105 144.13 146.996 144.019 148.744C144.004 148.999 143.79 149.198 143.538 149.198ZM146.636 160.043C146.503 160.043 146.37 159.988 146.276 159.879C144.976 158.414 144.052 156.633 143.529 154.585C143.463 154.328 143.618 154.064 143.877 153.999C144.135 153.933 144.398 154.088 144.464 154.348C144.947 156.242 145.801 157.888 146.998 159.238C147.174 159.439 147.157 159.744 146.956 159.921C146.865 160.003 146.752 160.043 146.636 160.043Z" fill="#0B0B0B"/>
</g>
<defs>
<clipPath id="clip0_20_3562">
<rect width="375.278" height="293" fill="white"/>
</clipPath>
</defs>
</svg>
